<svg width="90" height="90" viewBox="0 0 90 90" fill="none" xmlns="http://www.w3.org/2000/svg">
	<path d="M40.227 42.4363L44.9585 39.7023L44.9584 22.5874M40.227 42.4363L40.2269 25.3214M40.227 42.4363L25.3872 50.9937L25.3872 56.4542M40.227 42.4363L44.9584 39.7023M44.9584 73.206V78.6665M44.9584 73.206L20.6557 59.1881V59.1807M44.9584 73.206L69.2612 59.1881M44.9584 78.6665L15.9167 61.9147V28.4184M44.9584 78.6665L74.0001 61.9147V28.4184M15.9167 28.4184L20.6557 31.1449M15.9167 28.4184L44.9584 11.6665L74.0001 28.4184M20.6557 31.1449L20.6557 59.1807M20.6557 31.1449L44.9584 17.127M20.6557 59.1807L25.3872 56.4542M69.2612 59.1881L64.5297 56.4542M69.2612 59.1881L69.2612 36.6054L64.5297 39.3393M25.3872 56.4542L30.1187 59.1881M25.3872 56.4542V33.8788L40.2269 25.3214M25.3872 56.4542L44.9584 45.1628L69.2612 31.1449L74.0001 28.4184M30.1187 59.1881L44.9584 67.7456L59.7982 59.1881M30.1187 59.1881L44.9584 50.6307M59.7982 59.1881L64.5297 56.4542M59.7982 59.1881L44.9584 50.6307M64.5297 56.4542L64.5297 39.3393M64.5297 56.4542V50.9937L54.4289 45.1628M64.5297 56.4542L49.6899 47.8967M44.9584 17.127V22.5874M44.9584 17.127L64.5296 28.4183L59.7981 31.1449M44.9584 22.5874L40.2269 25.3214M44.9584 22.5874L49.6899 25.3214M44.9584 22.5874L44.9584 39.7023M59.7981 31.1449L49.6899 25.3214M59.7981 31.1449L49.6899 36.9758M49.6899 25.3214L49.6899 36.9758M49.6899 36.9758L44.9584 39.7023M64.5297 39.3393L54.4289 45.1628M54.4289 45.1628L49.6899 47.8967M49.6899 47.8967L44.9584 50.6233V50.6307M49.6899 47.8967L44.9584 50.6307" stroke="#D4D4D6" stroke-width="3" />
</svg>
