<svg width="2552" height="1939" viewBox="0 0 2552 1939" fill="none" xmlns="http://www.w3.org/2000/svg">
	<path opacity="0.0144928" d="M1888.74 1634.88L2115.76 1400.09C2119.97 1395.73 2122.29 1389.89 2122.22 1383.83L2116.59 916.419C2116.53 911.652 2114.99 907.021 2112.19 903.166L1871.34 572.093C1866.25 565.103 1857.68 561.554 1849.14 562.906L1567.83 607.462C1559.29 608.814 1552.23 614.839 1549.56 623.058L1422.8 1012.35C1421.33 1016.89 1421.29 1021.77 1422.71 1026.32L1561.79 1472.59C1563.6 1478.38 1567.61 1483.22 1572.96 1486.06L1861.42 1639.21C1870.48 1644.01 1881.62 1642.25 1888.74 1634.88Z" stroke="url(#paint0_linear_1_25)" stroke-opacity="0.3" stroke-width="4" />
	<path opacity="0.0289855" d="M1837.58 1634.83L2075.21 1414.22C2079.66 1410.09 2082.29 1404.37 2082.54 1398.3L2101.42 935.539C2101.62 930.762 2100.32 926.042 2097.71 922.037L1875.98 582.066C1871.26 574.836 1862.89 570.854 1854.31 571.757L1572.73 601.351C1564.15 602.254 1556.79 607.888 1553.68 615.941L1407.48 994.582C1405.76 999.043 1405.47 1003.93 1406.65 1008.56L1521.34 1457.29C1522.84 1463.17 1526.61 1468.22 1531.82 1471.33L1810.12 1637.71C1818.9 1642.96 1830.08 1641.78 1837.58 1634.83Z" stroke="url(#paint1_linear_1_25)" stroke-opacity="0.3" stroke-width="4" />
	<path opacity="0.0434783" d="M1786.73 1633.23L2034.12 1427.26C2038.79 1423.37 2041.73 1417.78 2042.3 1411.73L2085.2 954.888C2085.65 950.113 2084.59 945.317 2082.18 941.172L1879.84 593.388C1875.5 585.937 1867.36 581.535 1858.75 581.986L1577.71 596.715C1569.1 597.167 1561.46 602.395 1557.93 610.259L1393.05 977.288C1391.09 981.663 1390.54 986.543 1391.48 991.245L1481.9 1441.1C1483.1 1447.06 1486.61 1452.3 1491.66 1455.68L1759.22 1634.67C1767.7 1640.34 1778.89 1639.75 1786.73 1633.23Z" stroke="url(#paint2_linear_1_25)" stroke-opacity="0.3" stroke-width="4" />
	<path opacity="0.057971" d="M1736.28 1630.1L1992.55 1439.18C1997.44 1435.55 2000.68 1430.12 2001.57 1424.1L2067.91 974.408C2068.62 969.649 2067.81 964.789 2065.6 960.513L1882.86 606.005C1878.91 598.352 1871.02 593.544 1862.41 593.544L1582.67 593.544C1574.06 593.544 1566.17 598.352 1562.23 606.005L1379.48 960.513C1377.28 964.789 1376.47 969.649 1377.17 974.408L1443.52 1424.1C1444.41 1430.12 1447.65 1435.55 1452.53 1439.18L1708.8 1630.1C1716.95 1636.18 1728.13 1636.18 1736.28 1630.1Z" stroke="url(#paint3_linear_1_25)" stroke-opacity="0.3" stroke-width="4" />
	<path opacity="0.0724638" d="M1686.32 1625.5L1950.58 1449.99C1955.66 1446.61 1959.19 1441.36 1960.4 1435.38L2049.56 994.039C2050.52 989.309 2049.96 984.397 2047.97 980.001L1884.96 619.856C1881.42 612.023 1873.8 606.822 1865.21 606.372L1587.55 591.82C1578.96 591.37 1570.84 595.747 1566.5 603.166L1366.73 944.298C1364.3 948.463 1363.23 953.289 1363.69 958.094L1406.23 1406.34C1406.8 1412.41 1409.77 1418 1414.47 1421.89L1658.94 1624.06C1666.75 1630.52 1677.87 1631.1 1686.32 1625.5Z" stroke="url(#paint4_linear_1_25)" stroke-opacity="0.3" stroke-width="4" />
	<path opacity="0.0869565" d="M1636.91 1619.45L1908.25 1459.65C1913.52 1456.55 1917.33 1451.49 1918.85 1445.57L2030.15 1013.72C2031.35 1009.03 2031.05 1004.08 2029.28 999.578L1886.1 634.882C1882.96 626.89 1875.64 621.311 1867.1 620.413L1592.25 591.526C1583.72 590.629 1575.39 594.562 1570.66 601.727L1354.78 928.684C1352.11 932.725 1350.79 937.504 1350.99 942.341L1370.07 1387.9C1370.33 1394 1373.01 1399.74 1377.51 1403.87L1609.7 1616.59C1617.16 1623.42 1628.2 1624.58 1636.91 1619.45Z" stroke="url(#paint5_linear_1_25)" stroke-opacity="0.3" stroke-width="4" />
	<path opacity="0.101449" d="M1588.13 1612L1865.64 1468.18C1871.07 1465.36 1875.16 1460.5 1877 1454.67L2009.67 1033.4C2011.13 1028.77 2011.08 1023.79 2009.54 1019.19L1886.21 651.017C1883.49 642.887 1876.47 636.947 1868 635.606L1596.72 592.639C1588.25 591.297 1579.74 594.778 1574.64 601.668L1343.58 913.707C1340.69 917.611 1339.11 922.329 1339.06 927.186L1335.06 1368.83C1335.01 1374.95 1337.39 1380.84 1341.69 1385.19L1561.17 1607.73C1568.25 1614.9 1579.18 1616.64 1588.13 1612Z" stroke="url(#paint6_linear_1_25)" stroke-opacity="0.3" stroke-width="4" />
	<path opacity="0.115942" d="M1540.05 1603.2L1822.81 1475.56C1828.39 1473.04 1832.74 1468.39 1834.89 1462.65L1988.14 1053.01C1989.85 1048.45 1990.06 1043.46 1988.75 1038.77L1885.25 668.196C1882.95 659.95 1876.25 653.665 1867.88 651.885L1600.87 595.13C1592.49 593.35 1583.82 596.369 1578.36 602.965L1333.09 899.403C1329.98 903.157 1328.15 907.801 1327.85 912.666L1301.24 1349.22C1300.86 1355.34 1302.95 1361.35 1307.02 1365.92L1513.42 1597.54C1520.1 1605.04 1530.89 1607.33 1540.05 1603.2Z" stroke="url(#paint7_linear_1_25)" stroke-opacity="0.3" stroke-width="4" />
	<path opacity="0.130435" d="M1492.74 1593.1L1779.81 1481.79C1785.54 1479.57 1790.13 1475.15 1792.58 1469.53L1965.56 1072.51C1967.52 1068.02 1967.99 1063.04 1966.92 1058.27L1883.16 686.347C1881.28 678.007 1874.93 671.397 1866.67 669.184L1604.63 598.97C1596.37 596.757 1587.57 599.307 1581.77 605.591L1323.27 885.802C1319.95 889.396 1317.87 893.952 1317.32 898.811L1268.62 1329.13C1267.93 1335.23 1269.7 1341.35 1273.55 1346.13L1466.5 1586.07C1472.78 1593.88 1483.4 1596.73 1492.74 1593.1Z" stroke="url(#paint8_linear_1_25)" stroke-opacity="0.3" stroke-width="4" />
	<path opacity="0.144928" d="M1446.26 1581.76L1736.72 1486.87C1742.57 1484.96 1747.4 1480.79 1750.15 1475.29L1941.96 1091.82C1944.16 1087.44 1944.89 1082.46 1944.06 1077.63L1879.89 705.401C1878.44 696.988 1872.45 690.071 1864.34 687.433L1607.93 604.122C1599.81 601.484 1590.9 603.56 1584.78 609.513L1314.08 872.936C1310.57 876.357 1308.24 880.813 1307.43 885.652L1237.21 1308.63C1236.21 1314.7 1237.67 1320.91 1241.27 1325.89L1420.49 1573.39C1426.35 1581.48 1436.76 1584.87 1446.26 1581.76Z" stroke="url(#paint9_linear_1_25)" stroke-opacity="0.3" stroke-width="4" />
	<path opacity="0.15942" d="M1400.67 1569.24L1693.6 1490.81C1699.54 1489.22 1704.6 1485.31 1707.64 1479.96L1917.35 1110.91C1919.78 1106.63 1920.78 1101.68 1920.19 1096.79L1875.42 725.282C1874.4 716.82 1868.79 709.616 1860.83 706.561L1610.71 610.549C1602.75 607.495 1593.76 609.091 1587.34 614.698L1305.48 860.831C1301.77 864.069 1299.2 868.411 1298.15 873.219L1207.05 1287.8C1205.72 1293.81 1206.87 1300.1 1210.22 1305.26L1375.43 1559.55C1380.86 1567.9 1391.05 1571.81 1400.67 1569.24Z" stroke="url(#paint10_linear_1_25)" stroke-opacity="0.3" stroke-width="4" />
	<path opacity="0.173913" d="M1356.02 1555.59L1650.49 1493.63C1656.53 1492.36 1661.8 1488.72 1665.12 1483.52L1891.74 1129.71C1894.41 1125.55 1895.66 1120.64 1895.32 1115.71L1869.7 745.917C1869.12 737.427 1863.89 729.956 1856.11 726.495L1612.9 618.21C1605.13 614.749 1596.08 615.863 1589.38 621.107L1297.42 849.513C1293.53 852.556 1290.73 856.772 1289.42 861.535L1178.12 1266.69C1176.48 1272.64 1177.31 1278.99 1180.4 1284.33L1331.39 1544.62C1336.37 1553.21 1346.31 1557.63 1356.02 1555.59Z" stroke="url(#paint11_linear_1_25)" stroke-opacity="0.3" stroke-width="4" />
	<path opacity="0.188406" d="M1312.38 1540.88L1607.47 1495.32C1613.58 1494.38 1619.05 1491.02 1622.65 1486L1865.17 1148.17C1868.06 1144.14 1869.57 1139.29 1869.48 1134.33L1862.71 767.229C1862.55 758.734 1857.73 751.017 1850.16 747.16L1614.45 627.059C1606.88 623.202 1597.8 623.832 1590.83 628.699L1289.86 839.004C1285.8 841.843 1282.76 845.919 1281.2 850.625L1150.44 1245.4C1148.49 1251.26 1148.99 1257.66 1151.82 1263.15L1288.42 1528.67C1292.94 1537.47 1302.59 1542.39 1312.38 1540.88Z" stroke="url(#paint12_linear_1_25)" stroke-opacity="0.3" stroke-width="4" />
	<path opacity="0.202899" d="M1269.78 1525.17L1564.6 1495.91C1570.76 1495.3 1576.41 1492.24 1580.28 1487.41L1837.64 1166.24C1840.75 1162.36 1842.52 1157.57 1842.68 1152.6L1854.42 789.14C1854.69 780.661 1850.28 772.721 1842.93 768.479L1615.29 637.049C1607.94 632.808 1598.86 632.955 1591.65 637.431L1282.75 829.324C1278.52 831.949 1275.26 835.873 1273.46 840.509L1124 1223.98C1121.75 1229.74 1121.93 1236.17 1124.47 1241.81L1246.55 1511.76C1250.61 1520.75 1259.96 1526.15 1269.78 1525.17Z" stroke="url(#paint13_linear_1_25)" stroke-opacity="0.3" stroke-width="4" />
	<path opacity="0.217391" d="M1228.27 1508.54L1521.92 1495.42C1528.12 1495.15 1533.93 1492.38 1538.06 1487.76L1809.2 1183.88C1812.53 1180.15 1814.55 1175.45 1814.96 1170.47L1844.8 811.572C1845.5 803.132 1841.51 794.99 1834.41 790.377L1615.36 648.13C1608.26 643.518 1599.2 643.182 1591.77 647.256L1276.04 820.49C1271.66 822.891 1268.18 826.652 1266.13 831.205L1098.81 1202.51C1096.26 1208.16 1096.11 1214.6 1098.37 1220.36L1205.83 1493.97C1209.43 1503.12 1218.44 1508.98 1228.27 1508.54Z" stroke="url(#paint14_linear_1_25)" stroke-opacity="0.3" stroke-width="4" />
	<path opacity="0.231884" d="M1187.89 1491.05L1479.5 1493.87C1485.71 1493.93 1491.68 1491.48 1496.05 1487.07L1779.88 1201.03C1783.41 1197.47 1785.68 1192.86 1786.35 1187.89L1833.84 834.446C1834.97 826.067 1831.41 817.745 1824.57 812.776L1614.63 660.249C1607.79 655.279 1598.78 654.463 1591.16 658.123L1269.68 812.516C1265.17 814.686 1261.48 818.271 1259.19 822.728L1074.86 1181.05C1072.02 1186.57 1071.53 1193.01 1073.51 1198.89L1166.3 1475.37C1169.42 1484.66 1178.09 1490.95 1187.89 1491.05Z" stroke="url(#paint15_linear_1_25)" stroke-opacity="0.3" stroke-width="4" />
	<path opacity="0.246377" d="M1148.67 1472.77L1437.39 1491.28C1443.6 1491.67 1449.7 1489.54 1454.31 1485.37L1749.7 1217.65C1753.43 1214.28 1755.94 1209.77 1756.87 1204.82L1821.54 857.683C1823.08 849.386 1819.96 840.908 1813.4 835.597L1613.04 673.349C1606.48 668.037 1597.54 666.745 1589.75 669.982L1263.64 805.415C1258.99 807.344 1255.11 810.743 1252.58 815.091L1052.13 1159.69C1049 1165.06 1048.19 1171.47 1049.86 1177.46L1128 1456.03C1130.63 1465.43 1138.92 1472.14 1148.67 1472.77Z" stroke="url(#paint16_linear_1_25)" stroke-opacity="0.3" stroke-width="4" />
	<path opacity="0.26087" d="M1110.65 1453.78L1395.64 1487.67C1401.83 1488.41 1408.05 1486.61 1412.88 1482.67L1718.7 1233.7C1722.62 1230.52 1725.37 1226.13 1726.55 1221.22L1807.87 881.204C1809.83 873.009 1807.15 864.399 1800.89 858.761L1610.55 687.375C1604.28 681.737 1595.44 679.974 1587.5 682.779L1257.85 799.195C1253.09 800.877 1249.01 804.078 1246.25 808.306L1030.61 1138.47C1027.2 1143.69 1026.06 1150.07 1027.44 1156.14L1090.94 1436.03C1093.09 1445.52 1100.99 1452.63 1110.65 1453.78Z" stroke="url(#paint17_linear_1_25)" stroke-opacity="0.3" stroke-width="4" />
	<path opacity="0.275362" d="M1073.86 1434.15L1354.3 1483.09C1360.45 1484.16 1366.77 1482.69 1371.81 1479.01L1686.92 1249.14C1691.02 1246.15 1694.01 1241.9 1695.44 1237.03L1792.84 904.929C1795.21 896.858 1792.98 888.139 1787.03 882.192L1607.11 702.265C1601.16 696.318 1592.44 694.091 1584.37 696.458L1252.27 793.864C1247.4 795.29 1243.15 798.284 1240.16 802.379L1010.29 1117.48C1006.61 1122.53 1005.14 1128.85 1006.21 1134.99L1055.15 1415.44C1056.82 1425 1064.3 1432.48 1073.86 1434.15Z" stroke="url(#paint18_linear_1_25)" stroke-opacity="0.3" stroke-width="4" />
	<path opacity="0.289855" d="M1038.31 1413.95L1313.42 1477.56C1319.52 1478.96 1325.92 1477.83 1331.16 1474.42L1654.4 1263.92C1658.66 1261.15 1661.88 1257.03 1663.56 1252.23L1776.45 928.78C1779.22 920.853 1777.45 912.049 1771.83 905.811L1602.69 717.96C1597.07 711.721 1588.5 709.039 1580.33 710.962L1246.85 789.424C1241.9 790.59 1237.47 793.365 1234.26 797.316L991.129 1096.78C987.188 1101.64 985.393 1107.88 986.157 1114.09L1020.66 1394.35C1021.84 1403.94 1028.89 1411.77 1038.31 1413.95Z" stroke="url(#paint19_linear_1_25)" stroke-opacity="0.3" stroke-width="4" />
	<path opacity="0.304348" d="M1004.02 1393.26L1273.05 1471.11C1279.07 1472.85 1285.53 1472.06 1290.95 1468.93L1621.17 1278.02C1625.59 1275.46 1629.04 1271.5 1630.97 1266.77L1758.71 952.679C1761.86 944.917 1760.55 936.052 1755.28 929.54L1597.25 734.398C1591.98 727.886 1583.58 724.757 1575.33 726.231L1241.55 785.878C1236.52 786.777 1231.93 789.325 1228.51 793.12L973.117 1076.43C968.923 1081.08 966.808 1087.24 967.26 1093.49L987.473 1372.83C988.168 1382.43 994.771 1390.58 1004.02 1393.26Z" stroke="url(#paint20_linear_1_25)" stroke-opacity="0.3" stroke-width="4" />
	<path opacity="0.318841" d="M971.01 1372.15L1233.22 1463.78C1239.15 1465.85 1245.66 1465.41 1251.25 1462.56L1587.29 1291.39C1591.86 1289.06 1595.52 1285.28 1597.69 1280.63L1739.62 976.55C1743.16 968.971 1742.3 960.069 1737.39 953.303L1590.78 751.513C1585.86 744.747 1577.66 741.182 1569.36 742.205L1236.31 783.224C1231.21 783.851 1226.48 786.162 1222.85 789.79L956.218 1056.49C951.782 1060.93 949.351 1066.98 949.489 1073.26L955.603 1350.95C955.814 1360.54 961.955 1368.99 971.01 1372.15Z" stroke="url(#paint21_linear_1_25)" stroke-opacity="0.3" stroke-width="4" />
	<path opacity="0.333333" d="M939.286 1350.71L1193.98 1455.61C1199.8 1458.01 1206.34 1457.92 1212.08 1455.36L1552.79 1304.01C1557.5 1301.92 1561.37 1298.31 1563.78 1293.76L1719.2 1000.32C1723.11 992.939 1722.71 984.025 1718.17 977.024L1583.23 769.242C1578.69 762.241 1570.7 758.253 1562.38 758.822L1231.08 781.457C1225.94 781.809 1221.07 783.875 1217.25 787.325L940.402 1037.02C935.734 1041.23 932.993 1047.17 932.816 1053.45L925.054 1328.79C924.785 1338.35 930.45 1347.07 939.286 1350.71Z" stroke="url(#paint22_linear_1_25)" stroke-opacity="0.3" stroke-width="4" />
	<path opacity="0.347826" d="M908.852 1329L1155.37 1446.64C1161.06 1449.36 1167.6 1449.62 1173.49 1447.37L1517.72 1315.85C1522.55 1314.01 1526.62 1310.59 1529.27 1306.14L1697.48 1023.9C1701.74 1016.75 1701.8 1007.84 1697.64 1000.63L1574.6 787.519C1570.43 780.304 1562.69 775.906 1554.36 776.022L1225.83 780.573C1220.66 780.644 1215.66 782.457 1211.65 785.719L925.632 1018.08C920.744 1022.05 917.698 1027.85 917.206 1034.13L895.829 1306.44C895.084 1315.93 900.262 1324.9 908.852 1329Z" stroke="url(#paint23_linear_1_25)" stroke-opacity="0.3" stroke-width="4" />
	<path opacity="0.362319" d="M879.71 1307.1L1117.42 1436.92C1122.96 1439.94 1129.5 1440.56 1135.5 1438.62L1482.13 1326.89C1487.08 1325.29 1491.34 1322.07 1494.22 1317.75L1674.46 1047.24C1679.07 1040.32 1679.59 1031.45 1675.81 1024.05L1564.86 806.278C1561.08 798.87 1553.6 794.076 1545.3 793.739L1220.5 780.561C1215.31 780.35 1210.21 781.903 1206.01 784.966L911.87 999.717C906.774 1003.44 903.43 1009.09 902.622 1015.35L867.924 1283.97C866.709 1293.37 871.389 1302.55 879.71 1307.1Z" stroke="url(#paint24_linear_1_25)" stroke-opacity="0.3" stroke-width="4" />
	<path opacity="0.376812" d="M851.855 1285.08L1080.17 1426.48C1085.55 1429.81 1092.05 1430.78 1098.16 1429.16L1446.07 1337.09C1451.11 1335.75 1455.55 1332.74 1458.66 1328.55L1650.19 1070.26C1655.13 1063.59 1656.1 1054.78 1652.72 1047.2L1553.99 825.453C1550.62 817.873 1543.42 812.699 1535.16 811.912L1215.06 781.41C1209.86 780.915 1204.65 782.2 1200.29 785.055L899.074 981.992C893.783 985.452 890.149 990.937 889.026 997.158L841.33 1261.44C839.653 1270.74 843.826 1280.11 851.855 1285.08Z" stroke="url(#paint25_linear_1_25)" stroke-opacity="0.3" stroke-width="4" />
	<path opacity="0.391304" d="M825.279 1263.02L1043.65 1415.37C1048.84 1418.99 1055.3 1420.31 1061.5 1419.02L1409.58 1346.44C1414.71 1345.37 1419.32 1342.58 1422.65 1338.54L1624.68 1092.89C1629.94 1086.49 1631.36 1077.76 1628.39 1070.03L1542 844.978C1539.03 837.248 1532.14 831.71 1523.95 830.477L1209.44 783.107C1204.26 782.327 1198.97 783.339 1194.44 785.977L887.2 964.953C881.727 968.141 877.811 973.445 876.375 979.614L816.037 1238.95C813.906 1248.11 817.566 1257.64 825.279 1263.02Z" stroke="url(#paint26_linear_1_25)" stroke-opacity="0.3" stroke-width="4" />
	<path opacity="0.405797" d="M799.971 1240.99L1007.87 1403.63C1012.87 1407.54 1019.26 1409.22 1025.54 1408.25L1372.72 1354.93C1377.92 1354.13 1382.69 1351.57 1386.24 1347.68L1597.98 1115.06C1603.54 1108.95 1605.4 1100.32 1602.85 1092.47L1528.87 864.785C1526.31 856.928 1519.74 851.043 1511.65 849.369L1203.62 785.636C1198.46 784.57 1193.1 785.304 1188.42 787.715L876.201 948.643C870.56 951.551 866.371 956.66 864.626 962.762L792.029 1216.55C789.454 1225.55 792.595 1235.22 799.971 1240.99Z" stroke="url(#paint27_linear_1_25)" stroke-opacity="0.3" stroke-width="4" />
	<path opacity="0.42029" d="M775.913 1219.05L972.881 1391.32C977.668 1395.51 983.974 1397.53 990.301 1396.9L1335.53 1362.53C1340.8 1362.01 1345.72 1359.69 1349.47 1355.96L1570.12 1136.71C1575.97 1130.9 1578.26 1122.4 1576.13 1114.44L1514.6 884.809C1512.46 876.847 1506.23 870.635 1498.26 868.527L1197.55 788.979C1192.43 787.627 1187.01 788.078 1182.19 790.255L866.029 933.108C860.234 935.726 855.782 940.627 853.73 946.646L769.286 1194.32C766.276 1203.15 768.894 1212.92 775.913 1219.05Z" stroke="url(#paint28_linear_1_25)" stroke-opacity="0.3" stroke-width="4" />
	<path opacity="0.434783" d="M753.088 1197.29L938.69 1378.49C943.249 1382.94 949.45 1385.3 955.815 1385L1298.08 1369.24C1303.38 1369 1308.44 1366.92 1312.39 1363.37L1541.15 1157.78C1547.27 1152.29 1549.98 1143.94 1548.27 1135.9L1499.19 904.985C1497.48 896.94 1491.6 890.421 1483.78 887.887L1191.18 793.116C1186.13 791.479 1180.66 791.642 1175.71 793.577L856.633 918.388C850.699 920.709 845.994 925.387 843.639 931.308L747.783 1172.33C744.352 1180.96 746.444 1190.8 753.088 1197.29Z" stroke="url(#paint29_linear_1_25)" stroke-opacity="0.3" stroke-width="4" />
	<path opacity="0.449275" d="M731.47 1175.76L905.318 1365.17C909.635 1369.87 915.713 1372.57 922.097 1372.62L1260.4 1375.05C1265.73 1375.09 1270.92 1373.27 1275.06 1369.9L1511.1 1178.22C1517.47 1173.05 1520.6 1164.87 1519.32 1156.77L1482.65 925.249C1481.37 917.144 1475.86 910.337 1468.21 907.386L1184.48 798.024C1179.5 796.105 1174.01 795.977 1168.95 797.663L847.958 904.518C841.901 906.535 836.954 910.979 834.302 916.786L727.493 1150.65C723.653 1159.06 725.22 1168.95 731.47 1175.76Z" stroke="url(#paint30_linear_1_25)" stroke-opacity="0.3" stroke-width="4" />
	<path opacity="0.463768" d="M711.033 1154.52L872.783 1351.42C876.844 1356.36 882.781 1359.39 889.166 1359.78L1222.55 1379.95C1227.9 1380.28 1233.2 1378.72 1237.52 1375.55L1480.03 1197.97C1486.64 1193.13 1490.17 1185.15 1489.32 1177L1464.99 945.536C1464.13 937.394 1459.01 930.321 1451.55 926.964L1177.42 803.68C1172.53 801.48 1167.02 801.059 1161.85 802.489L839.952 891.535C833.786 893.24 828.609 897.437 825.665 903.116L708.386 1129.34C704.151 1137.51 705.192 1147.41 711.033 1154.52Z" stroke="url(#paint31_linear_1_25)" stroke-opacity="0.3" stroke-width="4" />
	<path opacity="0.478261" d="M691.745 1133.66L841.098 1337.29C844.889 1342.46 850.666 1345.81 857.035 1346.54L1184.58 1383.94C1189.93 1384.55 1195.33 1383.27 1199.83 1380.3L1447.99 1216.97C1454.81 1212.48 1458.74 1204.71 1458.31 1196.55L1446.22 965.784C1445.79 957.629 1441.07 950.312 1433.81 946.559L1169.95 810.056C1165.16 807.58 1159.66 806.864 1154.39 808.031L832.557 879.467C826.299 880.856 820.904 884.794 817.674 890.331L690.425 1108.46C685.81 1116.37 686.329 1126.27 691.745 1133.66Z" stroke="url(#paint32_linear_1_25)" stroke-opacity="0.3" stroke-width="4" />
	<path opacity="0.492754" d="M673.574 1113.21L810.273 1322.83C813.782 1328.21 819.381 1331.88 825.716 1332.95L1146.54 1387.03C1151.88 1387.93 1157.37 1386.91 1162.03 1384.16L1415.02 1235.18C1422.04 1231.04 1426.35 1223.5 1426.35 1215.36L1426.35 985.932C1426.35 977.786 1422.04 970.248 1415.02 966.114L1162.03 817.127C1157.37 814.378 1151.88 813.365 1146.54 814.265L825.716 868.341C819.381 869.409 813.782 873.077 810.273 878.458L673.574 1088.08C668.595 1095.72 668.595 1105.57 673.574 1113.21Z" stroke="url(#paint33_linear_1_25)" stroke-opacity="0.3" stroke-width="4" />
	<path opacity="0.507246" d="M656.481 1093.24L780.315 1308.09C783.53 1313.67 788.935 1317.64 795.217 1319.05L1108.49 1389.2C1113.8 1390.39 1119.36 1389.66 1124.18 1387.13L1381.19 1252.55C1388.38 1248.78 1393.06 1241.49 1393.48 1233.38L1405.4 1005.92C1405.83 997.807 1401.94 990.071 1395.18 985.569L1153.65 824.861C1149.12 821.846 1143.66 820.535 1138.26 821.163L819.37 858.182C812.975 858.924 807.185 862.313 803.405 867.523L657.791 1068.25C652.464 1075.59 651.951 1085.38 656.481 1093.24Z" stroke="url(#paint34_linear_1_25)" stroke-opacity="0.3" stroke-width="4" />
	<path opacity="0.521739" d="M640.428 1073.81L751.231 1293.12C754.14 1298.88 759.333 1303.15 765.544 1304.89L1070.47 1390.47C1075.74 1391.95 1081.36 1391.5 1086.33 1389.21L1346.54 1269.05C1353.9 1265.65 1358.93 1258.63 1359.77 1250.57L1383.41 1025.69C1384.26 1017.63 1380.8 1009.72 1374.31 1004.87L1144.76 833.229C1140.38 829.952 1134.97 828.345 1129.51 828.696L813.46 849.009C807.022 849.423 801.054 852.521 797.011 857.548L643.033 1049.03C637.376 1056.06 636.357 1065.76 640.428 1073.81Z" stroke="url(#paint35_linear_1_25)" stroke-opacity="0.3" stroke-width="4" />
	<path opacity="0.536232" d="M625.37 1054.97L723.02 1277.97C725.613 1283.89 730.579 1288.45 736.702 1290.52L1032.53 1390.86C1037.74 1392.62 1043.41 1392.46 1048.51 1390.41L1311.15 1284.63C1318.64 1281.61 1324.01 1274.87 1325.27 1266.89L1360.38 1045.19C1361.65 1037.21 1358.63 1029.15 1352.43 1023.96L1135.34 842.198C1131.12 838.667 1125.78 836.764 1120.28 836.834L807.925 840.839C801.46 840.921 795.329 843.721 791.033 848.552L629.252 1030.46C623.284 1037.17 621.768 1046.74 625.37 1054.97Z" stroke="url(#paint36_linear_1_25)" stroke-opacity="0.3" stroke-width="4" />
	<path opacity="0.550725" d="M611.263 1036.77L695.683 1262.68C697.951 1268.75 702.674 1273.58 708.69 1275.99L994.731 1390.36C999.865 1392.41 1005.57 1392.54 1010.79 1390.73L1275.06 1299.26C1282.68 1296.62 1288.36 1290.19 1290.04 1282.31L1336.36 1064.37C1338.04 1056.48 1335.46 1048.3 1329.58 1042.79L1125.36 851.734C1121.32 847.956 1116.06 845.759 1110.53 845.546L802.704 833.683C796.23 833.433 789.951 835.926 785.411 840.548L616.401 1012.6C610.139 1018.97 608.136 1028.4 611.263 1036.77Z" stroke="url(#paint37_linear_1_25)" stroke-opacity="0.3" stroke-width="4" />
	<path opacity="0.565217" d="M598.059 1019.24L669.217 1247.31C671.151 1253.51 675.614 1258.6 681.506 1261.33L957.108 1388.99C962.153 1391.33 967.874 1391.76 973.211 1390.2L1238.35 1312.91C1246.07 1310.66 1252.05 1304.55 1254.13 1296.79L1311.37 1083.16C1313.45 1075.4 1311.33 1067.11 1305.77 1061.3L1114.79 861.803C1110.95 857.786 1105.78 855.299 1100.24 854.8L797.737 827.552C791.27 826.969 784.859 829.147 780.085 833.549L604.426 995.483C597.891 1001.51 595.412 1010.76 598.059 1019.24Z" stroke="url(#paint38_linear_1_25)" stroke-opacity="0.3" stroke-width="4" />
	<path opacity="0.57971" d="M585.708 1002.45L643.614 1231.91C645.206 1238.22 649.397 1243.56 655.147 1246.6L919.713 1386.77C924.654 1389.39 930.378 1390.12 935.816 1388.82L1201.07 1325.56C1208.87 1323.7 1215.13 1317.92 1217.61 1310.3L1285.44 1101.53C1287.92 1093.91 1286.25 1085.54 1281.04 1079.46L1103.62 872.368C1099.98 868.123 1094.92 865.347 1089.39 864.561L792.963 822.45C786.52 821.535 779.991 823.392 774.994 827.561L593.275 979.16C586.487 984.824 583.545 993.877 585.708 1002.45Z" stroke="url(#paint39_linear_1_25)" stroke-opacity="0.3" stroke-width="4" />
	<path opacity="0.594203" d="M574.158 986.42L618.866 1216.51C620.11 1222.91 624.014 1228.49 629.606 1231.84L882.592 1383.72C887.412 1386.62 893.126 1387.64 898.652 1386.61L1163.29 1337.19C1171.15 1335.72 1177.68 1330.28 1180.54 1322.82L1258.62 1119.42C1261.48 1111.96 1260.27 1103.55 1255.41 1097.2L1091.82 883.394C1088.4 878.929 1083.47 875.87 1077.95 874.795L788.319 818.381C781.917 817.134 775.287 818.664 770.079 822.589L582.893 963.665C575.871 968.957 572.481 977.789 574.158 986.42Z" stroke="url(#paint40_linear_1_25)" stroke-opacity="0.3" stroke-width="4" />
	<path opacity="0.608696" d="M563.355 971.192L594.962 1201.17C595.852 1207.65 599.456 1213.44 604.872 1217.1L845.787 1379.86C850.473 1383.03 856.161 1384.36 861.764 1383.59L1125.08 1347.76C1132.97 1346.69 1139.75 1341.61 1142.99 1334.33L1230.94 1136.8C1234.18 1129.52 1233.42 1121.08 1228.94 1114.5L1079.37 894.843C1076.19 890.169 1071.39 886.831 1065.91 885.467L783.746 815.342C777.402 813.765 770.687 814.962 765.279 818.634L573.222 949.032C565.988 953.943 562.165 962.531 563.355 971.192Z" stroke="url(#paint41_linear_1_25)" stroke-opacity="0.3" stroke-width="4" />
	<path opacity="0.623188" d="M553.244 956.8L571.889 1185.93C572.42 1192.46 575.711 1198.46 580.936 1202.41L809.343 1375.22C813.879 1378.65 819.526 1380.28 825.193 1379.79L1086.49 1357.28C1094.41 1356.6 1101.41 1351.89 1105.01 1344.81L1202.43 1153.62C1206.04 1146.54 1205.74 1138.1 1201.64 1131.3L1066.26 906.676C1063.32 901.804 1058.68 898.193 1053.24 896.541L779.184 813.328C772.915 811.424 766.131 812.285 760.536 815.693L564.203 935.292C556.779 939.814 552.539 948.135 553.244 956.8Z" stroke="url(#paint42_linear_1_25)" stroke-opacity="0.3" stroke-width="4" />
	<path opacity="0.637681" d="M543.769 943.27L549.629 1170.84C549.798 1177.41 552.765 1183.58 557.782 1187.82L773.3 1369.81C777.672 1373.5 783.263 1375.43 788.982 1375.22L1047.61 1365.74C1055.52 1365.45 1062.72 1361.11 1066.68 1354.25L1173.15 1169.84C1177.11 1162.98 1177.27 1154.57 1173.56 1147.57L1052.47 918.855C1049.79 913.798 1045.32 909.92 1039.94 907.98L774.572 812.33C768.395 810.104 761.56 810.624 755.79 813.76L555.778 922.47C548.185 926.597 543.547 934.631 543.769 943.27Z" stroke="url(#paint43_linear_1_25)" stroke-opacity="0.3" stroke-width="4" />
	<path opacity="0.652174" d="M534.872 930.63L528.165 1155.93C527.969 1162.51 530.602 1168.86 535.396 1173.37L737.697 1363.67C741.891 1367.62 747.412 1369.84 753.169 1369.92L1008.48 1373.11C1016.37 1373.21 1023.76 1369.26 1028.06 1362.64L1143.14 1185.42C1147.44 1178.8 1148.04 1170.45 1144.75 1163.28L1037.98 931.34C1035.58 926.11 1031.3 921.973 1025.99 919.747L769.853 812.338C763.783 809.792 756.914 809.969 750.983 812.824L547.886 910.59C540.146 914.316 535.127 922.044 534.872 930.63Z" stroke="url(#paint44_linear_1_25)" stroke-opacity="0.3" stroke-width="4" />
	<path opacity="0.666667" d="M526.494 918.9L507.477 1141.25C506.914 1147.83 509.202 1154.32 513.759 1159.1L702.573 1356.83C706.574 1361.02 712.009 1363.55 717.792 1363.9L969.177 1379.41C977.026 1379.89 984.579 1376.33 989.201 1369.97L1112.44 1200.34C1117.07 1193.98 1118.12 1185.7 1115.23 1178.38L1022.8 944.092C1020.68 938.703 1016.59 934.315 1011.37 931.804L764.97 813.334C759.024 810.475 752.136 810.308 746.058 812.874L540.465 899.671C532.6 902.991 527.221 910.394 526.494 918.9Z" stroke="url(#paint45_linear_1_25)" stroke-opacity="0.3" stroke-width="4" />
	<path opacity="0.681159" d="M518.576 908.099L487.541 1126.84C486.612 1133.39 488.547 1140.02 492.851 1145.04L667.963 1349.32C671.758 1353.75 677.092 1356.57 682.887 1357.21L929.768 1384.63C937.557 1385.5 945.25 1382.34 950.182 1376.25L1081.11 1214.57C1086.04 1208.48 1087.53 1200.3 1085.06 1192.86L1006.91 957.072C1005.08 951.537 1001.21 946.906 996.093 944.115L759.865 815.302C754.059 812.136 747.171 811.623 740.959 813.893L533.453 889.727C525.485 892.639 519.767 899.7 518.576 908.099Z" stroke="url(#paint46_linear_1_25)" stroke-opacity="0.3" stroke-width="4" />
	<path opacity="0.695652" d="M511.058 898.241L468.334 1112.73C467.039 1119.23 468.612 1125.97 472.65 1131.23L633.9 1341.18C637.475 1345.83 642.693 1348.94 648.487 1349.87L890.315 1388.79C898.025 1390.03 905.837 1387.27 911.062 1381.47L1049.18 1228.07C1054.4 1222.27 1056.33 1214.21 1054.29 1206.67L990.312 970.239C988.779 964.574 985.139 959.709 980.137 956.641L754.485 818.219C748.834 814.753 741.963 813.894 735.632 815.861L526.789 880.771C518.74 883.272 512.705 889.976 511.058 898.241Z" stroke="url(#paint47_linear_1_25)" stroke-opacity="0.3" stroke-width="4" />
	<path opacity="0.710145" d="M503.882 889.337L449.83 1098.95C448.17 1105.39 449.375 1112.22 453.134 1117.7L600.417 1332.43C603.758 1337.3 608.846 1340.7 614.626 1341.92L850.883 1391.88C858.494 1393.49 866.403 1391.14 871.904 1385.64L1016.71 1240.83C1022.21 1235.33 1024.56 1227.42 1022.95 1219.81L972.995 983.553C971.773 977.774 968.374 972.686 963.502 969.344L748.777 822.061C743.297 818.303 736.459 817.098 730.025 818.757L520.41 872.809C512.303 874.9 505.972 881.23 503.882 889.337Z" stroke="url(#paint48_linear_1_25)" stroke-opacity="0.3" stroke-width="4" />
	<path opacity="0.724638" d="M496.986 881.395L431.999 1085.55C429.979 1091.9 430.809 1098.81 434.277 1104.5L567.541 1323.12C570.637 1328.2 575.58 1331.88 581.332 1333.39L811.531 1393.92C819.027 1395.89 827.011 1393.96 832.77 1388.77L983.751 1252.83C989.51 1247.64 992.271 1239.9 991.094 1232.24L954.96 996.976C954.057 991.098 950.912 985.797 946.185 982.188L742.69 826.801C737.396 822.758 730.608 821.209 724.084 822.555L514.255 865.846C506.111 867.526 499.508 873.471 496.986 881.395Z" stroke="url(#paint49_linear_1_25)" stroke-opacity="0.3" stroke-width="4" />
	<path opacity="0.73913" d="M490.311 874.417L414.814 1072.55C412.436 1078.79 412.888 1085.76 416.052 1091.64L535.301 1313.29C538.139 1318.56 542.921 1322.52 548.632 1324.32L772.324 1394.93C779.685 1397.26 787.722 1395.73 793.722 1390.87L950.35 1264.04C956.35 1259.18 959.512 1251.64 958.769 1243.95L936.21 1010.47C935.634 1004.51 932.755 999.006 928.187 995.134L736.174 832.407C731.08 828.09 724.36 826.2 717.762 827.228L508.261 859.881C500.102 861.152 493.251 866.7 490.311 874.417Z" stroke="url(#paint50_linear_1_25)" stroke-opacity="0.3" stroke-width="4" />
	<path opacity="0.753623" d="M483.798 868.403L398.243 1059.98C395.513 1066.1 395.582 1073.1 398.432 1079.15L503.721 1302.97C506.288 1308.43 510.897 1312.66 516.553 1314.75L733.319 1394.93C740.53 1397.6 748.597 1396.49 754.817 1391.97L916.561 1274.46C922.781 1269.94 926.332 1262.61 926.023 1254.93L916.747 1023.99C916.504 1017.96 913.905 1012.27 909.508 1008.15L729.184 838.848C724.303 834.266 717.668 832.038 711.011 832.745L502.369 854.911C494.216 855.777 487.141 860.917 483.798 868.403Z" stroke="url(#paint51_linear_1_25)" stroke-opacity="0.3" stroke-width="4" />
	<path opacity="0.768116" d="M477.389 863.35L382.254 1047.88C379.179 1053.84 378.862 1060.85 381.388 1067.07L472.823 1292.2C475.109 1297.83 479.528 1302.33 485.117 1304.71L694.574 1393.95C701.618 1396.95 709.694 1396.25 716.116 1392.08L882.434 1284.07C888.855 1279.9 892.78 1272.8 892.904 1265.15L896.576 1037.51C896.674 1031.43 894.365 1025.56 890.153 1021.19L721.673 846.087C717.02 841.251 710.486 838.689 703.786 839.072L496.518 850.928C488.393 851.392 481.118 856.117 477.389 863.35Z" stroke="url(#paint52_linear_1_25)" stroke-opacity="0.3" stroke-width="4" />
	<path opacity="0.782609" d="M471.025 859.252L366.814 1036.25C363.4 1042.05 362.697 1049.05 364.889 1055.42L442.626 1281.04C444.62 1286.83 448.837 1291.58 454.345 1294.25L656.146 1392C663.007 1395.32 671.07 1395.03 677.672 1391.22L848.02 1292.87C854.623 1289.05 858.907 1282.22 859.459 1274.61L875.705 1050.97C876.149 1044.87 874.141 1038.84 870.127 1034.22L713.601 854.087C709.187 849.008 702.772 846.117 696.044 846.174L490.649 847.922C482.572 847.99 475.123 852.291 471.025 859.252Z" stroke="url(#paint53_linear_1_25)" stroke-opacity="0.3" stroke-width="4" />
	<path opacity="0.797101" d="M464.65 856.096L351.888 1025.14C348.145 1030.75 347.054 1037.72 348.904 1044.21L413.149 1269.51C414.84 1275.44 418.841 1280.45 424.254 1283.4L618.088 1389.12C624.752 1392.75 632.779 1392.86 639.543 1389.42L813.371 1300.85C820.134 1297.4 824.762 1290.84 825.738 1283.31L854.144 1064.36C854.937 1058.24 853.242 1052.07 849.439 1047.21L704.926 862.808C700.766 857.499 694.484 854.284 687.744 854.014L484.705 845.878C476.696 845.557 469.098 849.429 464.65 856.096Z" stroke="url(#paint54_linear_1_25)" stroke-opacity="0.3" stroke-width="4" />
	<path opacity="0.811594" d="M458.209 853.871L337.442 1014.55C333.379 1019.96 331.901 1026.88 333.401 1033.48L384.405 1257.67C385.784 1263.73 389.555 1268.98 394.862 1272.21L580.452 1385.34C586.904 1389.27 594.875 1389.78 601.778 1386.71L778.538 1308.01C785.44 1304.94 790.393 1298.67 791.788 1291.24L831.903 1077.63C833.05 1071.52 831.677 1065.21 828.097 1060.13L695.613 872.208C691.717 866.681 685.585 863.148 678.849 862.551L478.628 844.779C470.708 844.076 462.986 847.514 458.209 853.871Z" stroke="url(#paint55_linear_1_25)" stroke-opacity="0.3" stroke-width="4" />
	<path opacity="0.826087" d="M451.647 852.558L323.439 1004.52C319.067 1009.7 317.204 1016.55 318.348 1023.23L356.408 1245.56C357.465 1251.73 360.994 1257.21 366.179 1260.72L543.287 1380.69C549.513 1384.91 557.408 1385.82 564.428 1383.12L743.57 1314.36C750.591 1311.66 755.851 1305.7 757.656 1298.4L808.996 1090.74C810.5 1084.66 809.458 1078.23 806.113 1072.94L685.627 882.243C682.006 876.511 676.039 872.669 669.323 871.743L472.366 844.605C464.553 843.529 456.733 846.53 451.647 852.558Z" stroke="url(#paint56_linear_1_25)" stroke-opacity="0.3" stroke-width="4" />
	<path opacity="0.84058" d="M444.913 852.139L309.843 995.04C305.173 999.98 302.928 1006.73 303.711 1013.49L329.167 1233.22C329.893 1239.49 333.166 1245.19 338.219 1248.98L506.639 1375.22C512.627 1379.71 520.425 1381.01 527.542 1378.69L708.518 1319.89C715.636 1317.58 721.183 1311.95 723.389 1304.8L785.438 1103.67C787.299 1097.63 786.598 1091.1 783.5 1085.6L674.937 892.867C671.601 886.944 665.815 882.8 659.134 881.548L465.864 845.331C458.178 843.891 450.285 846.455 444.913 852.139Z" stroke="url(#paint57_linear_1_25)" stroke-opacity="0.3" stroke-width="4" />
	<path opacity="0.855072" d="M437.955 852.589L296.617 986.14C291.663 990.821 289.04 997.458 289.456 1004.26L302.688 1220.7C303.076 1227.05 306.081 1232.96 310.988 1237.02L470.553 1368.97C476.291 1373.72 483.971 1375.39 491.163 1373.46L673.43 1324.62C680.622 1322.7 686.437 1317.41 689.033 1310.43L761.245 1116.37C763.465 1110.4 763.113 1103.78 760.272 1098.09L663.514 904.033C660.472 897.933 654.882 893.497 648.252 891.92L459.073 846.931C451.53 845.137 443.591 847.264 437.955 852.589Z" stroke="url(#paint58_linear_1_25)" stroke-opacity="0.3" stroke-width="4" />
	<path opacity="0.869565" d="M430.726 853.884L283.723 977.829C278.498 982.234 275.503 988.734 275.549 995.567L276.977 1208.03C277.02 1214.45 279.745 1220.56 284.492 1224.89L435.069 1361.98C440.547 1366.96 448.09 1369.01 455.335 1367.47L638.354 1328.56C645.599 1327.02 651.659 1322.09 654.635 1315.31L736.435 1128.82C739.014 1122.94 739.018 1116.25 736.446 1110.37L651.332 915.692C648.594 909.431 643.214 904.711 636.65 902.812L451.943 849.374C444.561 847.238 436.601 848.93 430.726 853.884Z" stroke="url(#paint59_linear_1_25)" stroke-opacity="0.3" stroke-width="4" />
	<path opacity="0.884058" d="M423.177 855.995L271.124 970.115C265.644 974.228 262.283 980.57 261.957 987.414L252.035 1195.28C251.726 1201.75 254.159 1208.05 258.735 1212.63L400.226 1354.28C405.432 1359.5 412.821 1361.9 420.097 1360.75L603.335 1331.72C610.612 1330.57 616.896 1326 620.236 1319.44L711.028 1140.99C713.965 1135.22 714.332 1128.48 712.039 1122.42L638.369 927.796C635.944 921.388 630.788 916.395 624.305 914.177L444.429 852.629C437.225 850.164 429.267 851.424 423.177 855.995Z" stroke="url(#paint60_linear_1_25)" stroke-opacity="0.3" stroke-width="4" />
	<path opacity="0.898551" d="M415.265 858.892L258.783 963.006C253.064 966.812 249.345 972.975 248.644 979.809L227.861 1182.47C227.195 1188.97 229.324 1195.45 233.718 1200.29L366.058 1345.94C370.985 1351.36 378.199 1354.12 385.485 1353.35L568.419 1334.12C575.705 1333.36 582.19 1329.17 585.882 1322.84L685.046 1152.85C688.338 1147.21 689.075 1140.43 687.072 1134.21L624.607 940.293C622.5 933.754 617.581 928.499 611.195 925.966L436.487 856.661C429.475 853.88 421.545 854.713 415.265 858.892Z" stroke="url(#paint61_linear_1_25)" stroke-opacity="0.3" stroke-width="4" />
	<path opacity="0.913043" d="M406.948 862.54L246.662 956.506C240.72 959.989 236.652 965.953 235.577 972.757L204.453 1169.66C203.424 1176.18 205.239 1182.82 209.439 1187.9L332.597 1337C337.236 1342.62 344.26 1345.7 351.534 1345.32L533.649 1335.78C540.923 1335.4 547.586 1331.59 551.612 1325.52L658.511 1164.37C662.156 1158.87 663.267 1152.08 661.562 1145.71L610.028 953.132C608.247 946.478 603.578 940.973 597.304 938.129L428.074 861.433C421.27 858.349 413.392 858.762 406.948 862.54Z" stroke="url(#paint62_linear_1_25)" stroke-opacity="0.3" stroke-width="4" />
	<path opacity="0.927536" d="M398.186 866.905L234.725 950.617C228.577 953.765 224.17 959.509 222.721 966.262L181.806 1156.89C180.409 1163.4 181.9 1170.19 185.893 1175.52L299.872 1327.51C304.216 1333.3 311.033 1336.71 318.273 1336.71L499.067 1336.71C506.307 1336.71 513.124 1333.3 517.468 1327.51L631.447 1175.52C635.44 1170.19 636.931 1163.4 635.534 1156.89L594.62 966.262C593.17 959.509 588.763 953.765 582.616 950.617L419.154 866.905C412.571 863.534 404.769 863.534 398.186 866.905Z" stroke="url(#paint63_linear_1_25)" stroke-opacity="0.3" stroke-width="4" />
	<path opacity="0.942029" d="M388.943 871.949L222.933 945.339C216.599 948.139 211.864 953.644 210.042 960.325L159.91 1144.2C158.143 1150.68 159.299 1157.61 163.074 1163.17L267.908 1317.51C271.951 1323.47 278.545 1327.18 285.73 1327.56L464.712 1336.94C471.897 1337.32 478.844 1334.31 483.487 1328.81L603.88 1186.27C608.216 1181.14 610.09 1174.37 609.009 1167.74L578.372 979.629C577.259 972.794 573.125 966.824 567.119 963.377L409.69 873.036C403.341 869.393 395.637 868.99 388.943 871.949Z" stroke="url(#paint64_linear_1_25)" stroke-opacity="0.3" stroke-width="4" />
	<path opacity="0.956522" d="M379.183 877.633L211.251 940.671C204.75 943.111 199.699 948.358 197.509 954.947L138.756 1131.63C136.615 1138.07 137.427 1145.13 140.974 1150.91L236.727 1307.07C240.463 1313.17 246.821 1317.18 253.93 1317.93L430.623 1336.5C437.732 1337.24 444.785 1334.64 449.706 1329.46L575.835 1196.62C580.507 1191.7 582.768 1184.97 582.012 1178.22L561.279 993.18C560.506 986.28 556.657 980.098 550.805 976.36L399.649 879.784C393.546 875.885 385.963 875.088 379.183 877.633Z" stroke="url(#paint65_linear_1_25)" stroke-opacity="0.3" stroke-width="4" />
	<path opacity="0.971014" d="M368.876 883.916L199.642 936.609C192.995 938.678 187.643 943.648 185.086 950.124L118.331 1119.23C115.814 1125.61 116.272 1132.78 119.58 1138.78L206.347 1296.24C209.773 1302.46 215.88 1306.75 222.893 1307.86L396.835 1335.41C403.848 1336.52 410.98 1334.33 416.161 1329.47L547.34 1206.53C552.341 1201.84 554.991 1195.17 554.567 1188.33L543.337 1006.87C542.907 999.916 539.352 993.536 533.67 989.513L389.002 887.104C383.156 882.965 375.715 881.787 368.876 883.916Z" stroke="url(#paint66_linear_1_25)" stroke-opacity="0.3" stroke-width="4" />
	<path opacity="0.985507" d="M357.993 890.756L188.073 933.145C181.3 934.835 175.661 939.509 172.744 945.852L98.6201 1107.04C95.7265 1113.33 95.8223 1120.59 98.8809 1126.81L176.783 1285.07C179.897 1291.4 185.74 1295.94 192.636 1297.41L363.382 1333.7C370.278 1335.17 377.466 1333.39 382.884 1328.88L518.423 1215.98C523.744 1211.55 526.785 1204.96 526.701 1198.03L524.546 1020.63C524.461 1013.65 521.211 1007.09 515.71 1002.79L377.723 894.949C372.142 890.588 364.864 889.041 357.993 890.756Z" stroke="url(#paint67_linear_1_25)" stroke-opacity="0.3" stroke-width="4" />
	<path d="M346.508 898.108L176.509 930.273C169.632 931.574 163.721 935.937 160.45 942.125L79.6057 1095.09C76.3351 1101.28 76.0604 1108.62 78.8594 1115.04L148.047 1273.61C150.846 1280.03 156.414 1284.82 163.175 1286.63L330.295 1331.41C337.056 1333.22 344.274 1331.86 349.906 1327.7L489.113 1224.96C494.745 1220.81 498.178 1214.31 498.439 1207.32L504.909 1034.42C505.17 1027.43 502.233 1020.69 496.927 1016.13L365.787 903.273C360.481 898.708 353.385 896.806 346.508 898.108Z" stroke="url(#paint68_linear_1_25)" stroke-opacity="0.3" stroke-width="4" />
	<defs>
		<linearGradient id="paint0_linear_1_25" x1="1877.1" y1="1649.8" x2="1692.71" y2="485.564" gradientUnits="userSpaceOnUse">
			<stop stop-color="#FF1CF7" />
			<stop offset="1" stop-color="#00F0FF" />
		</linearGradient>
		<linearGradient id="paint1_linear_1_25" x1="1825.19" y1="1649.05" x2="1703.07" y2="487.113" gradientUnits="userSpaceOnUse">
			<stop stop-color="#FF1CF7" />
			<stop offset="1" stop-color="#00F0FF" />
		</linearGradient>
		<linearGradient id="paint2_linear_1_25" x1="1773.65" y1="1646.72" x2="1713.04" y2="490.37" gradientUnits="userSpaceOnUse">
			<stop stop-color="#FF1CF7" />
			<stop offset="1" stop-color="#00F0FF" />
		</linearGradient>
		<linearGradient id="paint3_linear_1_25" x1="1722.54" y1="1642.83" x2="1722.54" y2="495.3" gradientUnits="userSpaceOnUse">
			<stop stop-color="#FF1CF7" />
			<stop offset="1" stop-color="#00F0FF" />
		</linearGradient>
		<linearGradient id="paint4_linear_1_25" x1="1671.96" y1="1637.43" x2="1731.48" y2="501.858" gradientUnits="userSpaceOnUse">
			<stop stop-color="#FF1CF7" />
			<stop offset="1" stop-color="#00F0FF" />
		</linearGradient>
		<linearGradient id="paint5_linear_1_25" x1="1621.99" y1="1630.55" x2="1739.76" y2="509.999" gradientUnits="userSpaceOnUse">
			<stop stop-color="#FF1CF7" />
			<stop offset="1" stop-color="#00F0FF" />
		</linearGradient>
		<linearGradient id="paint6_linear_1_25" x1="1572.69" y1="1622.25" x2="1747.32" y2="519.673" gradientUnits="userSpaceOnUse">
			<stop stop-color="#FF1CF7" />
			<stop offset="1" stop-color="#00F0FF" />
		</linearGradient>
		<linearGradient id="paint7_linear_1_25" x1="1524.14" y1="1612.58" x2="1754.07" y2="530.825" gradientUnits="userSpaceOnUse">
			<stop stop-color="#FF1CF7" />
			<stop offset="1" stop-color="#00F0FF" />
		</linearGradient>
		<linearGradient id="paint8_linear_1_25" x1="1476.41" y1="1601.58" x2="1759.95" y2="543.394" gradientUnits="userSpaceOnUse">
			<stop stop-color="#FF1CF7" />
			<stop offset="1" stop-color="#00F0FF" />
		</linearGradient>
		<linearGradient id="paint9_linear_1_25" x1="1429.56" y1="1589.32" x2="1764.87" y2="557.321" gradientUnits="userSpaceOnUse">
			<stop stop-color="#FF1CF7" />
			<stop offset="1" stop-color="#00F0FF" />
		</linearGradient>
		<linearGradient id="paint10_linear_1_25" x1="1383.65" y1="1575.86" x2="1768.79" y2="572.539" gradientUnits="userSpaceOnUse">
			<stop stop-color="#FF1CF7" />
			<stop offset="1" stop-color="#00F0FF" />
		</linearGradient>
		<linearGradient id="paint11_linear_1_25" x1="1338.74" y1="1561.27" x2="1771.63" y2="588.979" gradientUnits="userSpaceOnUse">
			<stop stop-color="#FF1CF7" />
			<stop offset="1" stop-color="#00F0FF" />
		</linearGradient>
		<linearGradient id="paint12_linear_1_25" x1="1294.88" y1="1545.6" x2="1773.34" y2="606.57" gradientUnits="userSpaceOnUse">
			<stop stop-color="#FF1CF7" />
			<stop offset="1" stop-color="#00F0FF" />
		</linearGradient>
		<linearGradient id="paint13_linear_1_25" x1="1252.12" y1="1528.93" x2="1773.87" y2="625.239" gradientUnits="userSpaceOnUse">
			<stop stop-color="#FF1CF7" />
			<stop offset="1" stop-color="#00F0FF" />
		</linearGradient>
		<linearGradient id="paint14_linear_1_25" x1="1210.5" y1="1511.33" x2="1773.17" y2="644.909" gradientUnits="userSpaceOnUse">
			<stop stop-color="#FF1CF7" />
			<stop offset="1" stop-color="#00F0FF" />
		</linearGradient>
		<linearGradient id="paint15_linear_1_25" x1="1170.07" y1="1492.87" x2="1771.19" y2="665.502" gradientUnits="userSpaceOnUse">
			<stop stop-color="#FF1CF7" />
			<stop offset="1" stop-color="#00F0FF" />
		</linearGradient>
		<linearGradient id="paint16_linear_1_25" x1="1130.86" y1="1473.63" x2="1767.91" y2="686.938" gradientUnits="userSpaceOnUse">
			<stop stop-color="#FF1CF7" />
			<stop offset="1" stop-color="#00F0FF" />
		</linearGradient>
		<linearGradient id="paint17_linear_1_25" x1="1092.89" y1="1453.68" x2="1763.28" y2="709.137" gradientUnits="userSpaceOnUse">
			<stop stop-color="#FF1CF7" />
			<stop offset="1" stop-color="#00F0FF" />
		</linearGradient>
		<linearGradient id="paint18_linear_1_25" x1="1056.2" y1="1433.1" x2="1757.28" y2="732.015" gradientUnits="userSpaceOnUse">
			<stop stop-color="#FF1CF7" />
			<stop offset="1" stop-color="#00F0FF" />
		</linearGradient>
		<linearGradient id="paint19_linear_1_25" x1="1020.81" y1="1411.96" x2="1749.89" y2="755.489" gradientUnits="userSpaceOnUse">
			<stop stop-color="#FF1CF7" />
			<stop offset="1" stop-color="#00F0FF" />
		</linearGradient>
		<linearGradient id="paint20_linear_1_25" x1="986.735" y1="1390.34" x2="1741.09" y2="779.477" gradientUnits="userSpaceOnUse">
			<stop stop-color="#FF1CF7" />
			<stop offset="1" stop-color="#00F0FF" />
		</linearGradient>
		<linearGradient id="paint21_linear_1_25" x1="953.985" y1="1368.32" x2="1730.86" y2="803.893" gradientUnits="userSpaceOnUse">
			<stop stop-color="#FF1CF7" />
			<stop offset="1" stop-color="#00F0FF" />
		</linearGradient>
		<linearGradient id="paint22_linear_1_25" x1="922.569" y1="1345.99" x2="1719.19" y2="828.655" gradientUnits="userSpaceOnUse">
			<stop stop-color="#FF1CF7" />
			<stop offset="1" stop-color="#00F0FF" />
		</linearGradient>
		<linearGradient id="paint23_linear_1_25" x1="892.491" y1="1323.41" x2="1706.09" y2="853.678" gradientUnits="userSpaceOnUse">
			<stop stop-color="#FF1CF7" />
			<stop offset="1" stop-color="#00F0FF" />
		</linearGradient>
		<linearGradient id="paint24_linear_1_25" x1="863.75" y1="1300.66" x2="1691.54" y2="878.879" gradientUnits="userSpaceOnUse">
			<stop stop-color="#FF1CF7" />
			<stop offset="1" stop-color="#00F0FF" />
		</linearGradient>
		<linearGradient id="paint25_linear_1_25" x1="836.341" y1="1277.83" x2="1675.57" y2="904.177" gradientUnits="userSpaceOnUse">
			<stop stop-color="#FF1CF7" />
			<stop offset="1" stop-color="#00F0FF" />
		</linearGradient>
		<linearGradient id="paint26_linear_1_25" x1="810.254" y1="1254.98" x2="1658.18" y2="929.49" gradientUnits="userSpaceOnUse">
			<stop stop-color="#FF1CF7" />
			<stop offset="1" stop-color="#00F0FF" />
		</linearGradient>
		<linearGradient id="paint27_linear_1_25" x1="785.475" y1="1232.19" x2="1639.38" y2="954.739" gradientUnits="userSpaceOnUse">
			<stop stop-color="#FF1CF7" />
			<stop offset="1" stop-color="#00F0FF" />
		</linearGradient>
		<linearGradient id="paint28_linear_1_25" x1="761.986" y1="1209.53" x2="1619.19" y2="979.844" gradientUnits="userSpaceOnUse">
			<stop stop-color="#FF1CF7" />
			<stop offset="1" stop-color="#00F0FF" />
		</linearGradient>
		<linearGradient id="paint29_linear_1_25" x1="739.766" y1="1187.08" x2="1597.64" y2="1004.73" gradientUnits="userSpaceOnUse">
			<stop stop-color="#FF1CF7" />
			<stop offset="1" stop-color="#00F0FF" />
		</linearGradient>
		<linearGradient id="paint30_linear_1_25" x1="718.788" y1="1164.9" x2="1574.75" y2="1029.33" gradientUnits="userSpaceOnUse">
			<stop stop-color="#FF1CF7" />
			<stop offset="1" stop-color="#00F0FF" />
		</linearGradient>
		<linearGradient id="paint31_linear_1_25" x1="699.022" y1="1143.06" x2="1550.56" y2="1053.55" gradientUnits="userSpaceOnUse">
			<stop stop-color="#FF1CF7" />
			<stop offset="1" stop-color="#00F0FF" />
		</linearGradient>
		<linearGradient id="paint32_linear_1_25" x1="680.436" y1="1121.62" x2="1525.1" y2="1077.35" gradientUnits="userSpaceOnUse">
			<stop stop-color="#FF1CF7" />
			<stop offset="1" stop-color="#00F0FF" />
		</linearGradient>
		<linearGradient id="paint33_linear_1_25" x1="662.994" y1="1100.65" x2="1498.41" y2="1100.65" gradientUnits="userSpaceOnUse">
			<stop stop-color="#FF1CF7" />
			<stop offset="1" stop-color="#00F0FF" />
		</linearGradient>
		<linearGradient id="paint34_linear_1_25" x1="646.654" y1="1080.2" x2="1470.54" y2="1123.38" gradientUnits="userSpaceOnUse">
			<stop stop-color="#FF1CF7" />
			<stop offset="1" stop-color="#00F0FF" />
		</linearGradient>
		<linearGradient id="paint35_linear_1_25" x1="631.376" y1="1060.33" x2="1441.53" y2="1145.48" gradientUnits="userSpaceOnUse">
			<stop stop-color="#FF1CF7" />
			<stop offset="1" stop-color="#00F0FF" />
		</linearGradient>
		<linearGradient id="paint36_linear_1_25" x1="617.113" y1="1041.1" x2="1411.42" y2="1166.91" gradientUnits="userSpaceOnUse">
			<stop stop-color="#FF1CF7" />
			<stop offset="1" stop-color="#00F0FF" />
		</linearGradient>
		<linearGradient id="paint37_linear_1_25" x1="603.817" y1="1022.55" x2="1380.28" y2="1187.59" gradientUnits="userSpaceOnUse">
			<stop stop-color="#FF1CF7" />
			<stop offset="1" stop-color="#00F0FF" />
		</linearGradient>
		<linearGradient id="paint38_linear_1_25" x1="591.438" y1="1004.74" x2="1348.15" y2="1207.5" gradientUnits="userSpaceOnUse">
			<stop stop-color="#FF1CF7" />
			<stop offset="1" stop-color="#00F0FF" />
		</linearGradient>
		<linearGradient id="paint39_linear_1_25" x1="579.922" y1="987.695" x2="1315.09" y2="1226.57" gradientUnits="userSpaceOnUse">
			<stop stop-color="#FF1CF7" />
			<stop offset="1" stop-color="#00F0FF" />
		</linearGradient>
		<linearGradient id="paint40_linear_1_25" x1="569.216" y1="971.469" x2="1281.16" y2="1244.76" gradientUnits="userSpaceOnUse">
			<stop stop-color="#FF1CF7" />
			<stop offset="1" stop-color="#00F0FF" />
		</linearGradient>
		<linearGradient id="paint41_linear_1_25" x1="559.261" y1="956.093" x2="1246.42" y2="1262.04" gradientUnits="userSpaceOnUse">
			<stop stop-color="#FF1CF7" />
			<stop offset="1" stop-color="#00F0FF" />
		</linearGradient>
		<linearGradient id="paint42_linear_1_25" x1="550.001" y1="941.601" x2="1210.94" y2="1278.37" gradientUnits="userSpaceOnUse">
			<stop stop-color="#FF1CF7" />
			<stop offset="1" stop-color="#00F0FF" />
		</linearGradient>
		<linearGradient id="paint43_linear_1_25" x1="541.376" y1="928.022" x2="1174.77" y2="1293.71" gradientUnits="userSpaceOnUse">
			<stop stop-color="#FF1CF7" />
			<stop offset="1" stop-color="#00F0FF" />
		</linearGradient>
		<linearGradient id="paint44_linear_1_25" x1="533.325" y1="915.38" x2="1137.99" y2="1308.05" gradientUnits="userSpaceOnUse">
			<stop stop-color="#FF1CF7" />
			<stop offset="1" stop-color="#00F0FF" />
		</linearGradient>
		<linearGradient id="paint45_linear_1_25" x1="525.787" y1="903.697" x2="1100.65" y2="1321.36" gradientUnits="userSpaceOnUse">
			<stop stop-color="#FF1CF7" />
			<stop offset="1" stop-color="#00F0FF" />
		</linearGradient>
		<linearGradient id="paint46_linear_1_25" x1="518.7" y1="892.99" x2="1062.84" y2="1333.62" gradientUnits="userSpaceOnUse">
			<stop stop-color="#FF1CF7" />
			<stop offset="1" stop-color="#00F0FF" />
		</linearGradient>
		<linearGradient id="paint47_linear_1_25" x1="512.001" y1="883.273" x2="1024.6" y2="1344.82" gradientUnits="userSpaceOnUse">
			<stop stop-color="#FF1CF7" />
			<stop offset="1" stop-color="#00F0FF" />
		</linearGradient>
		<linearGradient id="paint48_linear_1_25" x1="505.628" y1="874.555" x2="986.012" y2="1354.94" gradientUnits="userSpaceOnUse">
			<stop stop-color="#FF1CF7" />
			<stop offset="1" stop-color="#00F0FF" />
		</linearGradient>
		<linearGradient id="paint49_linear_1_25" x1="499.519" y1="866.844" x2="947.141" y2="1363.98" gradientUnits="userSpaceOnUse">
			<stop stop-color="#FF1CF7" />
			<stop offset="1" stop-color="#00F0FF" />
		</linearGradient>
		<linearGradient id="paint50_linear_1_25" x1="493.61" y1="860.14" x2="908.054" y2="1371.94" gradientUnits="userSpaceOnUse">
			<stop stop-color="#FF1CF7" />
			<stop offset="1" stop-color="#00F0FF" />
		</linearGradient>
		<linearGradient id="paint51_linear_1_25" x1="487.842" y1="854.443" x2="868.817" y2="1378.81" gradientUnits="userSpaceOnUse">
			<stop stop-color="#FF1CF7" />
			<stop offset="1" stop-color="#00F0FF" />
		</linearGradient>
		<linearGradient id="paint52_linear_1_25" x1="482.152" y1="849.746" x2="829.496" y2="1384.61" gradientUnits="userSpaceOnUse">
			<stop stop-color="#FF1CF7" />
			<stop offset="1" stop-color="#00F0FF" />
		</linearGradient>
		<linearGradient id="paint53_linear_1_25" x1="476.481" y1="846.042" x2="790.154" y2="1389.34" gradientUnits="userSpaceOnUse">
			<stop stop-color="#FF1CF7" />
			<stop offset="1" stop-color="#00F0FF" />
		</linearGradient>
		<linearGradient id="paint54_linear_1_25" x1="470.77" y1="843.318" x2="750.856" y2="1393.02" gradientUnits="userSpaceOnUse">
			<stop stop-color="#FF1CF7" />
			<stop offset="1" stop-color="#00F0FF" />
		</linearGradient>
		<linearGradient id="paint55_linear_1_25" x1="464.961" y1="841.558" x2="711.662" y2="1395.66" gradientUnits="userSpaceOnUse">
			<stop stop-color="#FF1CF7" />
			<stop offset="1" stop-color="#00F0FF" />
		</linearGradient>
		<linearGradient id="paint56_linear_1_25" x1="458.998" y1="840.744" x2="672.634" y2="1397.28" gradientUnits="userSpaceOnUse">
			<stop stop-color="#FF1CF7" />
			<stop offset="1" stop-color="#00F0FF" />
		</linearGradient>
		<linearGradient id="paint57_linear_1_25" x1="452.828" y1="840.853" x2="633.829" y2="1397.92" gradientUnits="userSpaceOnUse">
			<stop stop-color="#FF1CF7" />
			<stop offset="1" stop-color="#00F0FF" />
		</linearGradient>
		<linearGradient id="paint58_linear_1_25" x1="446.398" y1="841.86" x2="595.303" y2="1397.58" gradientUnits="userSpaceOnUse">
			<stop stop-color="#FF1CF7" />
			<stop offset="1" stop-color="#00F0FF" />
		</linearGradient>
		<linearGradient id="paint59_linear_1_25" x1="439.657" y1="843.737" x2="557.111" y2="1396.32" gradientUnits="userSpaceOnUse">
			<stop stop-color="#FF1CF7" />
			<stop offset="1" stop-color="#00F0FF" />
		</linearGradient>
		<linearGradient id="paint60_linear_1_25" x1="432.558" y1="846.453" x2="519.304" y2="1394.15" gradientUnits="userSpaceOnUse">
			<stop stop-color="#FF1CF7" />
			<stop offset="1" stop-color="#00F0FF" />
		</linearGradient>
		<linearGradient id="paint61_linear_1_25" x1="425.056" y1="849.975" x2="481.931" y2="1391.11" gradientUnits="userSpaceOnUse">
			<stop stop-color="#FF1CF7" />
			<stop offset="1" stop-color="#00F0FF" />
		</linearGradient>
		<linearGradient id="paint62_linear_1_25" x1="417.107" y1="854.266" x2="445.039" y2="1387.25" gradientUnits="userSpaceOnUse">
			<stop stop-color="#FF1CF7" />
			<stop offset="1" stop-color="#00F0FF" />
		</linearGradient>
		<linearGradient id="paint63_linear_1_25" x1="408.67" y1="859.289" x2="408.67" y2="1382.6" gradientUnits="userSpaceOnUse">
			<stop stop-color="#FF1CF7" />
			<stop offset="1" stop-color="#00F0FF" />
		</linearGradient>
		<linearGradient id="paint64_linear_1_25" x1="399.709" y1="865.003" x2="372.865" y2="1377.2" gradientUnits="userSpaceOnUse">
			<stop stop-color="#FF1CF7" />
			<stop offset="1" stop-color="#00F0FF" />
		</linearGradient>
		<linearGradient id="paint65_linear_1_25" x1="390.188" y1="871.366" x2="337.662" y2="1371.11" gradientUnits="userSpaceOnUse">
			<stop stop-color="#FF1CF7" />
			<stop offset="1" stop-color="#00F0FF" />
		</linearGradient>
		<linearGradient id="paint66_linear_1_25" x1="380.076" y1="878.334" x2="303.095" y2="1364.37" gradientUnits="userSpaceOnUse">
			<stop stop-color="#FF1CF7" />
			<stop offset="1" stop-color="#00F0FF" />
		</linearGradient>
		<linearGradient id="paint67_linear_1_25" x1="369.343" y1="885.863" x2="269.194" y2="1357.03" gradientUnits="userSpaceOnUse">
			<stop stop-color="#FF1CF7" />
			<stop offset="1" stop-color="#00F0FF" />
		</linearGradient>
		<linearGradient id="paint68_linear_1_25" x1="357.966" y1="893.904" x2="235.987" y2="1349.14" gradientUnits="userSpaceOnUse">
			<stop stop-color="#FF1CF7" />
			<stop offset="1" stop-color="#00F0FF" />
		</linearGradient>
	</defs>
</svg>
