<svg width="1728" height="1417" viewBox="0 0 1728 1417" fill="none" xmlns="http://www.w3.org/2000/svg">
	<path opacity="0.0144928" d="M1701.42 1117.21C1710.48 1122.01 1721.62 1120.25 1728.74 1112.88L1955.76 878.091C1959.97 873.733 1962.29 867.888 1962.22 861.827L1956.59 394.419C1956.53 389.653 1954.99 385.021 1952.19 381.166L1711.34 50.0929C1706.25 43.1031 1697.68 39.5543 1689.14 40.9065L1407.83 85.4619C1399.29 86.8141 1392.23 92.8389 1389.56 101.058L1262.8 490.354C1261.33 494.887 1261.29 499.767 1262.71 504.318L1401.79 950.59C1403.6 956.377 1407.61 961.218 1412.96 964.061L1701.42 1117.21Z" stroke="url(#paint0_linear_3228_3167)" stroke-opacity="0.5" stroke-width="4" />
	<path opacity="0.0289855" d="M1650.12 1115.71C1658.9 1120.96 1670.08 1119.78 1677.58 1112.83L1915.21 892.219C1919.66 888.088 1922.29 882.366 1922.54 876.301L1941.42 413.539C1941.62 408.761 1940.32 404.042 1937.71 400.037L1715.98 60.0662C1711.26 52.8356 1702.89 48.8544 1694.31 49.7568L1412.73 79.3514C1404.15 80.2537 1396.79 85.8876 1393.68 93.9407L1247.48 472.582C1245.76 477.043 1245.47 481.93 1246.65 486.562L1361.34 935.285C1362.84 941.167 1366.61 946.216 1371.82 949.331L1650.12 1115.71Z" stroke="url(#paint1_linear_3228_3167)" stroke-opacity="0.5" stroke-width="4" />
	<path opacity="0.0434783" d="M1599.22 1112.67C1607.7 1118.34 1618.89 1117.75 1626.73 1111.23L1874.12 905.255C1878.79 901.365 1881.73 895.783 1882.3 889.73L1925.2 432.888C1925.65 428.113 1924.59 423.317 1922.18 419.172L1719.84 71.3884C1715.5 63.9366 1707.36 59.5351 1698.75 59.9863L1417.71 74.7153C1409.1 75.1665 1401.46 80.3946 1397.93 88.2588L1233.05 455.287C1231.09 459.663 1230.54 464.543 1231.48 469.245L1321.9 919.099C1323.1 925.06 1326.61 930.304 1331.66 933.684L1599.22 1112.67Z" stroke="url(#paint2_linear_3228_3167)" stroke-opacity="0.5" stroke-width="4" />
	<path opacity="0.057971" d="M1548.8 1108.1C1556.95 1114.18 1568.13 1114.18 1576.28 1108.1L1832.55 917.183C1837.44 913.545 1840.68 908.12 1841.57 902.096L1907.91 452.408C1908.62 447.649 1907.81 442.789 1905.6 438.513L1722.86 84.0048C1718.91 76.3522 1711.02 71.5435 1702.41 71.5435L1422.67 71.5435C1414.06 71.5435 1406.17 76.3521 1402.23 84.0048L1219.48 438.513C1217.28 442.789 1216.47 447.649 1217.17 452.408L1283.52 902.096C1284.41 908.12 1287.65 913.545 1292.53 917.183L1548.8 1108.1Z" stroke="url(#paint3_linear_3228_3167)" stroke-opacity="0.5" stroke-width="4" />
	<path opacity="0.0724638" d="M1498.94 1102.06C1506.75 1108.52 1517.87 1109.1 1526.32 1103.5L1790.58 927.986C1795.66 924.612 1799.19 919.359 1800.4 913.381L1889.56 472.039C1890.52 467.309 1889.96 462.397 1887.97 458.001L1724.96 97.8564C1721.42 90.0234 1713.8 84.8219 1705.21 84.3719L1427.55 69.82C1418.96 69.3701 1410.84 73.7467 1406.5 81.1662L1206.73 422.298C1204.3 426.463 1203.23 431.289 1203.69 436.094L1246.23 884.339C1246.8 890.41 1249.77 896.003 1254.47 899.89L1498.94 1102.06Z" stroke="url(#paint4_linear_3228_3167)" stroke-opacity="0.5" stroke-width="4" />
	<path opacity="0.0869565" d="M1449.7 1094.59C1457.16 1101.42 1468.2 1102.58 1476.91 1097.45L1748.25 937.654C1753.52 934.555 1757.33 929.489 1758.85 923.575L1870.15 491.723C1871.35 487.034 1871.05 482.084 1869.28 477.578L1726.1 112.882C1722.96 104.89 1715.64 99.3108 1707.1 98.4133L1432.25 69.5262C1423.72 68.6287 1415.39 72.5622 1410.66 79.7274L1194.78 406.684C1192.11 410.725 1190.79 415.504 1190.99 420.341L1210.07 865.895C1210.33 871.997 1213.01 877.745 1217.51 881.871L1449.7 1094.59Z" stroke="url(#paint5_linear_3228_3167)" stroke-opacity="0.5" stroke-width="4" />
	<path opacity="0.101449" d="M1401.17 1085.73C1408.25 1092.9 1419.18 1094.64 1428.13 1090L1705.64 946.179C1711.07 943.364 1715.16 938.502 1717 932.667L1849.67 511.4C1851.13 506.767 1851.08 501.791 1849.54 497.186L1726.21 129.017C1723.49 120.888 1716.47 114.947 1708 113.606L1436.72 70.6387C1428.25 69.2974 1419.74 72.7779 1414.64 79.6683L1183.58 391.707C1180.69 395.611 1179.11 400.329 1179.06 405.186L1175.06 846.833C1175.01 852.95 1177.39 858.837 1181.69 863.192L1401.17 1085.73Z" stroke="url(#paint6_linear_3228_3167)" stroke-opacity="0.5" stroke-width="4" />
	<path opacity="0.115942" d="M1353.42 1075.54C1360.1 1083.04 1370.89 1085.33 1380.05 1081.2L1662.81 953.556C1668.39 951.035 1672.74 946.391 1674.89 940.652L1828.14 531.014C1829.85 526.45 1830.06 521.461 1828.75 516.768L1725.25 146.196C1722.95 137.95 1716.25 131.665 1707.88 129.885L1440.87 73.1304C1432.49 71.3503 1423.82 74.3692 1418.36 80.9655L1173.09 377.403C1169.98 381.157 1168.15 385.802 1167.85 390.666L1141.24 827.222C1140.86 833.337 1142.95 839.349 1147.02 843.923L1353.42 1075.54Z" stroke="url(#paint7_linear_3228_3167)" stroke-opacity="0.5" stroke-width="4" />
	<path opacity="0.130435" d="M1306.5 1064.07C1312.78 1071.88 1323.4 1074.73 1332.74 1071.1L1619.81 959.785C1625.54 957.566 1630.13 953.153 1632.58 947.528L1805.56 550.507C1807.52 546.025 1807.99 541.037 1806.92 536.267L1723.16 164.347C1721.28 156.007 1714.93 149.397 1706.67 147.184L1444.63 76.9696C1436.37 74.7569 1427.57 77.307 1421.77 83.5906L1163.27 363.802C1159.95 367.396 1157.87 371.952 1157.32 376.811L1108.62 807.131C1107.93 813.229 1109.7 819.349 1113.55 824.131L1306.5 1064.07Z" stroke="url(#paint8_linear_3228_3167)" stroke-opacity="0.5" stroke-width="4" />
	<path opacity="0.144928" d="M1260.49 1051.39C1266.35 1059.48 1276.76 1062.87 1286.26 1059.76L1576.72 964.869C1582.57 962.96 1587.4 958.792 1590.15 953.295L1781.96 569.824C1784.16 565.436 1784.89 560.462 1784.06 555.627L1719.89 183.401C1718.44 174.988 1712.45 168.071 1704.34 165.433L1447.93 82.1222C1439.81 79.4843 1430.9 81.5597 1424.78 87.513L1154.08 350.936C1150.57 354.357 1148.24 358.813 1147.43 363.653L1077.21 786.632C1076.21 792.695 1077.67 798.909 1081.27 803.888L1260.49 1051.39Z" stroke="url(#paint9_linear_3228_3167)" stroke-opacity="0.5" stroke-width="4" />
	<path opacity="0.15942" d="M1215.43 1037.55C1220.86 1045.9 1231.05 1049.81 1240.67 1047.24L1533.6 968.812C1539.54 967.22 1544.6 963.31 1547.64 957.958L1757.35 588.908C1759.78 584.628 1760.78 579.681 1760.19 574.794L1715.42 203.282C1714.4 194.82 1708.79 187.616 1700.83 184.561L1450.71 88.5494C1442.75 85.4949 1433.76 87.0913 1427.34 92.6975L1145.48 338.831C1141.77 342.069 1139.2 346.411 1138.15 351.219L1047.05 765.796C1045.72 771.809 1046.87 778.1 1050.22 783.263L1215.43 1037.55Z" stroke="url(#paint10_linear_3228_3167)" stroke-opacity="0.5" stroke-width="4" />
	<path opacity="0.173913" d="M1171.39 1022.62C1176.37 1031.21 1186.31 1035.63 1196.02 1033.59L1490.49 971.625C1496.53 970.356 1501.8 966.716 1505.12 961.523L1731.74 607.708C1734.41 603.548 1735.66 598.641 1735.32 593.713L1709.7 223.917C1709.12 215.427 1703.89 207.956 1696.11 204.495L1452.9 96.21C1445.13 92.7486 1436.08 93.8628 1429.38 99.1066L1137.42 327.513C1133.53 330.556 1130.73 334.772 1129.42 339.535L1018.12 744.694C1016.48 750.64 1017.31 756.993 1020.4 762.327L1171.39 1022.62Z" stroke="url(#paint11_linear_3228_3167)" stroke-opacity="0.5" stroke-width="4" />
	<path opacity="0.188406" d="M1128.42 1006.67C1132.94 1015.47 1142.59 1020.39 1152.38 1018.88L1447.47 973.321C1453.58 972.378 1459.05 969.02 1462.65 964.002L1705.17 626.169C1708.06 622.142 1709.57 617.289 1709.48 612.333L1702.71 245.229C1702.55 236.734 1697.73 229.017 1690.16 225.16L1454.45 105.059C1446.88 101.202 1437.8 101.832 1430.83 106.699L1129.86 317.004C1125.8 319.843 1122.76 323.919 1121.2 328.625L990.436 723.397C988.493 729.261 988.991 735.659 991.817 741.151L1128.42 1006.67Z" stroke="url(#paint12_linear_3228_3167)" stroke-opacity="0.5" stroke-width="4" />
	<path opacity="0.202899" d="M1086.55 989.76C1090.61 998.75 1099.96 1004.15 1109.78 1003.17L1404.6 973.913C1410.76 973.302 1416.41 970.237 1420.28 965.409L1677.64 644.243C1680.75 640.361 1682.52 635.575 1682.68 630.602L1694.42 267.14C1694.69 258.662 1690.28 250.721 1682.93 246.479L1455.29 115.049C1447.94 110.808 1438.86 110.955 1431.65 115.431L1122.75 307.324C1118.52 309.949 1115.26 313.873 1113.46 318.509L964.002 701.978C961.755 707.743 961.925 714.17 964.475 719.807L1086.55 989.76Z" stroke="url(#paint13_linear_3228_3167)" stroke-opacity="0.5" stroke-width="4" />
	<path opacity="0.217391" d="M1045.83 971.969C1049.43 981.122 1058.44 986.977 1068.27 986.538L1361.92 973.422C1368.12 973.146 1373.93 970.382 1378.06 965.758L1649.2 661.88C1652.53 658.154 1654.55 653.448 1654.96 648.472L1684.8 289.572C1685.5 281.132 1681.51 272.99 1674.41 268.377L1455.36 126.13C1448.26 121.518 1439.2 121.182 1431.77 125.256L1116.04 298.49C1111.66 300.891 1108.18 304.653 1106.13 309.205L938.811 680.507C936.265 686.157 936.107 692.596 938.372 698.365L1045.83 971.969Z" stroke="url(#paint14_linear_3228_3167)" stroke-opacity="0.5" stroke-width="4" />
	<path opacity="0.231884" d="M1006.3 953.367C1009.42 962.658 1018.09 968.952 1027.89 969.047L1319.5 971.869C1325.71 971.929 1331.68 969.477 1336.05 965.07L1619.88 679.031C1623.41 675.474 1625.68 670.861 1626.35 665.894L1673.84 312.446C1674.97 304.067 1671.41 295.745 1664.57 290.776L1454.63 138.249C1447.79 133.279 1438.78 132.463 1431.16 136.123L1109.68 290.516C1105.17 292.686 1101.48 296.271 1099.19 300.728L914.857 659.053C912.017 664.574 911.53 671.008 913.505 676.893L1006.3 953.367Z" stroke="url(#paint15_linear_3228_3167)" stroke-opacity="0.5" stroke-width="4" />
	<path opacity="0.246377" d="M967.997 934.028C970.635 943.432 978.924 950.144 988.671 950.769L1277.39 969.277C1283.6 969.675 1289.7 967.543 1294.31 963.366L1589.7 695.654C1593.43 692.276 1595.94 687.769 1596.87 682.824L1661.54 335.683C1663.08 327.386 1659.96 318.908 1653.4 313.597L1453.04 151.349C1446.48 146.038 1437.54 144.745 1429.75 147.982L1103.64 283.415C1098.99 285.344 1095.11 288.743 1092.58 293.091L892.129 637.687C889.002 643.062 888.185 649.475 889.865 655.463L967.997 934.028Z" stroke="url(#paint16_linear_3228_3167)" stroke-opacity="0.5" stroke-width="4" />
	<path opacity="0.26087" d="M930.939 914.027C933.092 923.519 940.987 930.628 950.652 931.778L1235.64 965.674C1241.83 966.41 1248.05 964.605 1252.88 960.672L1558.7 711.703C1562.62 708.515 1565.37 704.127 1566.55 699.216L1647.87 359.204C1649.83 351.009 1647.15 342.399 1640.89 336.761L1450.55 165.375C1444.28 159.737 1435.44 157.974 1427.5 160.78L1097.85 277.195C1093.09 278.877 1089.01 282.078 1086.25 286.306L870.611 616.475C867.205 621.691 866.06 628.065 867.438 634.141L930.939 914.027Z" stroke="url(#paint17_linear_3228_3167)" stroke-opacity="0.5" stroke-width="4" />
	<path opacity="0.275362" d="M895.154 893.442C896.821 902.997 904.303 910.478 913.857 912.146L1194.3 961.09C1200.45 962.163 1206.77 960.692 1211.81 957.014L1526.92 727.139C1531.02 724.152 1534.01 719.895 1535.44 715.031L1632.84 382.929C1635.21 374.858 1632.98 366.139 1627.03 360.192L1447.11 180.265C1441.16 174.318 1432.44 172.091 1424.37 174.458L1092.27 271.864C1087.4 273.29 1083.15 276.284 1080.16 280.379L850.285 595.485C846.607 600.527 845.136 606.847 846.209 612.994L895.154 893.442Z" stroke="url(#paint18_linear_3228_3167)" stroke-opacity="0.5" stroke-width="4" />
	<path opacity="0.289855" d="M860.66 872.349C861.841 881.94 868.891 889.771 878.307 891.947L1153.42 955.556C1159.52 956.965 1165.92 955.833 1171.16 952.421L1494.4 741.923C1498.66 739.146 1501.88 735.033 1503.56 730.229L1616.45 406.78C1619.22 398.853 1617.45 390.049 1611.83 383.811L1442.69 195.96C1437.07 189.722 1428.5 187.039 1420.33 188.962L1086.85 267.424C1081.9 268.59 1077.47 271.365 1074.26 275.316L831.129 574.782C827.188 579.635 825.393 585.884 826.157 592.089L860.66 872.349Z" stroke="url(#paint19_linear_3228_3167)" stroke-opacity="0.5" stroke-width="4" />
	<path opacity="0.304348" d="M827.473 850.825C828.168 860.428 834.771 868.582 844.02 871.259L1113.05 949.108C1119.07 950.848 1125.53 950.061 1130.95 946.926L1461.17 756.019C1465.59 753.462 1469.04 749.505 1470.97 744.772L1598.71 430.679C1601.86 422.917 1600.55 414.052 1595.28 407.54L1437.25 212.398C1431.98 205.886 1423.58 202.757 1415.33 204.231L1081.55 263.878C1076.52 264.777 1071.93 267.325 1068.51 271.12L813.117 554.429C808.923 559.081 806.808 565.242 807.26 571.489L827.473 850.825Z" stroke="url(#paint20_linear_3228_3167)" stroke-opacity="0.5" stroke-width="4" />
	<path opacity="0.318841" d="M795.603 828.948C795.814 838.538 801.955 846.99 811.01 850.154L1073.22 941.78C1079.15 943.85 1085.66 943.41 1091.25 940.562L1427.29 769.393C1431.86 767.065 1435.52 763.275 1437.69 758.627L1579.62 454.55C1583.16 446.971 1582.3 438.069 1577.39 431.303L1430.78 229.513C1425.86 222.747 1417.66 219.182 1409.36 220.205L1076.31 261.224C1071.21 261.851 1066.48 264.162 1062.85 267.79L796.218 534.488C791.782 538.925 789.351 544.982 789.489 551.255L795.603 828.948Z" stroke="url(#paint21_linear_3228_3167)" stroke-opacity="0.5" stroke-width="4" />
	<path opacity="0.333333" d="M765.054 806.794C764.785 816.347 770.45 825.07 779.286 828.709L1033.98 933.612C1039.8 936.006 1046.34 935.916 1052.08 933.364L1392.79 782.014C1397.5 779.923 1401.37 776.312 1403.78 771.76L1559.2 478.316C1563.11 470.939 1562.71 462.025 1558.17 455.024L1423.23 247.242C1418.69 240.241 1410.7 236.253 1402.38 236.822L1071.08 259.457C1065.94 259.809 1061.07 261.875 1057.25 265.325L780.402 515.018C775.734 519.228 772.993 525.165 772.816 531.449L765.054 806.794Z" stroke="url(#paint22_linear_3228_3167)" stroke-opacity="0.5" stroke-width="4" />
	<path opacity="0.347826" d="M735.829 784.442C735.084 793.932 740.262 802.9 748.852 806.999L995.372 924.644C1001.06 927.356 1007.6 927.619 1013.49 925.372L1357.72 793.854C1362.55 792.008 1366.62 788.587 1369.27 784.143L1537.48 501.904C1541.74 494.748 1541.8 485.844 1537.64 478.629L1414.6 265.519C1410.43 258.304 1402.69 253.906 1394.36 254.022L1065.83 258.573C1060.66 258.644 1055.66 260.457 1051.65 263.719L765.633 496.076C760.744 500.047 757.698 505.849 757.206 512.127L735.829 784.442Z" stroke="url(#paint23_linear_3228_3167)" stroke-opacity="0.5" stroke-width="4" />
	<path opacity="0.362319" d="M707.924 761.966C706.709 771.369 711.389 780.554 719.71 785.099L957.424 914.918C962.962 917.942 969.499 918.559 975.504 916.623L1322.13 804.886C1327.08 803.292 1331.34 800.072 1334.22 795.749L1514.46 525.242C1519.07 518.323 1519.59 509.455 1515.81 502.047L1404.86 284.278C1401.08 276.87 1393.6 272.076 1385.3 271.739L1060.5 258.561C1055.31 258.35 1050.21 259.903 1046.01 262.966L751.87 477.717C746.774 481.437 743.431 487.088 742.622 493.346L707.924 761.966Z" stroke="url(#paint24_linear_3228_3167)" stroke-opacity="0.5" stroke-width="4" />
	<path opacity="0.376812" d="M681.33 739.443C679.653 748.736 683.826 758.109 691.855 763.081L920.171 904.477C925.546 907.806 932.054 908.775 938.165 907.158L1286.07 815.089C1291.11 813.754 1295.55 810.744 1298.66 806.553L1490.19 548.258C1495.13 541.593 1496.1 532.784 1492.72 525.204L1393.99 303.453C1390.62 295.873 1383.42 290.699 1375.16 289.912L1055.06 259.41C1049.86 258.915 1044.65 260.2 1040.29 263.055L739.074 459.992C733.783 463.452 730.149 468.937 729.026 475.158L681.33 739.443Z" stroke="url(#paint25_linear_3228_3167)" stroke-opacity="0.5" stroke-width="4" />
	<path opacity="0.391304" d="M656.037 716.945C653.906 726.105 657.566 735.64 665.279 741.021L883.645 893.367C888.84 896.991 895.299 898.313 901.5 897.02L1249.58 824.441C1254.71 823.372 1259.32 820.582 1262.65 816.535L1464.68 570.885C1469.94 564.491 1471.36 555.763 1468.39 548.033L1382 322.978C1379.03 315.248 1372.14 309.71 1363.95 308.477L1049.44 261.107C1044.26 260.327 1038.97 261.339 1034.44 263.977L727.2 442.953C721.727 446.141 717.811 451.445 716.375 457.614L656.037 716.945Z" stroke="url(#paint26_linear_3228_3167)" stroke-opacity="0.5" stroke-width="4" />
	<path opacity="0.405797" d="M632.029 694.547C629.454 703.551 632.595 713.218 639.971 718.988L847.874 881.634C852.872 885.544 859.265 887.215 865.537 886.252L1212.72 832.927C1217.92 832.128 1222.69 829.568 1226.24 825.676L1437.98 593.057C1443.54 586.948 1445.4 578.325 1442.85 570.468L1368.87 342.785C1366.31 334.928 1359.74 329.043 1351.65 327.369L1043.62 263.636C1038.46 262.57 1033.1 263.304 1028.42 265.715L716.201 426.643C710.56 429.551 706.371 434.66 704.626 440.762L632.029 694.547Z" stroke="url(#paint27_linear_3228_3167)" stroke-opacity="0.5" stroke-width="4" />
	<path opacity="0.42029" d="M609.286 672.319C606.277 681.145 608.894 690.915 615.913 697.054L812.881 869.324C817.668 873.51 823.974 875.528 830.301 874.898L1175.53 840.53C1180.8 840.007 1185.72 837.686 1189.47 833.959L1410.12 614.71C1415.97 608.9 1418.26 600.405 1416.13 592.442L1354.6 362.809C1352.46 354.847 1346.23 348.635 1338.26 346.527L1037.55 266.979C1032.43 265.627 1027.01 266.078 1022.19 268.255L706.029 411.108C700.234 413.726 695.782 418.627 693.73 424.646L609.286 672.319Z" stroke="url(#paint28_linear_3228_3167)" stroke-opacity="0.5" stroke-width="4" />
	<path opacity="0.434783" d="M587.783 650.331C584.352 658.958 586.444 668.802 593.088 675.288L778.69 856.486C783.249 860.937 789.45 863.297 795.815 863.004L1138.08 847.241C1143.38 846.997 1148.44 844.923 1152.39 841.372L1381.15 635.784C1387.27 630.287 1389.98 621.941 1388.27 613.896L1339.19 382.985C1337.48 374.94 1331.6 368.421 1323.78 365.887L1031.18 271.116C1026.13 269.479 1020.66 269.642 1015.71 271.577L696.633 396.388C690.699 398.709 685.994 403.387 683.639 409.308L587.783 650.331Z" stroke="url(#paint29_linear_3228_3167)" stroke-opacity="0.5" stroke-width="4" />
	<path opacity="0.449275" d="M567.493 628.649C563.653 637.057 565.22 646.947 571.47 653.757L745.318 843.168C749.635 847.872 755.713 850.569 762.098 850.615L1100.4 853.05C1105.73 853.088 1110.92 851.27 1115.06 847.905L1351.1 656.221C1357.47 651.048 1360.6 642.873 1359.32 634.769L1322.65 403.249C1321.37 395.144 1315.86 388.337 1308.21 385.386L1024.48 276.024C1019.5 274.105 1014.01 273.977 1008.95 275.663L687.958 382.518C681.901 384.535 676.954 388.979 674.302 394.786L567.493 628.649Z" stroke="url(#paint30_linear_3228_3167)" stroke-opacity="0.5" stroke-width="4" />
	<path opacity="0.463768" d="M548.386 607.339C544.151 615.508 545.192 625.415 551.033 632.525L712.783 829.42C716.844 834.364 722.781 837.392 729.166 837.779L1062.55 857.952C1067.9 858.276 1073.2 856.719 1077.52 853.55L1320.03 675.966C1326.64 671.129 1330.17 663.146 1329.32 655.005L1304.99 423.536C1304.13 415.394 1299.01 408.321 1291.55 404.964L1017.42 281.68C1012.53 279.48 1007.02 279.059 1001.85 280.489L679.952 369.535C673.786 371.24 668.609 375.437 665.665 381.116L548.386 607.339Z" stroke="url(#paint31_linear_3228_3167)" stroke-opacity="0.5" stroke-width="4" />
	<path opacity="0.478261" d="M530.425 586.463C525.81 594.375 526.329 604.27 531.745 611.655L681.098 815.292C684.889 820.461 690.666 823.813 697.035 824.541L1024.58 861.944C1029.93 862.555 1035.33 861.267 1039.83 858.304L1287.99 694.967C1294.81 690.477 1298.74 682.707 1298.31 674.551L1286.22 443.784C1285.79 435.629 1281.07 428.312 1273.81 424.559L1009.95 288.056C1005.16 285.58 999.656 284.864 994.395 286.031L672.557 357.467C666.299 358.856 660.904 362.794 657.674 368.331L530.425 586.463Z" stroke="url(#paint32_linear_3228_3167)" stroke-opacity="0.5" stroke-width="4" />
	<path opacity="0.492754" d="M513.574 566.082C508.595 573.717 508.595 583.573 513.574 591.209L650.273 800.832C653.782 806.213 659.381 809.881 665.716 810.949L986.54 865.025C991.881 865.925 997.368 864.912 1002.03 862.164L1255.02 713.177C1262.04 709.043 1266.35 701.504 1266.35 693.358L1266.35 463.932C1266.35 455.786 1262.04 448.248 1255.02 444.114L1002.03 295.127C997.368 292.378 991.881 291.365 986.54 292.265L665.716 346.341C659.381 347.409 653.782 351.077 650.273 356.458L513.574 566.082Z" stroke="url(#paint33_linear_3228_3167)" stroke-opacity="0.5" stroke-width="4" />
	<path opacity="0.507246" d="M497.791 546.252C492.464 553.595 491.951 563.383 496.481 571.243L620.316 786.092C623.53 791.67 628.935 795.644 635.217 797.051L948.488 867.2C953.799 868.39 959.361 867.657 964.183 865.131L1221.19 730.55C1228.38 726.78 1233.06 719.493 1233.48 711.378L1245.4 483.921C1245.83 475.807 1241.94 468.07 1235.18 463.569L993.651 302.861C989.119 299.846 983.664 298.535 978.257 299.163L659.37 336.182C652.975 336.924 647.185 340.312 643.405 345.523L497.791 546.252Z" stroke="url(#paint34_linear_3228_3167)" stroke-opacity="0.5" stroke-width="4" />
	<path opacity="0.521739" d="M483.033 527.027C477.376 534.062 476.357 543.755 480.428 551.812L591.231 771.121C594.14 776.879 599.333 781.15 605.544 782.894L910.469 868.474C915.737 869.953 921.359 869.505 926.327 867.211L1186.54 747.046C1193.9 743.648 1198.93 736.629 1199.77 728.569L1223.41 503.694C1224.26 495.634 1220.8 487.723 1214.31 482.87L984.763 311.229C980.381 307.952 974.974 306.345 969.514 306.696L653.46 327.009C647.022 327.423 641.054 330.521 637.011 335.548L483.033 527.027Z" stroke="url(#paint35_linear_3228_3167)" stroke-opacity="0.5" stroke-width="4" />
	<path opacity="0.536232" d="M469.252 508.46C463.284 515.171 461.768 524.743 465.37 532.97L563.02 755.968C565.613 761.89 570.579 766.447 576.702 768.524L872.533 868.856C877.742 870.622 883.412 870.464 888.513 868.409L1151.15 762.627C1158.64 759.607 1164.01 752.874 1165.27 744.89L1200.38 523.193C1201.65 515.21 1198.63 507.149 1192.43 501.96L975.342 320.198C971.124 316.667 965.781 314.764 960.282 314.834L647.925 318.839C641.46 318.921 635.329 321.721 631.033 326.552L469.252 508.46Z" stroke="url(#paint36_linear_3228_3167)" stroke-opacity="0.5" stroke-width="4" />
	<path opacity="0.550725" d="M456.401 490.597C450.139 496.971 448.136 506.395 451.264 514.766L535.683 740.683C537.951 746.752 542.674 751.583 548.69 753.988L834.731 868.355C839.865 870.408 845.567 870.543 850.793 868.734L1115.06 777.259C1122.68 774.623 1128.36 768.191 1130.04 760.306L1176.36 542.366C1178.04 534.481 1175.46 526.295 1169.58 520.788L965.361 329.734C961.323 325.956 956.059 323.759 950.533 323.546L642.704 311.683C636.23 311.433 629.951 313.926 625.411 318.548L456.401 490.597Z" stroke="url(#paint37_linear_3228_3167)" stroke-opacity="0.5" stroke-width="4" />
	<path opacity="0.565217" d="M444.426 473.483C437.891 479.508 435.412 488.759 438.059 497.244L509.217 725.313C511.151 731.512 515.614 736.604 521.506 739.333L797.108 866.989C802.153 869.325 807.874 869.756 813.211 868.2L1078.35 790.913C1086.07 788.664 1092.05 782.549 1094.13 774.785L1151.37 561.161C1153.45 553.397 1151.33 545.11 1145.77 539.303L954.795 339.803C950.95 335.786 945.781 333.299 940.244 332.8L637.737 305.552C631.27 304.969 624.859 307.147 620.085 311.548L444.426 473.483Z" stroke="url(#paint38_linear_3228_3167)" stroke-opacity="0.5" stroke-width="4" />
	<path opacity="0.57971" d="M433.275 457.16C426.487 462.824 423.545 471.877 425.708 480.449L483.614 709.907C485.206 716.217 489.397 721.557 495.147 724.603L759.713 864.771C764.654 867.388 770.378 868.116 775.816 866.819L1041.07 803.563C1048.87 801.703 1055.13 795.92 1057.61 788.297L1125.44 579.528C1127.92 571.906 1126.25 563.544 1121.04 557.457L943.622 350.368C939.984 346.123 934.925 343.347 929.39 342.561L632.963 300.45C626.52 299.535 619.991 301.392 614.994 305.561L433.275 457.16Z" stroke="url(#paint39_linear_3228_3167)" stroke-opacity="0.5" stroke-width="4" />
	<path opacity="0.594203" d="M422.893 441.665C415.871 446.957 412.481 455.789 414.158 464.42L458.866 694.512C460.11 700.914 464.014 706.487 469.606 709.844L722.592 861.722C727.412 864.615 733.126 865.643 738.652 864.611L1003.29 815.186C1011.15 813.719 1017.68 808.28 1020.54 800.819L1098.62 597.422C1101.48 589.962 1100.27 581.55 1095.41 575.204L931.819 361.394C928.403 356.929 923.469 353.87 917.95 352.795L628.319 296.381C621.918 295.134 615.287 296.664 610.079 300.589L422.893 441.665Z" stroke="url(#paint40_linear_3228_3167)" stroke-opacity="0.5" stroke-width="4" />
	<path opacity="0.608696" d="M413.222 427.032C405.988 431.943 402.165 440.531 403.355 449.192L434.962 679.173C435.852 685.648 439.456 691.44 444.872 695.099L685.787 857.862C690.473 861.027 696.161 862.356 701.764 861.594L965.079 825.764C972.973 824.69 979.749 819.607 982.99 812.329L1070.94 614.798C1074.18 607.52 1073.42 599.084 1068.94 592.499L919.37 372.843C916.187 368.169 911.394 364.831 905.906 363.467L623.746 293.342C617.403 291.765 610.688 292.962 605.279 296.634L413.222 427.032Z" stroke="url(#paint41_linear_3228_3167)" stroke-opacity="0.5" stroke-width="4" />
	<path opacity="0.623188" d="M404.203 413.292C396.779 417.814 392.54 426.135 393.244 434.8L411.889 663.934C412.42 670.465 415.711 676.458 420.936 680.411L649.343 853.216C653.879 856.648 659.526 858.277 665.193 857.789L926.495 835.284C934.407 834.603 941.409 829.887 945.014 822.811L1042.43 631.616C1046.04 624.539 1045.74 616.103 1041.64 609.301L906.256 384.676C903.32 379.804 898.683 376.193 893.24 374.541L619.184 291.328C612.915 289.424 606.131 290.285 600.536 293.693L404.203 413.292Z" stroke="url(#paint42_linear_3228_3167)" stroke-opacity="0.5" stroke-width="4" />
	<path opacity="0.637681" d="M395.778 400.47C388.186 404.597 383.547 412.631 383.769 421.27L389.629 648.841C389.798 655.405 392.765 661.585 397.782 665.822L613.3 847.81C617.672 851.502 623.263 853.431 628.982 853.222L887.606 843.735C895.517 843.445 902.723 839.107 906.681 832.251L1013.15 647.835C1017.11 640.979 1017.27 632.57 1013.56 625.573L892.465 396.855C889.788 391.798 885.321 387.92 879.938 385.98L614.572 290.33C608.395 288.104 601.56 288.624 595.79 291.76L395.778 400.47Z" stroke="url(#paint43_linear_3228_3167)" stroke-opacity="0.5" stroke-width="4" />
	<path opacity="0.652174" d="M387.886 388.59C380.146 392.316 375.127 400.044 374.872 408.63L368.165 633.933C367.969 640.512 370.602 646.86 375.396 651.37L577.697 841.672C581.891 845.616 587.412 847.845 593.169 847.917L848.478 851.111C856.368 851.21 863.758 847.257 868.055 840.639L983.142 663.422C987.44 656.804 988.045 648.445 984.745 641.278L877.984 409.34C875.576 404.11 871.295 399.973 865.986 397.747L609.853 290.338C603.783 287.792 596.914 287.969 590.983 290.824L387.886 388.59Z" stroke="url(#paint44_linear_3228_3167)" stroke-opacity="0.5" stroke-width="4" />
	<path opacity="0.666667" d="M380.465 377.671C372.6 380.991 367.221 388.394 366.494 396.9L347.477 619.253C346.914 625.826 349.202 632.325 353.759 637.097L542.573 834.831C546.574 839.021 552.009 841.547 557.792 841.904L809.177 857.41C817.026 857.894 824.579 854.334 829.201 847.972L952.444 678.342C957.066 671.98 958.118 663.698 955.232 656.383L862.803 422.092C860.677 416.703 856.595 412.315 851.374 409.804L604.97 291.334C599.024 288.475 592.136 288.308 586.058 290.874L380.465 377.671Z" stroke="url(#paint45_linear_3228_3167)" stroke-opacity="0.5" stroke-width="4" />
	<path opacity="0.681159" d="M373.453 367.727C365.485 370.639 359.768 377.7 358.576 386.099L327.541 604.838C326.612 611.386 328.547 618.017 332.851 623.038L507.963 827.322C511.758 831.748 517.092 834.569 522.887 835.212L769.768 862.633C777.557 863.498 785.25 860.338 790.182 854.248L921.107 692.568C926.039 686.478 927.53 678.296 925.065 670.858L846.914 435.072C845.08 429.537 841.212 424.906 836.093 422.115L599.865 293.302C594.059 290.136 587.171 289.623 580.959 291.893L373.453 367.727Z" stroke="url(#paint46_linear_3228_3167)" stroke-opacity="0.5" stroke-width="4" />
	<path opacity="0.695652" d="M366.789 358.771C358.74 361.272 352.705 367.976 351.058 376.241L308.334 590.726C307.039 597.227 308.612 603.972 312.65 609.229L473.9 819.176C477.475 823.83 482.693 826.942 488.487 827.874L730.316 866.785C738.025 868.026 745.837 865.27 751.062 859.468L889.179 706.072C894.404 700.269 896.328 692.212 894.289 684.675L830.312 448.239C828.78 442.574 825.139 437.709 820.137 434.641L594.485 296.219C588.835 292.753 581.963 291.894 575.632 293.861L366.789 358.771Z" stroke="url(#paint47_linear_3228_3167)" stroke-opacity="0.5" stroke-width="4" />
	<path opacity="0.710145" d="M360.41 350.809C352.303 352.9 345.972 359.23 343.882 367.338L289.83 576.952C288.17 583.387 289.375 590.225 293.134 595.705L440.417 810.43C443.758 815.301 448.846 818.7 454.626 819.922L690.883 869.877C698.494 871.487 706.403 869.139 711.904 863.638L856.711 718.831C862.212 713.33 864.559 705.421 862.95 697.81L812.995 461.553C811.773 455.774 808.374 450.686 803.502 447.344L588.777 300.061C583.297 296.303 576.459 295.098 570.025 296.757L360.41 350.809Z" stroke="url(#paint48_linear_3228_3167)" stroke-opacity="0.5" stroke-width="4" />
	<path opacity="0.724638" d="M354.255 343.846C346.111 345.526 339.508 351.471 336.986 359.395L271.999 563.55C269.979 569.897 270.81 576.809 274.277 582.497L407.541 801.12C410.637 806.199 415.58 809.881 421.332 811.393L651.532 871.921C659.027 873.892 667.011 871.955 672.77 866.769L823.751 730.826C829.51 725.64 832.271 717.902 831.094 710.242L794.96 474.976C794.057 469.098 790.912 463.797 786.185 460.188L582.69 304.801C577.396 300.758 570.608 299.209 564.084 300.555L354.255 343.846Z" stroke="url(#paint49_linear_3228_3167)" stroke-opacity="0.5" stroke-width="4" />
	<path opacity="0.73913" d="M348.261 337.881C340.102 339.152 333.251 344.7 330.311 352.417L254.814 550.551C252.436 556.791 252.888 563.757 256.052 569.637L375.301 791.286C378.139 796.56 382.921 800.52 388.632 802.322L612.324 872.933C619.686 875.257 627.722 873.732 633.722 868.874L790.35 742.039C796.35 737.18 799.512 729.636 798.769 721.952L776.21 488.468C775.634 482.507 772.755 477.006 768.187 473.134L576.174 310.407C571.08 306.09 564.361 304.2 557.762 305.228L348.261 337.881Z" stroke="url(#paint50_linear_3228_3167)" stroke-opacity="0.5" stroke-width="4" />
	<path opacity="0.753623" d="M342.369 332.911C334.216 333.777 327.141 338.917 323.798 346.403L238.243 537.984C235.513 544.097 235.582 551.096 238.432 557.153L343.721 780.968C346.288 786.425 350.897 790.656 356.553 792.748L573.319 872.934C580.53 875.601 588.597 874.489 594.817 869.97L756.561 752.456C762.781 747.937 766.332 740.608 766.023 732.926L756.747 501.991C756.505 495.965 753.905 490.274 749.508 486.146L569.184 316.848C564.303 312.266 557.668 310.038 551.011 310.745L342.369 332.911Z" stroke="url(#paint51_linear_3228_3167)" stroke-opacity="0.5" stroke-width="4" />
	<path opacity="0.768116" d="M336.518 328.928C328.393 329.392 321.118 334.117 317.389 341.35L222.254 525.877C219.179 531.842 218.862 538.853 221.388 545.071L312.823 770.204C315.109 775.833 319.528 780.328 325.117 782.709L534.574 871.946C541.618 874.947 549.694 874.246 556.116 870.076L722.434 762.068C728.855 757.897 732.78 750.805 732.904 743.149L736.576 515.505C736.674 509.431 734.365 503.565 730.153 499.187L561.673 324.087C557.02 319.251 550.486 316.689 543.786 317.072L336.518 328.928Z" stroke="url(#paint52_linear_3228_3167)" stroke-opacity="0.5" stroke-width="4" />
	<path opacity="0.782609" d="M330.649 325.922C322.572 325.99 315.123 330.291 311.025 337.252L206.814 514.255C203.4 520.053 202.697 527.055 204.889 533.416L282.626 759.039C284.62 764.825 288.837 769.578 294.345 772.246L496.146 869.997C503.007 873.321 511.07 873.028 517.672 869.216L688.02 770.866C694.623 767.054 698.907 760.218 699.459 752.614L715.705 528.974C716.149 522.87 714.141 516.841 710.127 512.221L553.601 332.087C549.187 327.008 542.772 324.117 536.044 324.174L330.649 325.922Z" stroke="url(#paint53_linear_3228_3167)" stroke-opacity="0.5" stroke-width="4" />
	<path opacity="0.797101" d="M324.705 323.878C316.696 323.557 309.098 327.429 304.65 334.096L191.888 503.14C188.145 508.752 187.054 515.724 188.904 522.211L253.149 747.515C254.84 753.445 258.841 758.447 264.255 761.4L458.088 867.116C464.752 870.751 472.78 870.863 479.543 867.417L653.371 778.847C660.134 775.401 664.762 768.84 665.738 761.313L694.144 542.36C694.938 536.245 693.242 530.067 689.439 525.214L544.926 340.808C540.766 335.499 534.484 332.284 527.744 332.014L324.705 323.878Z" stroke="url(#paint54_linear_3228_3167)" stroke-opacity="0.5" stroke-width="4" />
	<path opacity="0.811594" d="M318.628 322.779C310.708 322.076 302.986 325.514 298.209 331.871L177.442 492.555C173.379 497.961 171.901 504.881 173.401 511.475L224.405 735.674C225.784 741.733 229.555 746.977 234.862 750.211L420.452 863.336C426.904 867.269 434.875 867.782 441.778 864.709L618.538 786.01C625.44 782.937 630.393 776.67 631.788 769.244L671.903 555.627C673.05 549.52 671.677 543.209 668.097 538.13L535.613 350.208C531.717 344.681 525.585 341.148 518.849 340.551L318.628 322.779Z" stroke="url(#paint55_linear_3228_3167)" stroke-opacity="0.5" stroke-width="4" />
	<path opacity="0.826087" d="M312.366 322.605C304.553 321.529 296.733 324.53 291.647 330.558L163.439 482.516C159.067 487.698 157.204 494.545 158.348 501.228L196.408 723.561C197.465 729.734 200.994 735.21 206.179 738.723L383.287 858.693C389.513 862.91 397.408 863.818 404.428 861.123L583.57 792.357C590.591 789.662 595.851 783.705 597.656 776.404L648.996 568.741C650.5 562.661 649.458 556.231 646.113 550.936L525.627 360.243C522.006 354.511 516.039 350.669 509.323 349.743L312.366 322.605Z" stroke="url(#paint56_linear_3228_3167)" stroke-opacity="0.5" stroke-width="4" />
	<path opacity="0.84058" d="M305.864 323.331C298.178 321.891 290.285 324.455 284.913 330.139L149.843 473.039C145.173 477.98 142.928 484.733 143.711 491.485L169.167 711.22C169.893 717.492 173.166 723.19 178.219 726.977L346.639 853.224C352.627 857.713 360.425 859.007 367.542 856.695L548.518 797.892C555.636 795.58 561.183 789.949 563.389 782.798L625.438 581.667C627.299 575.633 626.598 569.1 623.5 563.599L514.937 370.867C511.601 364.944 505.815 360.8 499.134 359.548L305.864 323.331Z" stroke="url(#paint57_linear_3228_3167)" stroke-opacity="0.5" stroke-width="4" />
	<path opacity="0.855072" d="M299.073 324.931C291.53 323.137 283.591 325.264 277.955 330.589L136.617 464.14C131.663 468.821 129.04 475.458 129.456 482.261L142.688 698.697C143.076 705.051 146.081 710.96 150.988 715.018L310.553 846.971C316.291 851.716 323.971 853.39 331.163 851.463L513.43 802.624C520.622 800.697 526.437 795.408 529.033 788.429L601.245 594.372C603.465 588.405 603.113 581.785 600.272 576.087L503.514 382.033C500.472 375.933 494.882 371.497 488.252 369.92L299.073 324.931Z" stroke="url(#paint58_linear_3228_3167)" stroke-opacity="0.5" stroke-width="4" />
	<path opacity="0.869565" d="M291.944 327.374C284.562 325.238 276.601 326.93 270.726 331.884L123.723 455.829C118.499 460.234 115.503 466.734 115.549 473.567L116.977 686.034C117.02 692.455 119.745 698.565 124.492 702.887L275.07 839.976C280.547 844.962 288.09 847.006 295.335 845.466L478.354 806.564C485.599 805.024 491.659 800.089 494.635 793.306L576.435 606.824C579.014 600.944 579.018 594.254 576.446 588.371L491.332 393.692C488.594 387.431 483.214 382.711 476.65 380.812L291.944 327.374Z" stroke="url(#paint59_linear_3228_3167)" stroke-opacity="0.5" stroke-width="4" />
	<path opacity="0.884058" d="M284.429 330.629C277.225 328.164 269.267 329.424 263.177 333.995L111.124 448.115C105.644 452.228 102.283 458.57 101.957 465.414L92.0346 673.278C91.7258 679.747 94.1586 686.047 98.7355 690.629L240.226 832.284C245.432 837.496 252.821 839.899 260.097 838.747L443.335 809.725C450.612 808.572 456.896 804.004 460.236 797.438L551.028 618.993C553.965 613.22 554.332 606.478 552.04 600.421L478.369 405.796C475.944 399.388 470.788 394.395 464.305 392.177L284.429 330.629Z" stroke="url(#paint60_linear_3228_3167)" stroke-opacity="0.5" stroke-width="4" />
	<path opacity="0.898551" d="M276.487 334.661C269.475 331.88 261.545 332.713 255.265 336.892L98.7834 441.006C93.0638 444.812 89.3448 450.975 88.6439 457.809L67.8612 660.473C67.1947 666.973 69.3243 673.45 73.7183 678.286L206.058 823.942C210.985 829.365 218.2 832.115 225.485 831.35L408.419 812.123C415.705 811.357 422.19 807.166 425.882 800.838L525.046 630.849C528.339 625.205 529.075 618.427 527.072 612.208L464.607 418.293C462.5 411.754 457.581 406.499 451.195 403.966L276.487 334.661Z" stroke="url(#paint61_linear_3228_3167)" stroke-opacity="0.5" stroke-width="4" />
	<path opacity="0.913043" d="M268.074 339.433C261.27 336.349 253.392 336.762 246.948 340.54L86.6625 434.506C80.7201 437.989 76.652 443.953 75.5765 450.757L44.4535 647.662C43.424 654.175 45.2394 660.817 49.4387 665.901L172.597 815C177.236 820.615 184.26 823.702 191.534 823.321L373.649 813.776C380.923 813.395 387.586 809.591 391.612 803.522L498.511 642.366C502.156 636.871 503.267 630.076 501.563 623.706L450.028 431.132C448.247 424.478 443.578 418.973 437.304 416.129L268.074 339.433Z" stroke="url(#paint62_linear_3228_3167)" stroke-opacity="0.5" stroke-width="4" />
	<path opacity="0.927536" d="M259.154 344.905C252.571 341.534 244.769 341.534 238.186 344.905L237.275 343.125L238.186 344.905L74.7247 428.617C68.5773 431.765 64.1701 437.509 62.7208 444.262L21.806 634.89C20.4093 641.398 21.9001 648.191 25.8931 653.516L139.872 805.506C144.216 811.298 151.033 814.707 158.273 814.707L339.067 814.707C346.307 814.707 353.124 811.298 357.468 805.506L471.447 653.516C475.44 648.191 476.931 641.398 475.534 634.89L434.62 444.262C433.17 437.509 428.763 431.765 422.616 428.617L259.154 344.905Z" stroke="url(#paint63_linear_3228_3167)" stroke-opacity="0.5" stroke-width="4" />
	<path opacity="0.942029" d="M249.69 351.036C243.341 347.393 235.637 346.99 228.943 349.949L62.9328 423.339C56.599 426.139 51.864 431.644 50.0424 438.325L-0.0897234 622.2C-1.85725 628.683 -0.701321 635.615 3.07425 641.173L107.908 795.514C111.951 801.465 118.546 805.183 125.73 805.559L304.712 814.939C311.897 815.316 318.844 812.308 323.487 806.812L443.88 664.275C448.216 659.141 450.09 652.369 449.01 645.736L418.372 457.629C417.259 450.794 413.125 444.824 407.119 441.377L249.69 351.036Z" stroke="url(#paint64_linear_3228_3167)" stroke-opacity="0.5" stroke-width="4" />
	<path opacity="0.956522" d="M239.649 357.784C233.546 353.885 225.963 353.088 219.183 355.633L51.2506 418.671C44.7499 421.111 39.6995 426.358 37.5085 432.947L-21.2437 609.634C-23.3849 616.073 -22.5733 623.129 -19.0262 628.914L76.7267 785.074C80.4634 791.168 86.8209 795.178 93.9301 795.926L270.623 814.497C277.732 815.244 284.785 812.643 289.706 807.459L415.835 674.619C420.507 669.699 422.768 662.965 422.012 656.222L401.279 471.18C400.506 464.28 396.657 458.098 390.805 454.36L239.649 357.784Z" stroke="url(#paint65_linear_3228_3167)" stroke-opacity="0.5" stroke-width="4" />
	<path opacity="0.971014" d="M229.002 365.104C223.156 360.965 215.715 359.787 208.876 361.916L39.6425 414.609C32.995 416.678 27.6428 421.648 25.0865 428.124L-41.6688 597.233C-44.1856 603.609 -43.7276 610.775 -40.4196 616.778L46.3467 774.242C49.7733 780.461 55.8801 784.748 62.8929 785.859L236.835 813.408C243.848 814.519 250.98 812.329 256.161 807.473L387.34 684.529C392.341 679.841 394.991 673.168 394.567 666.326L383.337 484.865C382.907 477.916 379.353 471.536 373.67 467.513L229.002 365.104Z" stroke="url(#paint66_linear_3228_3167)" stroke-opacity="0.5" stroke-width="4" />
	<path opacity="0.985507" d="M217.723 372.949C212.142 368.588 204.864 367.041 197.993 368.756L28.0734 411.145C21.3001 412.835 15.6608 417.509 12.7442 423.852L-61.3799 585.039C-64.2734 591.331 -64.1776 598.592 -61.1191 604.806L16.7829 763.07C19.8967 769.396 25.7399 773.944 32.6365 775.41L203.382 811.703C210.278 813.169 217.466 811.391 222.884 806.878L358.423 693.982C363.744 689.55 366.785 682.956 366.701 676.03L364.546 498.63C364.461 491.649 361.211 485.085 355.71 480.787L217.723 372.949Z" stroke="url(#paint67_linear_3228_3167)" stroke-opacity="0.5" stroke-width="4" />
	<path d="M205.787 381.273C200.481 376.708 193.385 374.806 186.508 376.108L16.509 408.273C9.63154 409.574 3.72095 413.937 0.450318 420.125L-80.3943 573.09C-83.6649 579.279 -83.9396 586.62 -81.1406 593.035L-11.9531 751.614C-9.15412 758.03 -3.58602 762.822 3.17496 764.633L170.295 809.413C177.056 811.224 184.274 809.859 189.906 805.702L329.113 702.962C334.745 698.806 338.178 692.311 338.439 685.317L344.909 512.422C345.17 505.428 342.233 498.695 336.927 494.129L205.787 381.273Z" stroke="url(#paint68_linear_3228_3167)" stroke-opacity="0.5" stroke-width="4" />
	<defs>
		<linearGradient id="paint0_linear_3228_3167" x1="1717.1" y1="1127.8" x2="1532.71" y2="-36.4358" gradientUnits="userSpaceOnUse">
			<stop stop-color="#FF1CF7" />
			<stop offset="1" stop-color="#00F0FF" />
		</linearGradient>
		<linearGradient id="paint1_linear_3228_3167" x1="1665.19" y1="1127.05" x2="1543.07" y2="-34.8875" gradientUnits="userSpaceOnUse">
			<stop stop-color="#FF1CF7" />
			<stop offset="1" stop-color="#00F0FF" />
		</linearGradient>
		<linearGradient id="paint2_linear_3228_3167" x1="1613.65" y1="1124.72" x2="1553.04" y2="-31.63" gradientUnits="userSpaceOnUse">
			<stop stop-color="#FF1CF7" />
			<stop offset="1" stop-color="#00F0FF" />
		</linearGradient>
		<linearGradient id="paint3_linear_3228_3167" x1="1562.54" y1="1120.83" x2="1562.54" y2="-26.7005" gradientUnits="userSpaceOnUse">
			<stop stop-color="#FF1CF7" />
			<stop offset="1" stop-color="#00F0FF" />
		</linearGradient>
		<linearGradient id="paint4_linear_3228_3167" x1="1511.96" y1="1115.43" x2="1571.48" y2="-20.1421" gradientUnits="userSpaceOnUse">
			<stop stop-color="#FF1CF7" />
			<stop offset="1" stop-color="#00F0FF" />
		</linearGradient>
		<linearGradient id="paint5_linear_3228_3167" x1="1461.99" y1="1108.55" x2="1579.76" y2="-12.0006" gradientUnits="userSpaceOnUse">
			<stop stop-color="#FF1CF7" />
			<stop offset="1" stop-color="#00F0FF" />
		</linearGradient>
		<linearGradient id="paint6_linear_3228_3167" x1="1412.69" y1="1100.25" x2="1587.32" y2="-2.32681" gradientUnits="userSpaceOnUse">
			<stop stop-color="#FF1CF7" />
			<stop offset="1" stop-color="#00F0FF" />
		</linearGradient>
		<linearGradient id="paint7_linear_3228_3167" x1="1364.14" y1="1090.58" x2="1594.07" y2="8.8247" gradientUnits="userSpaceOnUse">
			<stop stop-color="#FF1CF7" />
			<stop offset="1" stop-color="#00F0FF" />
		</linearGradient>
		<linearGradient id="paint8_linear_3228_3167" x1="1316.41" y1="1079.58" x2="1599.95" y2="21.3945" gradientUnits="userSpaceOnUse">
			<stop stop-color="#FF1CF7" />
			<stop offset="1" stop-color="#00F0FF" />
		</linearGradient>
		<linearGradient id="paint9_linear_3228_3167" x1="1269.56" y1="1067.32" x2="1604.87" y2="35.3213" gradientUnits="userSpaceOnUse">
			<stop stop-color="#FF1CF7" />
			<stop offset="1" stop-color="#00F0FF" />
		</linearGradient>
		<linearGradient id="paint10_linear_3228_3167" x1="1223.65" y1="1053.86" x2="1608.79" y2="50.5388" gradientUnits="userSpaceOnUse">
			<stop stop-color="#FF1CF7" />
			<stop offset="1" stop-color="#00F0FF" />
		</linearGradient>
		<linearGradient id="paint11_linear_3228_3167" x1="1178.74" y1="1039.27" x2="1611.63" y2="66.979" gradientUnits="userSpaceOnUse">
			<stop stop-color="#FF1CF7" />
			<stop offset="1" stop-color="#00F0FF" />
		</linearGradient>
		<linearGradient id="paint12_linear_3228_3167" x1="1134.88" y1="1023.6" x2="1613.34" y2="84.5705" gradientUnits="userSpaceOnUse">
			<stop stop-color="#FF1CF7" />
			<stop offset="1" stop-color="#00F0FF" />
		</linearGradient>
		<linearGradient id="paint13_linear_3228_3167" x1="1092.12" y1="1006.93" x2="1613.87" y2="103.239" gradientUnits="userSpaceOnUse">
			<stop stop-color="#FF1CF7" />
			<stop offset="1" stop-color="#00F0FF" />
		</linearGradient>
		<linearGradient id="paint14_linear_3228_3167" x1="1050.5" y1="989.333" x2="1613.17" y2="122.909" gradientUnits="userSpaceOnUse">
			<stop stop-color="#FF1CF7" />
			<stop offset="1" stop-color="#00F0FF" />
		</linearGradient>
		<linearGradient id="paint15_linear_3228_3167" x1="1010.07" y1="970.875" x2="1611.19" y2="143.502" gradientUnits="userSpaceOnUse">
			<stop stop-color="#FF1CF7" />
			<stop offset="1" stop-color="#00F0FF" />
		</linearGradient>
		<linearGradient id="paint16_linear_3228_3167" x1="970.857" y1="951.631" x2="1607.91" y2="164.938" gradientUnits="userSpaceOnUse">
			<stop stop-color="#FF1CF7" />
			<stop offset="1" stop-color="#00F0FF" />
		</linearGradient>
		<linearGradient id="paint17_linear_3228_3167" x1="932.893" y1="931.679" x2="1603.28" y2="187.137" gradientUnits="userSpaceOnUse">
			<stop stop-color="#FF1CF7" />
			<stop offset="1" stop-color="#00F0FF" />
		</linearGradient>
		<linearGradient id="paint18_linear_3228_3167" x1="896.204" y1="911.095" x2="1597.28" y2="210.015" gradientUnits="userSpaceOnUse">
			<stop stop-color="#FF1CF7" />
			<stop offset="1" stop-color="#00F0FF" />
		</linearGradient>
		<linearGradient id="paint19_linear_3228_3167" x1="860.812" y1="889.955" x2="1589.89" y2="233.489" gradientUnits="userSpaceOnUse">
			<stop stop-color="#FF1CF7" />
			<stop offset="1" stop-color="#00F0FF" />
		</linearGradient>
		<linearGradient id="paint20_linear_3228_3167" x1="826.735" y1="868.339" x2="1581.09" y2="257.477" gradientUnits="userSpaceOnUse">
			<stop stop-color="#FF1CF7" />
			<stop offset="1" stop-color="#00F0FF" />
		</linearGradient>
		<linearGradient id="paint21_linear_3228_3167" x1="793.985" y1="846.324" x2="1570.86" y2="281.893" gradientUnits="userSpaceOnUse">
			<stop stop-color="#FF1CF7" />
			<stop offset="1" stop-color="#00F0FF" />
		</linearGradient>
		<linearGradient id="paint22_linear_3228_3167" x1="762.569" y1="823.987" x2="1559.19" y2="306.655" gradientUnits="userSpaceOnUse">
			<stop stop-color="#FF1CF7" />
			<stop offset="1" stop-color="#00F0FF" />
		</linearGradient>
		<linearGradient id="paint23_linear_3228_3167" x1="732.491" y1="801.407" x2="1546.09" y2="331.678" gradientUnits="userSpaceOnUse">
			<stop stop-color="#FF1CF7" />
			<stop offset="1" stop-color="#00F0FF" />
		</linearGradient>
		<linearGradient id="paint24_linear_3228_3167" x1="703.75" y1="778.662" x2="1531.54" y2="356.879" gradientUnits="userSpaceOnUse">
			<stop stop-color="#FF1CF7" />
			<stop offset="1" stop-color="#00F0FF" />
		</linearGradient>
		<linearGradient id="paint25_linear_3228_3167" x1="676.341" y1="755.826" x2="1515.57" y2="382.177" gradientUnits="userSpaceOnUse">
			<stop stop-color="#FF1CF7" />
			<stop offset="1" stop-color="#00F0FF" />
		</linearGradient>
		<linearGradient id="paint26_linear_3228_3167" x1="650.254" y1="732.977" x2="1498.18" y2="407.49" gradientUnits="userSpaceOnUse">
			<stop stop-color="#FF1CF7" />
			<stop offset="1" stop-color="#00F0FF" />
		</linearGradient>
		<linearGradient id="paint27_linear_3228_3167" x1="625.475" y1="710.187" x2="1479.38" y2="432.739" gradientUnits="userSpaceOnUse">
			<stop stop-color="#FF1CF7" />
			<stop offset="1" stop-color="#00F0FF" />
		</linearGradient>
		<linearGradient id="paint28_linear_3228_3167" x1="601.986" y1="687.531" x2="1459.19" y2="457.844" gradientUnits="userSpaceOnUse">
			<stop stop-color="#FF1CF7" />
			<stop offset="1" stop-color="#00F0FF" />
		</linearGradient>
		<linearGradient id="paint29_linear_3228_3167" x1="579.766" y1="665.077" x2="1437.64" y2="482.731" gradientUnits="userSpaceOnUse">
			<stop stop-color="#FF1CF7" />
			<stop offset="1" stop-color="#00F0FF" />
		</linearGradient>
		<linearGradient id="paint30_linear_3228_3167" x1="558.788" y1="642.897" x2="1414.75" y2="507.325" gradientUnits="userSpaceOnUse">
			<stop stop-color="#FF1CF7" />
			<stop offset="1" stop-color="#00F0FF" />
		</linearGradient>
		<linearGradient id="paint31_linear_3228_3167" x1="539.022" y1="621.055" x2="1390.56" y2="531.555" gradientUnits="userSpaceOnUse">
			<stop stop-color="#FF1CF7" />
			<stop offset="1" stop-color="#00F0FF" />
		</linearGradient>
		<linearGradient id="paint32_linear_3228_3167" x1="520.436" y1="599.617" x2="1365.1" y2="555.35" gradientUnits="userSpaceOnUse">
			<stop stop-color="#FF1CF7" />
			<stop offset="1" stop-color="#00F0FF" />
		</linearGradient>
		<linearGradient id="paint33_linear_3228_3167" x1="502.994" y1="578.645" x2="1338.41" y2="578.645" gradientUnits="userSpaceOnUse">
			<stop stop-color="#FF1CF7" />
			<stop offset="1" stop-color="#00F0FF" />
		</linearGradient>
		<linearGradient id="paint34_linear_3228_3167" x1="486.654" y1="558.198" x2="1310.54" y2="601.376" gradientUnits="userSpaceOnUse">
			<stop stop-color="#FF1CF7" />
			<stop offset="1" stop-color="#00F0FF" />
		</linearGradient>
		<linearGradient id="paint35_linear_3228_3167" x1="471.376" y1="538.332" x2="1281.53" y2="623.482" gradientUnits="userSpaceOnUse">
			<stop stop-color="#FF1CF7" />
			<stop offset="1" stop-color="#00F0FF" />
		</linearGradient>
		<linearGradient id="paint36_linear_3228_3167" x1="457.113" y1="519.1" x2="1251.42" y2="644.906" gradientUnits="userSpaceOnUse">
			<stop stop-color="#FF1CF7" />
			<stop offset="1" stop-color="#00F0FF" />
		</linearGradient>
		<linearGradient id="paint37_linear_3228_3167" x1="443.817" y1="500.552" x2="1220.28" y2="665.594" gradientUnits="userSpaceOnUse">
			<stop stop-color="#FF1CF7" />
			<stop offset="1" stop-color="#00F0FF" />
		</linearGradient>
		<linearGradient id="paint38_linear_3228_3167" x1="431.438" y1="482.737" x2="1188.15" y2="685.496" gradientUnits="userSpaceOnUse">
			<stop stop-color="#FF1CF7" />
			<stop offset="1" stop-color="#00F0FF" />
		</linearGradient>
		<linearGradient id="paint39_linear_3228_3167" x1="419.922" y1="465.695" x2="1155.09" y2="704.565" gradientUnits="userSpaceOnUse">
			<stop stop-color="#FF1CF7" />
			<stop offset="1" stop-color="#00F0FF" />
		</linearGradient>
		<linearGradient id="paint40_linear_3228_3167" x1="409.216" y1="449.469" x2="1121.16" y2="722.759" gradientUnits="userSpaceOnUse">
			<stop stop-color="#FF1CF7" />
			<stop offset="1" stop-color="#00F0FF" />
		</linearGradient>
		<linearGradient id="paint41_linear_3228_3167" x1="399.261" y1="434.093" x2="1086.42" y2="740.037" gradientUnits="userSpaceOnUse">
			<stop stop-color="#FF1CF7" />
			<stop offset="1" stop-color="#00F0FF" />
		</linearGradient>
		<linearGradient id="paint42_linear_3228_3167" x1="390.001" y1="419.601" x2="1050.94" y2="756.366" gradientUnits="userSpaceOnUse">
			<stop stop-color="#FF1CF7" />
			<stop offset="1" stop-color="#00F0FF" />
		</linearGradient>
		<linearGradient id="paint43_linear_3228_3167" x1="381.376" y1="406.022" x2="1014.77" y2="771.714" gradientUnits="userSpaceOnUse">
			<stop stop-color="#FF1CF7" />
			<stop offset="1" stop-color="#00F0FF" />
		</linearGradient>
		<linearGradient id="paint44_linear_3228_3167" x1="373.325" y1="393.38" x2="977.989" y2="786.054" gradientUnits="userSpaceOnUse">
			<stop stop-color="#FF1CF7" />
			<stop offset="1" stop-color="#00F0FF" />
		</linearGradient>
		<linearGradient id="paint45_linear_3228_3167" x1="365.787" y1="381.697" x2="940.655" y2="799.363" gradientUnits="userSpaceOnUse">
			<stop stop-color="#FF1CF7" />
			<stop offset="1" stop-color="#00F0FF" />
		</linearGradient>
		<linearGradient id="paint46_linear_3228_3167" x1="358.7" y1="370.99" x2="902.836" y2="811.623" gradientUnits="userSpaceOnUse">
			<stop stop-color="#FF1CF7" />
			<stop offset="1" stop-color="#00F0FF" />
		</linearGradient>
		<linearGradient id="paint47_linear_3228_3167" x1="352.001" y1="361.273" x2="864.599" y2="822.818" gradientUnits="userSpaceOnUse">
			<stop stop-color="#FF1CF7" />
			<stop offset="1" stop-color="#00F0FF" />
		</linearGradient>
		<linearGradient id="paint48_linear_3228_3167" x1="345.628" y1="352.555" x2="826.012" y2="832.939" gradientUnits="userSpaceOnUse">
			<stop stop-color="#FF1CF7" />
			<stop offset="1" stop-color="#00F0FF" />
		</linearGradient>
		<linearGradient id="paint49_linear_3228_3167" x1="339.519" y1="344.844" x2="787.141" y2="841.979" gradientUnits="userSpaceOnUse">
			<stop stop-color="#FF1CF7" />
			<stop offset="1" stop-color="#00F0FF" />
		</linearGradient>
		<linearGradient id="paint50_linear_3228_3167" x1="333.61" y1="338.14" x2="748.054" y2="849.935" gradientUnits="userSpaceOnUse">
			<stop stop-color="#FF1CF7" />
			<stop offset="1" stop-color="#00F0FF" />
		</linearGradient>
		<linearGradient id="paint51_linear_3228_3167" x1="327.842" y1="332.443" x2="708.817" y2="856.81" gradientUnits="userSpaceOnUse">
			<stop stop-color="#FF1CF7" />
			<stop offset="1" stop-color="#00F0FF" />
		</linearGradient>
		<linearGradient id="paint52_linear_3228_3167" x1="322.152" y1="327.746" x2="669.496" y2="862.608" gradientUnits="userSpaceOnUse">
			<stop stop-color="#FF1CF7" />
			<stop offset="1" stop-color="#00F0FF" />
		</linearGradient>
		<linearGradient id="paint53_linear_3228_3167" x1="316.481" y1="324.042" x2="630.154" y2="867.34" gradientUnits="userSpaceOnUse">
			<stop stop-color="#FF1CF7" />
			<stop offset="1" stop-color="#00F0FF" />
		</linearGradient>
		<linearGradient id="paint54_linear_3228_3167" x1="310.77" y1="321.318" x2="590.856" y2="871.018" gradientUnits="userSpaceOnUse">
			<stop stop-color="#FF1CF7" />
			<stop offset="1" stop-color="#00F0FF" />
		</linearGradient>
		<linearGradient id="paint55_linear_3228_3167" x1="304.961" y1="319.558" x2="551.662" y2="873.659" gradientUnits="userSpaceOnUse">
			<stop stop-color="#FF1CF7" />
			<stop offset="1" stop-color="#00F0FF" />
		</linearGradient>
		<linearGradient id="paint56_linear_3228_3167" x1="298.998" y1="318.744" x2="512.634" y2="875.284" gradientUnits="userSpaceOnUse">
			<stop stop-color="#FF1CF7" />
			<stop offset="1" stop-color="#00F0FF" />
		</linearGradient>
		<linearGradient id="paint57_linear_3228_3167" x1="292.828" y1="318.853" x2="473.829" y2="875.917" gradientUnits="userSpaceOnUse">
			<stop stop-color="#FF1CF7" />
			<stop offset="1" stop-color="#00F0FF" />
		</linearGradient>
		<linearGradient id="paint58_linear_3228_3167" x1="286.398" y1="319.86" x2="435.303" y2="875.584" gradientUnits="userSpaceOnUse">
			<stop stop-color="#FF1CF7" />
			<stop offset="1" stop-color="#00F0FF" />
		</linearGradient>
		<linearGradient id="paint59_linear_3228_3167" x1="279.657" y1="321.737" x2="397.111" y2="874.316" gradientUnits="userSpaceOnUse">
			<stop stop-color="#FF1CF7" />
			<stop offset="1" stop-color="#00F0FF" />
		</linearGradient>
		<linearGradient id="paint60_linear_3228_3167" x1="272.558" y1="324.453" x2="359.304" y2="872.146" gradientUnits="userSpaceOnUse">
			<stop stop-color="#FF1CF7" />
			<stop offset="1" stop-color="#00F0FF" />
		</linearGradient>
		<linearGradient id="paint61_linear_3228_3167" x1="265.056" y1="327.975" x2="321.932" y2="869.11" gradientUnits="userSpaceOnUse">
			<stop stop-color="#FF1CF7" />
			<stop offset="1" stop-color="#00F0FF" />
		</linearGradient>
		<linearGradient id="paint62_linear_3228_3167" x1="257.107" y1="332.266" x2="285.039" y2="865.247" gradientUnits="userSpaceOnUse">
			<stop stop-color="#FF1CF7" />
			<stop offset="1" stop-color="#00F0FF" />
		</linearGradient>
		<linearGradient id="paint63_linear_3228_3167" x1="248.67" y1="337.289" x2="248.67" y2="860.597" gradientUnits="userSpaceOnUse">
			<stop stop-color="#FF1CF7" />
			<stop offset="1" stop-color="#00F0FF" />
		</linearGradient>
		<linearGradient id="paint64_linear_3228_3167" x1="239.709" y1="343.003" x2="212.865" y2="855.205" gradientUnits="userSpaceOnUse">
			<stop stop-color="#FF1CF7" />
			<stop offset="1" stop-color="#00F0FF" />
		</linearGradient>
		<linearGradient id="paint65_linear_3228_3167" x1="230.188" y1="349.366" x2="177.662" y2="849.114" gradientUnits="userSpaceOnUse">
			<stop stop-color="#FF1CF7" />
			<stop offset="1" stop-color="#00F0FF" />
		</linearGradient>
		<linearGradient id="paint66_linear_3228_3167" x1="220.076" y1="356.334" x2="143.095" y2="842.373" gradientUnits="userSpaceOnUse">
			<stop stop-color="#FF1CF7" />
			<stop offset="1" stop-color="#00F0FF" />
		</linearGradient>
		<linearGradient id="paint67_linear_3228_3167" x1="209.343" y1="363.863" x2="109.194" y2="835.03" gradientUnits="userSpaceOnUse">
			<stop stop-color="#FF1CF7" />
			<stop offset="1" stop-color="#00F0FF" />
		</linearGradient>
		<linearGradient id="paint68_linear_3228_3167" x1="197.966" y1="371.904" x2="75.9869" y2="827.135" gradientUnits="userSpaceOnUse">
			<stop stop-color="#FF1CF7" />
			<stop offset="1" stop-color="#00F0FF" />
		</linearGradient>
	</defs>
</svg>
