<svg width="1637" height="166" viewBox="0 0 1637 166" fill="none" xmlns="http://www.w3.org/2000/svg">
	<path d="M102.96 200.82C39.9307 200.82 0.91274 157.709 0.91274 100.683C0.91274 43.9294 39.9307 0.818618 102.96 0.818618C158.076 0.818618 194.638 30.5596 200.368 78.8546H149.345C145.252 58.1178 127.517 45.8394 103.233 45.8394C73.4917 45.8394 52.2091 62.7563 52.2091 100.683C52.2091 138.882 73.4917 155.799 103.233 155.799C127.517 155.799 145.252 143.248 149.345 122.511H200.368C194.638 171.079 158.076 200.82 102.96 200.82ZM222.785 197V4.63856H296.455C349.116 4.63856 403.687 18.0084 403.687 100.683C403.687 183.63 349.116 197 296.455 197H222.785ZM272.444 153.344H296.455C329.471 153.344 354.027 152.252 354.027 100.683C354.027 49.1136 329.198 48.0222 296.455 48.0222H272.444V153.344ZM452.534 197C436.435 197 427.158 188.542 427.158 172.17V4.63856H476.818V153.344H569.315V197H452.534ZM654.242 4.63856H827.504V48.0222H765.566V197H716.18V48.0222H654.242V4.63856ZM830.93 100.683C830.93 43.9294 869.402 0.818618 932.158 0.818618C994.642 0.818618 1032.84 43.9294 1032.84 100.683C1032.84 157.709 994.642 200.82 932.158 200.82C869.402 200.82 830.93 157.709 830.93 100.683ZM882.226 100.683C882.226 135.608 898.87 155.799 932.158 155.799C965.446 155.799 981.817 135.608 981.817 100.683C981.817 65.7577 965.173 45.8394 932.158 45.8394C898.87 45.8394 882.226 66.0305 882.226 100.683ZM1056.27 197V4.63856H1105.93V78.3089H1116.57L1179.05 4.63856H1238.8L1159.13 96.8629L1240.71 197H1177.96L1116.02 116.781H1105.93V197H1056.27ZM1258.24 197V4.63856H1411.31V48.0222H1308.17V80.2189H1397.67V121.147H1308.17V153.616H1411.31V197H1258.24ZM1439.43 197V4.63856H1536.84L1584.32 184.722H1596.6L1587.05 154.435V4.63856H1636.71V197H1539.3L1491.82 16.917H1479.54L1489.09 47.2036V197H1439.43Z" fill="white" />
</svg>
