<svg width="49" height="48" viewBox="0 0 49 48" fill="none" xmlns="http://www.w3.org/2000/svg">
	<g clip-path="url(#clip0_177_407)">
		<path d="M40.0763 6.17594C35.5562 5.36591 31.3936 2.89742 29.3147 1.49814C27.9564 0.583822 26.3767 0.100525 24.7462 0.100525C23.1157 0.100525 21.536 0.583822 20.1778 1.49814C18.0988 2.89742 13.9363 5.366 9.41626 6.17604C6.73921 6.6557 4.79614 8.972 4.79614 11.6834V22.9326C4.79614 26.6489 5.8358 30.2716 7.88632 33.7C9.49044 36.3822 11.7132 38.9457 14.4926 41.3192C19.1659 45.3102 23.7935 47.3913 23.9882 47.4779L24.7462 47.8152L25.5044 47.4779C25.6991 47.3913 30.3267 45.3102 35 41.3192C37.7793 38.9457 40.002 36.3822 41.6062 33.7C43.6567 30.2715 44.6964 26.6489 44.6964 22.9326V11.6834C44.6964 8.97191 42.7533 6.6556 40.0763 6.17594ZM40.9672 22.9325C40.9672 28.4729 38.1684 33.6847 32.6482 38.4234C29.4394 41.178 26.1815 42.9734 24.7463 43.7021C21.4472 42.0259 8.52506 34.7057 8.52506 22.9326V11.6834C8.52506 10.7798 9.17648 10.0073 10.074 9.84643C15.2665 8.9159 19.9378 6.1546 22.26 4.59157C23.0006 4.09309 23.8604 3.82954 24.7462 3.82954C25.632 3.82954 26.4917 4.09309 27.2323 4.59167C29.5546 6.15469 34.2257 8.91599 39.4183 9.84662C40.3157 10.0075 40.9672 10.7799 40.9672 11.6835V22.9325Z" fill="white" />
		<path d="M21.8584 27.5394L15.4859 21.5734L12.9373 24.2956L22.0988 32.8727L36.6719 16.5309L33.8887 14.049L21.8584 27.5394Z" fill="white" />
	</g>
	<defs>
		<clipPath id="clip0_177_407">
			<rect width="47.7146" height="47.7147" fill="white" transform="translate(0.88916 0.100586)" />
		</clipPath>
	</defs>
</svg>
