<svg width="53" height="53" viewBox="0 0 53 53" fill="none" xmlns="http://www.w3.org/2000/svg">
	<path d="M14.3672 25.2322C15.3986 25.2322 16.3514 24.8901 17.119 24.314L19.7907 26.0951L15.1311 34.4825C14.8787 34.4396 14.6232 34.4178 14.3672 34.4175C11.8346 34.4175 9.77417 36.478 9.77417 39.0106C9.77417 41.5431 11.8346 43.6032 14.3672 43.6032C16.8993 43.6032 18.9599 41.5432 18.9599 39.0106C18.9599 37.846 18.5233 36.7822 17.8068 35.9717L22.3468 27.7991L28.2864 31.7586C28.1927 32.1272 28.1454 32.5061 28.1455 32.8865C28.1455 35.4191 30.2061 37.4795 32.7383 37.4795C35.2708 37.4795 37.3314 35.4191 37.3314 32.8865C37.3314 31.7231 36.8951 30.6597 36.1795 29.8495L41.1673 20.9039L43.6966 22.5772C43.6038 22.9445 43.557 23.3219 43.5571 23.7007C43.5571 26.2334 45.6176 28.2938 48.1502 28.2938C50.6824 28.2938 52.7428 26.2334 52.7428 23.7007C52.7428 21.1681 50.6823 19.1081 48.1502 19.1081C47.1558 19.1069 46.1882 19.4303 45.3943 20.0291L42.6628 18.2221L47.3839 9.75526C47.6331 9.79711 47.8886 9.82028 48.1502 9.82028C50.6824 9.82028 52.7428 7.75983 52.7428 5.22721C52.7428 2.695 50.6824 0.634552 48.1502 0.634552C45.6176 0.634552 43.5571 2.695 43.5571 5.22721C43.5571 6.39099 43.9929 7.45434 44.709 8.26456L40.1016 16.5277L34.1298 12.5769C34.2226 12.2096 34.2694 11.8322 34.2693 11.4534C34.2693 8.92086 32.2092 6.8603 29.6767 6.8603C27.1441 6.8603 25.0836 8.92086 25.0836 11.4534C25.0836 12.6176 25.5201 13.6817 26.237 14.4924L21.2827 23.4097L18.8191 21.7671C18.9128 21.3984 18.9601 21.0195 18.9599 20.6392C18.9599 18.1066 16.8993 16.0461 14.3672 16.0461C11.8346 16.0461 9.77417 18.1066 9.77417 20.6392C9.77417 23.1713 11.8346 25.2322 14.3672 25.2322ZM14.3672 40.5416C13.5227 40.5416 12.8362 39.8547 12.8362 39.0106C12.8362 38.1665 13.5227 37.4795 14.3672 37.4795C15.2113 37.4795 15.8979 38.1665 15.8979 39.0106C15.8979 39.8547 15.2112 40.5416 14.3672 40.5416ZM48.1502 22.1701C48.9943 22.1701 49.6808 22.857 49.6808 23.7011C49.6808 24.5453 48.9942 25.2322 48.1502 25.2322C47.3057 25.2322 46.6192 24.5453 46.6192 23.7011C46.6192 22.857 47.3057 22.1701 48.1502 22.1701ZM48.1502 3.6966C48.9943 3.6966 49.6808 4.38352 49.6808 5.22762C49.6808 6.07172 48.9942 6.75864 48.1502 6.75864C47.3057 6.75864 46.6192 6.07172 46.6192 5.22762C46.6192 4.38352 47.3057 3.6966 48.1502 3.6966ZM32.7383 34.4179C31.8942 34.4179 31.2077 33.731 31.2077 32.8869C31.2077 32.0425 31.8942 31.3559 32.7383 31.3559C33.5827 31.3559 34.2693 32.0425 34.2693 32.8869C34.2693 33.731 33.5827 34.4179 32.7383 34.4179ZM29.6767 9.92235C30.5208 9.92235 31.2077 10.6093 31.2077 11.4534C31.2077 12.2979 30.5208 12.9844 29.6767 12.9844C28.8321 12.9844 28.1456 12.2979 28.1456 11.4534C28.1456 10.6093 28.8321 9.92235 29.6767 9.92235ZM28.9123 15.9814C29.5263 16.0863 30.1554 16.0644 30.7607 15.9171C31.366 15.7699 31.9347 15.5003 32.432 15.1251L38.6064 19.2098L33.5046 28.3592C33.2515 28.316 32.9951 28.2942 32.7383 28.2939C31.7068 28.2939 30.7539 28.6358 29.9864 29.212L23.8389 25.1138L28.9123 15.9814ZM14.3672 19.1081C15.2113 19.1081 15.8979 19.795 15.8979 20.6391C15.8979 21.4832 15.2112 22.1701 14.3672 22.1701C13.5227 22.1701 12.8362 21.4832 12.8362 20.6391C12.8362 19.795 13.5227 19.1081 14.3672 19.1081Z" fill="white" />
	<path d="M47.8753 43.2866L45.7103 45.4519L46.9243 46.6655H6.71233V5.75935L8.05269 6.83148L9.96535 4.44084L5.16855 0.635223L0.484131 4.45359L2.42822 6.81872L3.65059 5.81437V49.7276H46.7442L45.7466 50.6614L47.839 52.8914L52.743 48.2329L47.8753 43.2866Z" fill="white" />
</svg>
