<svg width="49" height="48" viewBox="0 0 49 48" fill="none" xmlns="http://www.w3.org/2000/svg">
	<path d="M0.483643 0.100571V40.2665H28.8258V47.8151H40.8513V40.2665H48.1982V0.100571H0.483643ZM11.2628 2.89634H45.4024V7.64916H11.2628V2.89634ZM3.27951 2.89634H8.46716V7.64916H3.27951V2.89634ZM3.27951 10.4449H45.4024V37.4706H40.8513V19.3456L34.8386 12.6648L28.8258 19.3456V37.4706H3.27951V10.4449ZM34.8386 16.844L38.0452 20.4069H31.6319L34.8386 16.844ZM31.6217 23.2028H38.0555V38.8663H31.6217V23.2028ZM31.6217 41.662H38.0555V45.0192H31.6217V41.662Z" fill="white" />
	<path d="M24.3411 17.2947H8.43628V20.0905H24.3411V17.2947ZM24.3411 23.259H8.43628V26.0548H24.3411V23.259ZM17.3828 29.2233H8.43628V32.0191H17.3828V29.2233Z" fill="white" />
</svg>
