<svg width="20" height="20" viewBox="0 0 20 20" fill="none" xmlns="http://www.w3.org/2000/svg">
	<path d="M10 20.0034C15.5228 20.0034 20 15.5263 20 10.0034C20 4.48057 15.5228 0.00341797 10 0.00341797C4.47715 0.00341797 0 4.48057 0 10.0034C0 15.5263 4.47715 20.0034 10 20.0034Z" fill="#2775C9" />
	<path d="M9.84375 17.1909C5.7875 17.1909 2.5 13.9034 2.5 9.84717C2.5 5.79092 5.7875 2.50342 9.84375 2.50342C13.9 2.50342 17.1875 5.79092 17.1875 9.84717C17.1875 11.7949 16.4138 13.6628 15.0366 15.04C13.6593 16.4172 11.7914 17.1909 9.84375 17.1909ZM9.40625 7.12217C9.00444 7.14209 8.62459 7.3115 8.34128 7.59712C8.05797 7.88275 7.89166 8.26396 7.875 8.66592C7.875 9.42217 8.3375 9.91592 9.31875 10.1222L10.0062 10.2847C10.675 10.4409 10.95 10.6659 10.95 11.0472C10.95 11.4284 10.4687 11.8034 9.84375 11.8034C9.62175 11.8238 9.3985 11.7812 9.19955 11.6806C9.0006 11.5801 8.83398 11.4255 8.71875 11.2347C8.68461 11.1623 8.63071 11.101 8.56326 11.0578C8.49581 11.0147 8.41755 10.9915 8.3375 10.9909H7.96875C7.94039 10.9962 7.91335 11.007 7.88919 11.0227C7.86503 11.0385 7.84421 11.0588 7.82795 11.0826C7.81168 11.1065 7.80029 11.1333 7.79442 11.1615C7.78855 11.1897 7.78832 11.2188 7.79375 11.2472C7.88357 11.6138 8.09242 11.9402 8.38759 12.1755C8.68276 12.4107 9.0476 12.5414 9.425 12.5472V13.0722C9.425 13.189 9.47142 13.3011 9.55406 13.3837C9.63669 13.4664 9.74876 13.5128 9.86562 13.5128C9.98249 13.5128 10.0946 13.4664 10.1772 13.3837C10.2598 13.3011 10.3062 13.189 10.3062 13.0722V12.5409C10.733 12.5361 11.141 12.3648 11.4433 12.0636C11.7457 11.7625 11.9185 11.3551 11.925 10.9284C11.925 10.1347 11.4688 9.67842 10.3875 9.44717L9.7625 9.30967C9.1375 9.15342 8.84375 8.94717 8.84375 8.59717C8.84375 8.24717 9.21875 7.85967 9.84375 7.85967C10.0406 7.83911 10.2392 7.87597 10.4155 7.96581C10.5918 8.05564 10.7384 8.1946 10.8375 8.36592C10.8777 8.45147 10.9413 8.52389 11.0209 8.57477C11.1005 8.62566 11.193 8.65293 11.2875 8.65342H11.5812C11.648 8.63708 11.7057 8.59519 11.742 8.53676C11.7782 8.47832 11.7901 8.408 11.775 8.34092C11.6903 8.00244 11.5009 7.69935 11.2338 7.47488C10.9667 7.25041 10.6355 7.11604 10.2875 7.09092V6.65967C10.2875 6.54281 10.2411 6.43073 10.1584 6.3481C10.0758 6.26547 9.96374 6.21904 9.84687 6.21904C9.73001 6.21904 9.61794 6.26547 9.53531 6.3481C9.45267 6.43073 9.40625 6.54281 9.40625 6.65967V7.12217ZM4.3375 9.84717C4.33822 10.9985 4.70061 12.1204 5.37349 13.0546C6.04637 13.9888 6.99574 14.688 8.0875 15.0534H8.175C8.24959 15.0534 8.32113 15.0238 8.37387 14.971C8.42662 14.9183 8.45625 14.8468 8.45625 14.7722V14.6409C8.45646 14.5246 8.42211 14.4108 8.35758 14.314C8.29304 14.2172 8.20122 14.1417 8.09375 14.0972C7.2435 13.754 6.51521 13.1645 6.00237 12.4045C5.48952 11.6444 5.21551 10.7484 5.21551 9.83154C5.21551 8.91465 5.48952 8.01867 6.00237 7.25861C6.51521 6.49856 7.2435 5.90911 8.09375 5.56592C8.20073 5.52246 8.29234 5.44813 8.3569 5.3524C8.42146 5.25667 8.45605 5.14388 8.45625 5.02842V4.88467C8.45665 4.84246 8.44687 4.80078 8.42774 4.76316C8.40861 4.72553 8.38068 4.69308 8.34634 4.66855C8.31199 4.64401 8.27223 4.62812 8.23044 4.62223C8.18864 4.61633 8.14604 4.6206 8.10625 4.63467C7.00998 4.99723 6.05581 5.69598 5.37927 6.6317C4.70273 7.56741 4.33822 8.6925 4.3375 9.84717ZM15.35 9.84717C15.348 8.69694 14.985 7.57636 14.3122 6.64343C13.6394 5.71049 12.6907 5.01225 11.6 4.64717H11.5062C11.4283 4.64717 11.3536 4.67812 11.2985 4.73321C11.2434 4.78829 11.2125 4.86301 11.2125 4.94092V5.03467C11.215 5.15521 11.2524 5.27245 11.32 5.37226C11.3876 5.47206 11.4827 5.55017 11.5937 5.59717C12.4421 5.94136 13.1684 6.53085 13.6797 7.29019C14.1911 8.04953 14.4643 8.94419 14.4643 9.85967C14.4643 10.7751 14.1911 11.6698 13.6797 12.4291C13.1684 13.1885 12.4421 13.778 11.5937 14.1222C11.4848 14.1697 11.3917 14.2472 11.3253 14.3457C11.2589 14.4442 11.2219 14.5596 11.2188 14.6784V14.7847C11.2193 14.831 11.2308 14.8766 11.2523 14.9176C11.2738 14.9586 11.3047 14.994 11.3425 15.0208C11.3803 15.0477 11.4239 15.0652 11.4697 15.0719C11.5155 15.0787 11.5623 15.0745 11.6062 15.0597C12.6979 14.6928 13.6466 13.9922 14.3184 13.0569C14.9902 12.1216 15.351 10.9988 15.35 9.84717Z" fill="white" />
</svg>
