<svg width="20" height="20" viewBox="0 0 20 20" fill="none" xmlns="http://www.w3.org/2000/svg">
	<path d="M10 20.0042C15.5228 20.0042 20 15.527 20 10.0042C20 4.4813 15.5228 0.00415039 10 0.00415039C4.47715 0.00415039 0 4.4813 0 10.0042C0 15.527 4.47715 20.0042 10 20.0042Z" fill="#26A17B" />
	<path fill-rule="evenodd" clip-rule="evenodd" d="M11.2013 10.8685V10.8672C11.1325 10.8722 10.7781 10.8935 9.9875 10.8935C9.35625 10.8935 8.91187 10.8747 8.75562 10.8672V10.8691C6.32562 10.7622 4.51187 10.3391 4.51187 9.83287C4.51187 9.32724 6.32562 8.90412 8.75562 8.79537V10.4479C8.91437 10.4591 9.36937 10.486 9.99812 10.486C10.7525 10.486 11.1306 10.4547 11.2013 10.4485V8.79662C13.6263 8.90474 15.4356 9.32787 15.4356 9.83287C15.4356 10.3391 13.6263 10.761 11.2013 10.8685ZM11.2013 8.62474V7.14599H14.585V4.89099H5.37188V7.14599H8.75562V8.62412C6.00562 8.75037 3.9375 9.29537 3.9375 9.94787C3.9375 10.6004 6.00562 11.1447 8.75562 11.2716V16.0104H11.2013V11.2704C13.9469 11.1441 16.01 10.5997 16.01 9.94787C16.01 9.29599 13.9469 8.75162 11.2013 8.62474Z" fill="white" />
</svg>
