<svg width="433" height="518" viewBox="0 0 433 518" fill="none" xmlns="http://www.w3.org/2000/svg">
	<mask id="mask0_84_1971" style="mask-type:luminance" maskUnits="userSpaceOnUse" x="0" y="0" width="433" height="518">
		<path d="M432.33 0H0V517.69H432.33V0Z" fill="white" />
	</mask>
	<g mask="url(#mask0_84_1971)">
		<mask id="mask1_84_1971" style="mask-type:luminance" maskUnits="userSpaceOnUse" x="33" y="0" width="433" height="518">
			<path d="M33.0439 0H465.374V517.69H33.0439V0Z" fill="white" />
		</mask>
		<g mask="url(#mask1_84_1971)">
			<g opacity="0.952944">
				<path d="M398.826 94.8639V422.826C398.826 432.884 390.664 441.046 380.606 441.046H52.6412C42.5836 441.046 34.4209 432.884 34.4209 422.826V94.8639C34.4209 84.8064 42.5836 76.6438 52.6412 76.6438H380.606C390.664 76.6438 398.826 84.8064 398.826 94.8639Z" stroke="#F9F9F9" stroke-width="3" stroke-miterlimit="1" />
			</g>
			<mask id="mask2_84_1971" style="mask-type:alpha" maskUnits="userSpaceOnUse" x="33" y="0" width="368" height="518">
				<path d="M51.4019 78.0207H381.845C390.464 78.0207 397.449 85.0058 397.449 93.6248V424.065C397.449 432.684 390.464 439.669 381.845 439.669H51.4019C42.7828 439.669 35.7976 432.684 35.7976 424.065V93.6248C35.7976 85.0058 42.7828 78.0207 51.4019 78.0207ZM33.0439 93.6248C33.0439 83.4821 41.2591 75.267 51.4019 75.267H381.845C391.988 75.267 400.203 83.4821 400.203 93.6248V424.065C400.203 434.208 391.988 442.423 381.845 442.423H312.085V517.69H309.331V442.423H294.645V517.69H291.891V442.423H277.205V517.69H274.451V442.423H259.765V517.69H257.011V442.423H242.325V517.69H239.571V442.423H224.885V517.69H222.131V442.423H207.445V517.69H204.691V442.423H190.005V517.69H187.251V442.423H172.564V517.69H169.811V442.423H155.124V517.69H152.371V442.423H137.684V517.69H134.931V442.423H120.244V517.69H117.491V442.423H51.4019C41.2591 442.423 33.0439 434.208 33.0439 424.065V93.6248ZM219.377 363.484H223.967V358.895H219.377V363.484ZM219.377 363.484H214.788V358.895H210.198V363.484H214.788V368.074H219.377V363.484ZM219.377 311.165V306.575H223.967V311.165H219.377ZM219.377 311.165H214.788V306.575H210.198V311.165H214.788V315.754H219.377V311.165ZM219.377 258.845V254.256H223.967V258.845H219.377ZM214.788 258.845H210.198V254.256H214.788V258.845ZM214.788 258.845H219.377V263.434H214.788V258.845ZM219.377 206.525H223.967V201.936H219.377V206.525ZM214.788 206.525H210.198V201.936H214.788V206.525ZM214.788 206.525H219.377V211.115H214.788V206.525ZM219.377 154.206H223.967V149.616H219.377V154.206ZM214.788 154.206H210.198V149.616H214.788V154.206ZM214.788 154.206H219.377V158.795H214.788V154.206ZM313.003 68.8693V61.9851H315.757V68.8693H313.003ZM313.003 49.5936V56.4778H315.757V49.5936H313.003ZM313.003 37.2021V44.0863H315.757V37.2021H313.003ZM313.003 24.8106V31.6947H315.757V24.8106H313.003ZM313.003 12.4191V19.3032H315.757V12.4191H313.003ZM313.003 6.91171V0.0275367H315.757V6.91171H313.003ZM206.527 61.9851V68.8693H209.28V61.9851H206.527ZM206.527 56.4778V49.5936H209.28V56.4778H206.527ZM206.527 44.0863V37.2021H209.28V44.0863H206.527ZM206.527 31.6947V24.8106H209.28V31.6947H206.527ZM206.527 19.3032V12.4191H209.28V19.3032H206.527ZM206.527 0.0275367V6.91171H209.28V0.0275367H206.527ZM259.765 68.8693V61.9851H262.518V68.8693H259.765ZM259.765 49.5936V56.4778H262.518V49.5936H259.765ZM259.765 37.2021V44.0863H262.518V37.2021H259.765ZM259.765 24.8106V31.6947H262.518V24.8106H259.765ZM259.765 12.4191V19.3032H262.518V12.4191H259.765ZM259.765 6.91171V0.0275367H262.518V6.91171H259.765ZM153.289 61.9851V68.8693H156.042V61.9851H153.289ZM153.289 56.4778V49.5936H156.042V56.4778H153.289ZM153.289 44.0863V37.2021H156.042V44.0863H153.289ZM153.289 31.6947V24.8106H156.042V31.6947H153.289ZM153.289 19.3032V12.4191H156.042V19.3032H153.289ZM153.289 0.0275367V6.91171H156.042V0.0275367H153.289ZM280.876 72.2104V68.5388H277.205V72.2104H280.876ZM280.876 63.6373V59.9658H277.205V63.6373H280.876ZM280.876 55.0734V51.4018H277.205V55.0734H280.876ZM280.876 46.5095V42.8379H277.205V46.5095H280.876ZM280.876 37.9364V34.2648H277.205V37.9364H280.876ZM280.876 29.3725V25.7009H277.205V29.3725H280.876ZM280.876 20.8086V17.137H277.205V20.8086H280.876ZM280.876 12.2355V8.56391H277.205V12.2355H280.876ZM280.876 3.67156V0H277.205V3.67156H280.876ZM174.4 68.5388V72.2104H170.729V68.5388H174.4ZM174.4 59.9658V63.6373H170.729V59.9658H174.4ZM174.4 51.4018V55.0734H170.729V51.4018H174.4ZM174.4 42.8379V46.5095H170.729V42.8379H174.4ZM174.4 34.2648V37.9364H170.729V34.2648H174.4ZM174.4 25.7009V29.3725H170.729V25.7009H174.4ZM174.4 17.137V20.8086H170.729V17.137H174.4ZM174.4 8.56391V12.2355H170.729V8.56391H174.4ZM174.4 0V3.67156H170.729V0H174.4ZM245.078 72.2104V68.5388H241.407V72.2104H245.078ZM245.078 63.6373V59.9658H241.407V63.6373H245.078ZM245.078 55.0734V51.4018H241.407V55.0734H245.078ZM245.078 46.5095V42.8379H241.407V46.5095H245.078ZM245.078 37.9364V34.2648H241.407V37.9364H245.078ZM245.078 29.3725V25.7009H241.407V29.3725H245.078ZM245.078 20.8086V17.137H241.407V20.8086H245.078ZM245.078 12.2355V8.56391H241.407V12.2355H245.078ZM245.078 3.67156V0H241.407V3.67156H245.078ZM138.602 68.5388V72.2104H134.931V68.5388H138.602ZM138.602 59.9658V63.6373H134.931V59.9658H138.602ZM138.602 51.4018V55.0734H134.931V51.4018H138.602ZM138.602 42.8379V46.5095H134.931V42.8379H138.602ZM138.602 34.2648V37.9364H134.931V34.2648H138.602ZM138.602 25.7009V29.3725H134.931V25.7009H138.602ZM138.602 17.137V20.8086H134.931V17.137H138.602ZM138.602 8.56391V12.2355H134.931V8.56391H138.602ZM138.602 0V3.67156H134.931V0H138.602ZM298.316 47.7303V67.006H295.563V47.7303H298.316ZM298.316 23.8651V43.1408H295.563V23.8651H298.316ZM298.316 0V19.2757H295.563V0H298.316ZM191.84 67.006V47.7303H189.087V67.006H191.84ZM191.84 43.1408V23.8651H189.087V43.1408H191.84ZM191.84 19.2757V0H189.087V19.2757H191.84ZM226.72 47.7303V67.006H223.967V47.7303H226.72ZM226.72 23.8651V43.1408H223.967V23.8651H226.72ZM226.72 0V19.2757H223.967V0H226.72ZM120.244 47.7303V67.006H117.491V47.7303H120.244ZM120.244 23.8651V43.1408H117.491V23.8651H120.244ZM120.244 0V19.2757H117.491V0H120.244Z" fill="#565656" />
			</mask>
			<g mask="url(#mask2_84_1971)">
				<path d="M400.203 0V517.69H33.0439V0H400.203Z" fill="#565656" />
			</g>
			<mask id="mask3_84_1971" style="mask-type:alpha" maskUnits="userSpaceOnUse" x="33" y="0" width="368" height="518">
				<path d="M51.4019 78.0207H381.845C390.464 78.0207 397.449 85.0058 397.449 93.6248V424.065C397.449 432.684 390.464 439.669 381.845 439.669H51.4019C42.7828 439.669 35.7976 432.684 35.7976 424.065V93.6248C35.7976 85.0058 42.7828 78.0207 51.4019 78.0207ZM33.0439 93.6248C33.0439 83.4821 41.2591 75.267 51.4019 75.267H381.845C391.988 75.267 400.203 83.4821 400.203 93.6248V424.065C400.203 434.208 391.988 442.423 381.845 442.423H312.085V517.69H309.331V442.423H294.645V517.69H291.891V442.423H277.205V517.69H274.451V442.423H259.765V517.69H257.011V442.423H242.325V517.69H239.571V442.423H224.885V517.69H222.131V442.423H207.445V517.69H204.691V442.423H190.005V517.69H187.251V442.423H172.564V517.69H169.811V442.423H155.124V517.69H152.371V442.423H137.684V517.69H134.931V442.423H120.244V517.69H117.491V442.423H51.4019C41.2591 442.423 33.0439 434.208 33.0439 424.065V93.6248ZM219.377 363.484H223.967V358.895H219.377V363.484ZM219.377 363.484H214.788V358.895H210.198V363.484H214.788V368.074H219.377V363.484ZM219.377 311.165V306.575H223.967V311.165H219.377ZM219.377 311.165H214.788V306.575H210.198V311.165H214.788V315.754H219.377V311.165ZM219.377 258.845V254.256H223.967V258.845H219.377ZM214.788 258.845H210.198V254.256H214.788V258.845ZM214.788 258.845H219.377V263.434H214.788V258.845ZM219.377 206.525H223.967V201.936H219.377V206.525ZM214.788 206.525H210.198V201.936H214.788V206.525ZM214.788 206.525H219.377V211.115H214.788V206.525ZM219.377 154.206H223.967V149.616H219.377V154.206ZM214.788 154.206H210.198V149.616H214.788V154.206ZM214.788 154.206H219.377V158.795H214.788V154.206ZM313.003 68.8693V61.9851H315.757V68.8693H313.003ZM313.003 49.5936V56.4778H315.757V49.5936H313.003ZM313.003 37.2021V44.0863H315.757V37.2021H313.003ZM313.003 24.8106V31.6947H315.757V24.8106H313.003ZM313.003 12.4191V19.3032H315.757V12.4191H313.003ZM313.003 6.91171V0.0275367H315.757V6.91171H313.003ZM206.527 61.9851V68.8693H209.28V61.9851H206.527ZM206.527 56.4778V49.5936H209.28V56.4778H206.527ZM206.527 44.0863V37.2021H209.28V44.0863H206.527ZM206.527 31.6947V24.8106H209.28V31.6947H206.527ZM206.527 19.3032V12.4191H209.28V19.3032H206.527ZM206.527 0.0275367V6.91171H209.28V0.0275367H206.527ZM259.765 68.8693V61.9851H262.518V68.8693H259.765ZM259.765 49.5936V56.4778H262.518V49.5936H259.765ZM259.765 37.2021V44.0863H262.518V37.2021H259.765ZM259.765 24.8106V31.6947H262.518V24.8106H259.765ZM259.765 12.4191V19.3032H262.518V12.4191H259.765ZM259.765 6.91171V0.0275367H262.518V6.91171H259.765ZM153.289 61.9851V68.8693H156.042V61.9851H153.289ZM153.289 56.4778V49.5936H156.042V56.4778H153.289ZM153.289 44.0863V37.2021H156.042V44.0863H153.289ZM153.289 31.6947V24.8106H156.042V31.6947H153.289ZM153.289 19.3032V12.4191H156.042V19.3032H153.289ZM153.289 0.0275367V6.91171H156.042V0.0275367H153.289ZM280.876 72.2104V68.5388H277.205V72.2104H280.876ZM280.876 63.6373V59.9658H277.205V63.6373H280.876ZM280.876 55.0734V51.4018H277.205V55.0734H280.876ZM280.876 46.5095V42.8379H277.205V46.5095H280.876ZM280.876 37.9364V34.2648H277.205V37.9364H280.876ZM280.876 29.3725V25.7009H277.205V29.3725H280.876ZM280.876 20.8086V17.137H277.205V20.8086H280.876ZM280.876 12.2355V8.56391H277.205V12.2355H280.876ZM280.876 3.67156V0H277.205V3.67156H280.876ZM174.4 68.5388V72.2104H170.729V68.5388H174.4ZM174.4 59.9658V63.6373H170.729V59.9658H174.4ZM174.4 51.4018V55.0734H170.729V51.4018H174.4ZM174.4 42.8379V46.5095H170.729V42.8379H174.4ZM174.4 34.2648V37.9364H170.729V34.2648H174.4ZM174.4 25.7009V29.3725H170.729V25.7009H174.4ZM174.4 17.137V20.8086H170.729V17.137H174.4ZM174.4 8.56391V12.2355H170.729V8.56391H174.4ZM174.4 0V3.67156H170.729V0H174.4ZM245.078 72.2104V68.5388H241.407V72.2104H245.078ZM245.078 63.6373V59.9658H241.407V63.6373H245.078ZM245.078 55.0734V51.4018H241.407V55.0734H245.078ZM245.078 46.5095V42.8379H241.407V46.5095H245.078ZM245.078 37.9364V34.2648H241.407V37.9364H245.078ZM245.078 29.3725V25.7009H241.407V29.3725H245.078ZM245.078 20.8086V17.137H241.407V20.8086H245.078ZM245.078 12.2355V8.56391H241.407V12.2355H245.078ZM245.078 3.67156V0H241.407V3.67156H245.078ZM138.602 68.5388V72.2104H134.931V68.5388H138.602ZM138.602 59.9658V63.6373H134.931V59.9658H138.602ZM138.602 51.4018V55.0734H134.931V51.4018H138.602ZM138.602 42.8379V46.5095H134.931V42.8379H138.602ZM138.602 34.2648V37.9364H134.931V34.2648H138.602ZM138.602 25.7009V29.3725H134.931V25.7009H138.602ZM138.602 17.137V20.8086H134.931V17.137H138.602ZM138.602 8.56391V12.2355H134.931V8.56391H138.602ZM138.602 0V3.67156H134.931V0H138.602ZM298.316 47.7303V67.006H295.563V47.7303H298.316ZM298.316 23.8651V43.1408H295.563V23.8651H298.316ZM298.316 0V19.2757H295.563V0H298.316ZM191.84 67.006V47.7303H189.087V67.006H191.84ZM191.84 43.1408V23.8651H189.087V43.1408H191.84ZM191.84 19.2757V0H189.087V19.2757H191.84ZM226.72 47.7303V67.006H223.967V47.7303H226.72ZM226.72 23.8651V43.1408H223.967V23.8651H226.72ZM226.72 0V19.2757H223.967V0H226.72ZM120.244 47.7303V67.006H117.491V47.7303H120.244ZM120.244 23.8651V43.1408H117.491V23.8651H120.244ZM120.244 0V19.2757H117.491V0H120.244Z" fill="#565656" />
			</mask>
			<g mask="url(#mask3_84_1971)">
				<path d="M400.203 96.0839V458.133H33.0439V96.0839H400.203Z" fill="url(#paint0_linear_84_1971)" />
			</g>
			<mask id="mask4_84_1971" style="mask-type:alpha" maskUnits="userSpaceOnUse" x="33" y="0" width="368" height="518">
				<path d="M51.4019 78.0207H381.845C390.464 78.0207 397.449 85.0058 397.449 93.6248V424.065C397.449 432.684 390.464 439.669 381.845 439.669H51.4019C42.7828 439.669 35.7976 432.684 35.7976 424.065V93.6248C35.7976 85.0058 42.7828 78.0207 51.4019 78.0207ZM33.0439 93.6248C33.0439 83.4821 41.2591 75.267 51.4019 75.267H381.845C391.988 75.267 400.203 83.4821 400.203 93.6248V424.065C400.203 434.208 391.988 442.423 381.845 442.423H312.085V517.69H309.331V442.423H294.645V517.69H291.891V442.423H277.205V517.69H274.451V442.423H259.765V517.69H257.011V442.423H242.325V517.69H239.571V442.423H224.885V517.69H222.131V442.423H207.445V517.69H204.691V442.423H190.005V517.69H187.251V442.423H172.564V517.69H169.811V442.423H155.124V517.69H152.371V442.423H137.684V517.69H134.931V442.423H120.244V517.69H117.491V442.423H51.4019C41.2591 442.423 33.0439 434.208 33.0439 424.065V93.6248ZM219.377 363.484H223.967V358.895H219.377V363.484ZM219.377 363.484H214.788V358.895H210.198V363.484H214.788V368.074H219.377V363.484ZM219.377 311.165V306.575H223.967V311.165H219.377ZM219.377 311.165H214.788V306.575H210.198V311.165H214.788V315.754H219.377V311.165ZM219.377 258.845V254.256H223.967V258.845H219.377ZM214.788 258.845H210.198V254.256H214.788V258.845ZM214.788 258.845H219.377V263.434H214.788V258.845ZM219.377 206.525H223.967V201.936H219.377V206.525ZM214.788 206.525H210.198V201.936H214.788V206.525ZM214.788 206.525H219.377V211.115H214.788V206.525ZM219.377 154.206H223.967V149.616H219.377V154.206ZM214.788 154.206H210.198V149.616H214.788V154.206ZM214.788 154.206H219.377V158.795H214.788V154.206ZM313.003 68.8693V61.9851H315.757V68.8693H313.003ZM313.003 49.5936V56.4778H315.757V49.5936H313.003ZM313.003 37.2021V44.0863H315.757V37.2021H313.003ZM313.003 24.8106V31.6947H315.757V24.8106H313.003ZM313.003 12.4191V19.3032H315.757V12.4191H313.003ZM313.003 6.91171V0.0275367H315.757V6.91171H313.003ZM206.527 61.9851V68.8693H209.28V61.9851H206.527ZM206.527 56.4778V49.5936H209.28V56.4778H206.527ZM206.527 44.0863V37.2021H209.28V44.0863H206.527ZM206.527 31.6947V24.8106H209.28V31.6947H206.527ZM206.527 19.3032V12.4191H209.28V19.3032H206.527ZM206.527 0.0275367V6.91171H209.28V0.0275367H206.527ZM259.765 68.8693V61.9851H262.518V68.8693H259.765ZM259.765 49.5936V56.4778H262.518V49.5936H259.765ZM259.765 37.2021V44.0863H262.518V37.2021H259.765ZM259.765 24.8106V31.6947H262.518V24.8106H259.765ZM259.765 12.4191V19.3032H262.518V12.4191H259.765ZM259.765 6.91171V0.0275367H262.518V6.91171H259.765ZM153.289 61.9851V68.8693H156.042V61.9851H153.289ZM153.289 56.4778V49.5936H156.042V56.4778H153.289ZM153.289 44.0863V37.2021H156.042V44.0863H153.289ZM153.289 31.6947V24.8106H156.042V31.6947H153.289ZM153.289 19.3032V12.4191H156.042V19.3032H153.289ZM153.289 0.0275367V6.91171H156.042V0.0275367H153.289ZM280.876 72.2104V68.5388H277.205V72.2104H280.876ZM280.876 63.6373V59.9658H277.205V63.6373H280.876ZM280.876 55.0734V51.4018H277.205V55.0734H280.876ZM280.876 46.5095V42.8379H277.205V46.5095H280.876ZM280.876 37.9364V34.2648H277.205V37.9364H280.876ZM280.876 29.3725V25.7009H277.205V29.3725H280.876ZM280.876 20.8086V17.137H277.205V20.8086H280.876ZM280.876 12.2355V8.56391H277.205V12.2355H280.876ZM280.876 3.67156V0H277.205V3.67156H280.876ZM174.4 68.5388V72.2104H170.729V68.5388H174.4ZM174.4 59.9658V63.6373H170.729V59.9658H174.4ZM174.4 51.4018V55.0734H170.729V51.4018H174.4ZM174.4 42.8379V46.5095H170.729V42.8379H174.4ZM174.4 34.2648V37.9364H170.729V34.2648H174.4ZM174.4 25.7009V29.3725H170.729V25.7009H174.4ZM174.4 17.137V20.8086H170.729V17.137H174.4ZM174.4 8.56391V12.2355H170.729V8.56391H174.4ZM174.4 0V3.67156H170.729V0H174.4ZM245.078 72.2104V68.5388H241.407V72.2104H245.078ZM245.078 63.6373V59.9658H241.407V63.6373H245.078ZM245.078 55.0734V51.4018H241.407V55.0734H245.078ZM245.078 46.5095V42.8379H241.407V46.5095H245.078ZM245.078 37.9364V34.2648H241.407V37.9364H245.078ZM245.078 29.3725V25.7009H241.407V29.3725H245.078ZM245.078 20.8086V17.137H241.407V20.8086H245.078ZM245.078 12.2355V8.56391H241.407V12.2355H245.078ZM245.078 3.67156V0H241.407V3.67156H245.078ZM138.602 68.5388V72.2104H134.931V68.5388H138.602ZM138.602 59.9658V63.6373H134.931V59.9658H138.602ZM138.602 51.4018V55.0734H134.931V51.4018H138.602ZM138.602 42.8379V46.5095H134.931V42.8379H138.602ZM138.602 34.2648V37.9364H134.931V34.2648H138.602ZM138.602 25.7009V29.3725H134.931V25.7009H138.602ZM138.602 17.137V20.8086H134.931V17.137H138.602ZM138.602 8.56391V12.2355H134.931V8.56391H138.602ZM138.602 0V3.67156H134.931V0H138.602ZM298.316 47.7303V67.006H295.563V47.7303H298.316ZM298.316 23.8651V43.1408H295.563V23.8651H298.316ZM298.316 0V19.2757H295.563V0H298.316ZM191.84 67.006V47.7303H189.087V67.006H191.84ZM191.84 43.1408V23.8651H189.087V43.1408H191.84ZM191.84 19.2757V0H189.087V19.2757H191.84ZM226.72 47.7303V67.006H223.967V47.7303H226.72ZM226.72 23.8651V43.1408H223.967V23.8651H226.72ZM226.72 0V19.2757H223.967V0H226.72ZM120.244 47.7303V67.006H117.491V47.7303H120.244ZM120.244 23.8651V43.1408H117.491V23.8651H120.244ZM120.244 0V19.2757H117.491V0H120.244Z" fill="#565656" />
			</mask>
			<g mask="url(#mask4_84_1971)">
				<path d="M400.203 517.69V469.96H33.0439V517.69H400.203Z" fill="url(#paint1_linear_84_1971)" />
			</g>
			<mask id="mask5_84_1971" style="mask-type:alpha" maskUnits="userSpaceOnUse" x="33" y="0" width="368" height="518">
				<path d="M51.4019 78.0207H381.845C390.464 78.0207 397.449 85.0058 397.449 93.6248V424.065C397.449 432.684 390.464 439.669 381.845 439.669H51.4019C42.7828 439.669 35.7976 432.684 35.7976 424.065V93.6248C35.7976 85.0058 42.7828 78.0207 51.4019 78.0207ZM33.0439 93.6248C33.0439 83.4821 41.2591 75.267 51.4019 75.267H381.845C391.988 75.267 400.203 83.4821 400.203 93.6248V424.065C400.203 434.208 391.988 442.423 381.845 442.423H312.085V517.69H309.331V442.423H294.645V517.69H291.891V442.423H277.205V517.69H274.451V442.423H259.765V517.69H257.011V442.423H242.325V517.69H239.571V442.423H224.885V517.69H222.131V442.423H207.445V517.69H204.691V442.423H190.005V517.69H187.251V442.423H172.564V517.69H169.811V442.423H155.124V517.69H152.371V442.423H137.684V517.69H134.931V442.423H120.244V517.69H117.491V442.423H51.4019C41.2591 442.423 33.0439 434.208 33.0439 424.065V93.6248ZM219.377 363.484H223.967V358.895H219.377V363.484ZM219.377 363.484H214.788V358.895H210.198V363.484H214.788V368.074H219.377V363.484ZM219.377 311.165V306.575H223.967V311.165H219.377ZM219.377 311.165H214.788V306.575H210.198V311.165H214.788V315.754H219.377V311.165ZM219.377 258.845V254.256H223.967V258.845H219.377ZM214.788 258.845H210.198V254.256H214.788V258.845ZM214.788 258.845H219.377V263.434H214.788V258.845ZM219.377 206.525H223.967V201.936H219.377V206.525ZM214.788 206.525H210.198V201.936H214.788V206.525ZM214.788 206.525H219.377V211.115H214.788V206.525ZM219.377 154.206H223.967V149.616H219.377V154.206ZM214.788 154.206H210.198V149.616H214.788V154.206ZM214.788 154.206H219.377V158.795H214.788V154.206ZM313.003 68.8693V61.9851H315.757V68.8693H313.003ZM313.003 49.5936V56.4778H315.757V49.5936H313.003ZM313.003 37.2021V44.0863H315.757V37.2021H313.003ZM313.003 24.8106V31.6947H315.757V24.8106H313.003ZM313.003 12.4191V19.3032H315.757V12.4191H313.003ZM313.003 6.91171V0.0275367H315.757V6.91171H313.003ZM206.527 61.9851V68.8693H209.28V61.9851H206.527ZM206.527 56.4778V49.5936H209.28V56.4778H206.527ZM206.527 44.0863V37.2021H209.28V44.0863H206.527ZM206.527 31.6947V24.8106H209.28V31.6947H206.527ZM206.527 19.3032V12.4191H209.28V19.3032H206.527ZM206.527 0.0275367V6.91171H209.28V0.0275367H206.527ZM259.765 68.8693V61.9851H262.518V68.8693H259.765ZM259.765 49.5936V56.4778H262.518V49.5936H259.765ZM259.765 37.2021V44.0863H262.518V37.2021H259.765ZM259.765 24.8106V31.6947H262.518V24.8106H259.765ZM259.765 12.4191V19.3032H262.518V12.4191H259.765ZM259.765 6.91171V0.0275367H262.518V6.91171H259.765ZM153.289 61.9851V68.8693H156.042V61.9851H153.289ZM153.289 56.4778V49.5936H156.042V56.4778H153.289ZM153.289 44.0863V37.2021H156.042V44.0863H153.289ZM153.289 31.6947V24.8106H156.042V31.6947H153.289ZM153.289 19.3032V12.4191H156.042V19.3032H153.289ZM153.289 0.0275367V6.91171H156.042V0.0275367H153.289ZM280.876 72.2104V68.5388H277.205V72.2104H280.876ZM280.876 63.6373V59.9658H277.205V63.6373H280.876ZM280.876 55.0734V51.4018H277.205V55.0734H280.876ZM280.876 46.5095V42.8379H277.205V46.5095H280.876ZM280.876 37.9364V34.2648H277.205V37.9364H280.876ZM280.876 29.3725V25.7009H277.205V29.3725H280.876ZM280.876 20.8086V17.137H277.205V20.8086H280.876ZM280.876 12.2355V8.56391H277.205V12.2355H280.876ZM280.876 3.67156V0H277.205V3.67156H280.876ZM174.4 68.5388V72.2104H170.729V68.5388H174.4ZM174.4 59.9658V63.6373H170.729V59.9658H174.4ZM174.4 51.4018V55.0734H170.729V51.4018H174.4ZM174.4 42.8379V46.5095H170.729V42.8379H174.4ZM174.4 34.2648V37.9364H170.729V34.2648H174.4ZM174.4 25.7009V29.3725H170.729V25.7009H174.4ZM174.4 17.137V20.8086H170.729V17.137H174.4ZM174.4 8.56391V12.2355H170.729V8.56391H174.4ZM174.4 0V3.67156H170.729V0H174.4ZM245.078 72.2104V68.5388H241.407V72.2104H245.078ZM245.078 63.6373V59.9658H241.407V63.6373H245.078ZM245.078 55.0734V51.4018H241.407V55.0734H245.078ZM245.078 46.5095V42.8379H241.407V46.5095H245.078ZM245.078 37.9364V34.2648H241.407V37.9364H245.078ZM245.078 29.3725V25.7009H241.407V29.3725H245.078ZM245.078 20.8086V17.137H241.407V20.8086H245.078ZM245.078 12.2355V8.56391H241.407V12.2355H245.078ZM245.078 3.67156V0H241.407V3.67156H245.078ZM138.602 68.5388V72.2104H134.931V68.5388H138.602ZM138.602 59.9658V63.6373H134.931V59.9658H138.602ZM138.602 51.4018V55.0734H134.931V51.4018H138.602ZM138.602 42.8379V46.5095H134.931V42.8379H138.602ZM138.602 34.2648V37.9364H134.931V34.2648H138.602ZM138.602 25.7009V29.3725H134.931V25.7009H138.602ZM138.602 17.137V20.8086H134.931V17.137H138.602ZM138.602 8.56391V12.2355H134.931V8.56391H138.602ZM138.602 0V3.67156H134.931V0H138.602ZM298.316 47.7303V67.006H295.563V47.7303H298.316ZM298.316 23.8651V43.1408H295.563V23.8651H298.316ZM298.316 0V19.2757H295.563V0H298.316ZM191.84 67.006V47.7303H189.087V67.006H191.84ZM191.84 43.1408V23.8651H189.087V43.1408H191.84ZM191.84 19.2757V0H189.087V19.2757H191.84ZM226.72 47.7303V67.006H223.967V47.7303H226.72ZM226.72 23.8651V43.1408H223.967V23.8651H226.72ZM226.72 0V19.2757H223.967V0H226.72ZM120.244 47.7303V67.006H117.491V47.7303H120.244ZM120.244 23.8651V43.1408H117.491V23.8651H120.244ZM120.244 0V19.2757H117.491V0H120.244Z" fill="#565656" />
			</mask>
			<g mask="url(#mask5_84_1971)">
				<path d="M400.203 0V47.7303H33.0439V0H400.203Z" fill="url(#paint2_linear_84_1971)" />
			</g>
		</g>
		<path fill-rule="evenodd" clip-rule="evenodd" d="M218.46 363.484V358.895H223.049V363.484H218.46ZM218.46 363.484H213.87V358.895H209.281V363.484H213.87V368.074H218.46V363.484ZM218.46 311.165H223.049V306.575H218.46V311.165ZM218.46 311.165H213.87V306.575H209.281V311.165H213.87V315.754H218.46V311.165ZM218.46 258.845H223.049V254.256H218.46V258.845ZM218.46 258.845H213.87V254.256H209.281V258.845H213.87V263.434H218.46V258.845ZM218.46 206.525H223.049V201.936H218.46V206.525ZM213.87 206.525H209.281V201.936H213.87V206.525ZM213.87 206.525H218.46V211.115H213.87V206.525ZM218.46 154.206V149.616H223.049V154.206H218.46ZM218.46 154.206V158.795H213.87V154.206H218.46ZM213.87 154.206H209.281V149.616H213.87V154.206ZM51.4021 78.0206C42.7831 78.0206 35.7979 85.0058 35.7979 93.6248V424.065C35.7979 432.684 42.7831 439.669 51.4021 439.669H381.845C390.464 439.669 397.45 432.684 397.45 424.065V93.6248C397.45 85.0058 390.464 78.0206 381.845 78.0206H51.4021Z" fill="#101010" />
		<g opacity="0.95285" filter="url(#filter0_f_84_1971)">
			<path d="M398.826 94.8639V422.826C398.826 432.884 390.664 441.046 380.606 441.046H52.6412C42.5836 441.046 34.4209 432.884 34.4209 422.826V94.8639C34.4209 84.8064 42.5836 76.6438 52.6412 76.6438H380.606C390.664 76.6438 398.826 84.8064 398.826 94.8639Z" stroke="#F9F9F9" stroke-width="3" />
		</g>
		<path d="M268.099 132.176L267.751 130.827H267.714C267.035 131.864 266.007 132.378 264.758 132.378C263.418 132.378 262.298 131.864 261.518 130.992C260.72 130.12 260.27 128.881 260.27 127.431C260.27 125.99 260.692 124.723 261.491 123.823C262.262 122.951 263.4 122.419 264.878 122.419C267.126 122.419 268.421 123.631 268.779 125.393H267.42C267.136 124.31 266.328 123.557 264.859 123.557C262.62 123.557 261.61 125.237 261.61 127.431C261.61 129.707 262.932 131.24 264.823 131.24C266.723 131.24 267.631 129.955 267.64 128.44V128.229H264.859V127.109H268.935V132.176H268.099ZM251.109 132.176V122.612H252.486L256.405 128.606C256.864 129.312 257.47 130.506 257.47 130.506H257.507C257.507 130.506 257.415 129.257 257.415 128.459V122.612H258.654V132.176H257.287L253.386 126.191C252.927 125.476 252.293 124.301 252.293 124.301H252.266C252.266 124.301 252.339 125.549 252.339 126.32V132.176H251.109ZM247.795 132.176V122.612H249.108V132.176H247.795ZM236.45 132.176V122.612H238.148L240.14 127.807C240.526 128.844 241.104 130.799 241.104 130.799H241.132C241.132 130.799 241.719 128.863 242.105 127.807L244.06 122.612H245.804V132.176H244.546V126.393C244.546 125.549 244.62 123.943 244.62 123.943H244.601C244.601 123.943 244.216 125.384 243.931 126.127L241.6 132.176H240.572L238.249 126.127C237.983 125.384 237.579 123.943 237.579 123.943H237.552C237.552 123.943 237.634 125.549 237.634 126.393V132.176H236.45ZM228.758 123.75V127.137H231.503C232.797 127.137 233.44 126.476 233.44 125.439C233.44 124.319 232.916 123.75 231.567 123.75H228.758ZM227.455 132.176V122.612H231.925C233.632 122.612 234.789 123.667 234.789 125.246C234.789 126.412 234.321 127.247 233.045 127.642V127.678C234.128 128 234.431 128.642 234.523 130.019C234.642 131.524 234.761 131.983 234.954 132.112V132.176H233.559C233.339 131.993 233.311 131.561 233.21 130.028C233.118 128.679 232.558 128.192 231.31 128.192H228.758V132.176H227.455ZM221.149 131.222C223.324 131.222 224.481 129.579 224.481 127.394C224.481 125.2 223.324 123.539 221.149 123.539C218.973 123.539 217.808 125.2 217.808 127.394C217.808 129.579 218.973 131.222 221.149 131.222ZM221.149 132.378C218.258 132.378 216.477 130.249 216.477 127.394C216.477 124.53 218.258 122.41 221.149 122.41C224.031 122.41 225.839 124.53 225.839 127.394C225.839 130.249 224.031 132.378 221.149 132.378ZM209.088 132.176V122.612H215.632V123.768H210.4V126.641H214.76V127.752H210.4V132.176H209.088ZM203.966 132.369C201.295 132.369 199.964 130.909 199.863 129.083H201.166C201.322 130.524 202.268 131.313 204.003 131.313C205.278 131.313 206.206 130.753 206.206 129.597C206.206 128.349 205.095 128.055 203.424 127.678C201.717 127.321 200.267 126.825 200.267 124.989C200.267 123.383 201.616 122.437 203.58 122.437C205.93 122.437 206.986 123.612 207.215 125.246H205.949C205.783 124.09 204.939 123.465 203.59 123.465C202.332 123.465 201.515 123.97 201.515 124.925C201.515 125.962 202.552 126.265 203.993 126.559C205.848 126.935 207.527 127.412 207.527 129.542C207.527 131.35 206.031 132.369 203.966 132.369ZM190.932 132.176V122.612H192.309L196.228 128.606C196.687 129.312 197.293 130.506 197.293 130.506H197.329C197.329 130.506 197.247 129.257 197.247 128.459V122.612H198.477V132.176H197.118L193.208 126.191C192.749 125.476 192.116 124.301 192.116 124.301H192.088C192.088 124.301 192.171 125.549 192.171 126.32V132.176H190.932ZM184.837 125.687L183.901 128.358H186.957L186.048 125.687C185.727 124.76 185.47 123.658 185.47 123.658H185.434C185.434 123.658 185.149 124.796 184.837 125.687ZM181.211 132.176L184.708 122.612H186.177L189.693 132.176H188.261L187.306 129.386H183.543L182.56 132.176H181.211ZM174.272 123.75V127.137H177.007C178.301 127.137 178.953 126.476 178.953 125.439C178.953 124.319 178.421 123.75 177.071 123.75H174.272ZM172.959 132.176V122.612H177.439C179.146 122.612 180.302 123.667 180.302 125.246C180.302 126.412 179.825 127.247 178.549 127.642V127.678C179.632 128 179.935 128.642 180.027 130.019C180.146 131.524 180.275 131.983 180.468 132.112V132.176H179.063C178.843 131.993 178.825 131.561 178.724 130.028C178.632 128.679 178.063 128.192 176.814 128.192H174.272V132.176H172.959ZM163.964 123.768V122.612H171.573V123.768H168.425V132.176H167.103V123.768H163.964Z" fill="#F9F9F9" />
		<path d="M257.736 184.496L257.397 183.147H257.351C256.672 184.184 255.644 184.698 254.395 184.698C253.055 184.698 251.944 184.184 251.164 183.312C250.366 182.44 249.916 181.201 249.916 179.75C249.916 178.309 250.338 177.043 251.137 176.143C251.908 175.271 253.037 174.739 254.515 174.739C256.763 174.739 258.067 175.95 258.425 177.713H257.057C256.773 176.63 255.974 175.877 254.505 175.877C252.266 175.877 251.247 177.557 251.247 179.75C251.247 182.027 252.569 183.56 254.46 183.56C256.36 183.56 257.268 182.275 257.277 180.76V180.549H254.505V179.429H258.572V184.496H257.736ZM240.746 184.496V174.931H242.123L246.042 180.925C246.501 181.632 247.107 182.825 247.107 182.825H247.153C247.153 182.825 247.061 181.577 247.061 180.778V174.931H248.291V184.496H246.933L243.023 178.511C242.564 177.795 241.93 176.62 241.93 176.62H241.903C241.903 176.62 241.985 177.869 241.985 178.64V184.496H240.746ZM237.433 184.496V174.931H238.745V184.496H237.433ZM231.833 184.689C229.107 184.689 227.336 182.605 227.336 179.714C227.336 176.896 229.034 174.729 231.87 174.729C232.99 174.729 233.889 175.051 234.532 175.574C235.211 176.125 235.624 176.914 235.753 177.823H234.44C234.22 176.657 233.32 175.877 231.852 175.877C229.823 175.877 228.676 177.52 228.676 179.714C228.676 181.999 229.933 183.541 231.861 183.541C233.596 183.541 234.431 182.376 234.55 181.017H235.854C235.845 181.972 235.395 183.018 234.716 183.67C234.045 184.34 233.063 184.689 231.833 184.689ZM224.389 184.496V174.931H225.693V184.496H224.389ZM216.67 176.07V179.457H219.405C220.699 179.457 221.351 178.796 221.351 177.759C221.351 176.639 220.819 176.07 219.469 176.07H216.67ZM215.357 184.496V174.931H219.836C221.544 174.931 222.7 175.987 222.7 177.566C222.7 178.731 222.223 179.567 220.947 179.961V179.998C222.03 180.319 222.333 180.962 222.425 182.339C222.544 183.844 222.673 184.303 222.865 184.432V184.496H221.461C221.241 184.312 221.222 183.881 221.121 182.348C221.03 180.999 220.461 180.512 219.212 180.512H216.67V184.496H215.357ZM208.363 176.079V179.493H210.804C212.099 179.493 212.723 178.842 212.723 177.777C212.723 176.657 212.043 176.079 210.859 176.079H208.363ZM207.041 184.496V174.931H211.061C212.08 174.931 212.86 175.271 213.347 175.858C213.769 176.363 214.035 176.978 214.035 177.74C214.035 179.503 212.998 180.567 210.933 180.567H208.363V184.496H207.041ZM195.54 183.348H197.605C199.762 183.348 200.652 181.944 200.652 179.75C200.652 177.557 199.863 176.079 197.688 176.079H195.54V183.348ZM194.218 184.496V174.931H197.752C200.606 174.931 202.02 176.887 202.02 179.75C202.02 182.605 200.524 184.496 197.66 184.496H194.218ZM186.131 183.348H188.196C190.354 183.348 191.244 181.944 191.244 179.75C191.244 177.557 190.445 176.079 188.27 176.079H186.131V183.348ZM184.8 184.496V174.931H188.334C191.189 174.931 192.602 176.887 192.602 179.75C192.602 182.605 191.115 184.496 188.252 184.496H184.8ZM178.705 178.006L177.769 180.677H180.826L179.917 178.006C179.596 177.079 179.339 175.978 179.339 175.978H179.302C179.302 175.978 179.017 177.116 178.705 178.006ZM175.089 184.496L178.577 174.931H180.046L183.57 184.496H182.129L181.175 181.705H177.411L176.438 184.496H175.089Z" fill="#F9F9F9" />
		<path d="M241.719 236.816V227.251H248.511V228.408H243.022V231.299H247.988V232.391H243.022V235.622H248.658V236.816H241.719ZM236.138 237.008C233.412 237.008 231.64 234.925 231.64 232.033C231.64 229.216 233.339 227.049 236.175 227.049C237.295 227.049 238.194 227.371 238.837 227.894C239.516 228.445 239.929 229.234 240.058 230.143H238.745C238.525 228.977 237.625 228.197 236.156 228.197C234.128 228.197 232.981 229.84 232.981 232.033C232.981 234.319 234.238 235.861 236.166 235.861C237.9 235.861 238.736 234.695 238.855 233.337H240.159C240.149 234.291 239.7 235.338 239.02 235.99C238.35 236.66 237.368 237.008 236.138 237.008ZM222.48 236.816V227.251H223.847L227.767 233.245C228.226 233.952 228.841 235.145 228.841 235.145H228.878C228.878 235.145 228.786 233.897 228.786 233.098V227.251H230.016V236.816H228.657L224.747 230.831C224.288 230.115 223.655 228.94 223.655 228.94H223.636C223.636 228.94 223.71 230.189 223.71 230.96V236.816H222.48ZM216.385 230.326L215.449 232.997H218.505L217.587 230.326C217.266 229.399 217.009 228.298 217.009 228.298H216.972C216.972 228.298 216.697 229.436 216.385 230.326ZM212.759 236.816L216.256 227.251H217.716L221.241 236.816H219.8L218.854 234.025H215.082L214.109 236.816H212.759ZM203.957 236.816V227.251H205.269V231.281H210.198V227.251H211.52V236.816H210.198V232.346H205.269V236.816H203.957ZM194.429 236.816V227.251H195.806L199.725 233.245C200.184 233.952 200.79 235.145 200.79 235.145H200.827C200.827 235.145 200.735 233.897 200.735 233.098V227.251H201.974V236.816H200.606L196.705 230.831C196.246 230.115 195.613 228.94 195.613 228.94H195.585C195.585 228.94 195.659 230.189 195.659 230.96V236.816H194.429ZM185.874 236.816V227.251H192.666V228.408H187.177V231.299H192.143V232.391H187.177V235.622H192.813V236.816H185.874Z" fill="#F9F9F9" />
		<path d="M267.768 289.135V279.571H269.081V287.942H274.029V289.135H267.768ZM259.204 289.135V279.571H266.006V280.727H260.517V283.619H265.483V284.711H260.517V287.942H266.144V289.135H259.204ZM251.632 287.979H254.551C255.202 287.979 255.68 287.814 255.992 287.501C256.258 287.244 256.414 286.877 256.414 286.428C256.414 285.28 255.606 284.711 254.477 284.711H251.632V287.979ZM251.632 283.646H254.257C255.377 283.646 256.038 283.096 256.038 282.132C256.038 281.232 255.441 280.709 254.413 280.709H251.632V283.646ZM250.319 289.135V279.571H254.431C255.423 279.571 256.185 279.846 256.726 280.388C257.121 280.801 257.369 281.342 257.369 282.04C257.369 283.077 256.772 283.757 255.744 284.05V284.087C256.91 284.353 257.754 285.124 257.754 286.382C257.754 287.144 257.479 287.786 257.02 288.245C256.478 288.814 255.652 289.135 254.624 289.135H250.319ZM244.224 282.646L243.288 285.317H246.345L245.436 282.646C245.115 281.719 244.858 280.617 244.858 280.617H244.821C244.821 280.617 244.536 281.756 244.224 282.646ZM240.608 289.135L244.096 279.571H245.564L249.089 289.135H247.648L246.694 286.345H242.93L241.957 289.135H240.608ZM233.705 289.135V279.571H235.018V287.942H239.965V289.135H233.705ZM232.585 279.956L229.171 289.135H228.069L231.484 279.956H232.585ZM222.828 282.646L221.892 285.317H224.948L224.04 282.646C223.719 281.719 223.462 280.617 223.462 280.617H223.425C223.425 280.617 223.14 281.756 222.828 282.646ZM219.212 289.135L222.7 279.571H224.168L227.693 289.135H226.252L225.297 286.345H221.534L220.561 289.135H219.212ZM212.107 280.727V279.571H219.716V280.727H216.568V289.135H215.246V280.727H212.107ZM207.756 282.646L206.82 285.317H209.877L208.968 282.646C208.647 281.719 208.39 280.617 208.39 280.617H208.353C208.353 280.617 208.068 281.756 207.756 282.646ZM204.14 289.135L207.628 279.571H209.096L212.621 289.135H211.18L210.225 286.345H206.462L205.489 289.135H204.14ZM197.246 287.988H199.312C201.469 287.988 202.359 286.584 202.359 284.39C202.359 282.196 201.57 280.718 199.394 280.718H197.246V287.988ZM195.925 289.135V279.571H199.458C202.313 279.571 203.718 281.526 203.718 284.39C203.718 287.244 202.231 289.135 199.367 289.135H195.925ZM189.83 282.646L188.884 285.317H191.95L191.032 282.646C190.711 281.719 190.454 280.617 190.454 280.617H190.417C190.417 280.617 190.142 281.756 189.83 282.646ZM186.204 289.135L189.701 279.571H191.161L194.685 289.135H193.244L192.29 286.345H188.526L187.553 289.135H186.204ZM179.099 280.727V279.571H186.709V280.727H183.56V289.135H182.239V280.727H179.099ZM171.132 289.135V279.571H177.934V280.727H172.445V283.619H177.411V284.711H172.445V287.942H178.071V289.135H171.132ZM159.814 289.135V279.571H161.513L163.504 284.766C163.89 285.803 164.468 287.759 164.468 287.759H164.496C164.496 287.759 165.083 285.822 165.469 284.766L167.424 279.571H169.168V289.135H167.91V283.353C167.91 282.508 167.993 280.902 167.993 280.902H167.965C167.965 280.902 167.58 282.343 167.295 283.086L164.973 289.135H163.945L161.614 283.086C161.347 282.343 160.943 280.902 160.943 280.902H160.925C160.925 280.902 160.999 282.508 160.999 283.353V289.135H159.814Z" fill="#F9F9F9" />
		<path d="M249.906 341.455V331.891H256.708V333.047H251.219V335.939H256.185V337.031H251.219V340.262H256.846V341.455H249.906ZM240.911 333.047V331.891H248.52V333.047H245.372V341.455H244.05V333.047H240.911ZM236.56 334.966L235.624 337.637H238.681L237.772 334.966C237.451 334.039 237.194 332.937 237.194 332.937H237.157C237.157 332.937 236.872 334.075 236.56 334.966ZM232.935 341.455L236.432 331.891H237.9L241.416 341.455H239.984L239.029 338.665H235.266L234.284 341.455H232.935ZM231.108 341.455L230.759 340.106H230.722C230.043 341.143 229.015 341.657 227.767 341.657C226.427 341.657 225.307 341.143 224.527 340.271C223.728 339.399 223.287 338.16 223.287 336.71C223.287 335.269 223.71 334.002 224.508 333.102C225.279 332.23 226.408 331.698 227.886 331.698C230.135 331.698 231.429 332.91 231.787 334.672H230.429C230.144 333.589 229.336 332.836 227.868 332.836C225.628 332.836 224.618 334.516 224.618 336.71C224.618 338.986 225.94 340.519 227.831 340.519C229.731 340.519 230.64 339.234 230.649 337.719V337.508H227.868V336.388H231.943V341.455H231.108ZM215.274 341.455V331.891H222.076V333.047H216.587V335.939H221.543V337.031H216.587V340.262H222.214V341.455H215.274ZM207.582 333.029V336.416H210.327C211.621 336.416 212.263 335.755 212.263 334.718C212.263 333.598 211.74 333.029 210.391 333.029H207.582ZM206.279 341.455V331.891H210.749C212.456 331.891 213.613 332.946 213.613 334.525C213.613 335.691 213.145 336.526 211.869 336.921V336.958C212.952 337.279 213.255 337.921 213.347 339.298C213.466 340.803 213.585 341.262 213.778 341.391V341.455H212.383C212.163 341.272 212.135 340.84 212.034 339.307C211.942 337.958 211.382 337.472 210.134 337.472H207.582V341.455H206.279ZM203.7 341.455L203.351 340.106H203.314C202.635 341.143 201.607 341.657 200.358 341.657C199.018 341.657 197.898 341.143 197.118 340.271C196.32 339.399 195.879 338.16 195.879 336.71C195.879 335.269 196.301 334.002 197.1 333.102C197.871 332.23 199 331.698 200.478 331.698C202.727 331.698 204.021 332.91 204.379 334.672H203.02C202.736 333.589 201.928 332.836 200.459 332.836C198.22 332.836 197.21 334.516 197.21 336.71C197.21 338.986 198.532 340.519 200.423 340.519C202.323 340.519 203.231 339.234 203.241 337.719V337.508H200.459V336.388H204.535V341.455H203.7ZM193.667 341.455L193.318 340.106H193.281C192.602 341.143 191.574 341.657 190.326 341.657C188.986 341.657 187.866 341.143 187.086 340.271C186.287 339.399 185.837 338.16 185.837 336.71C185.837 335.269 186.259 334.002 187.058 333.102C187.829 332.23 188.958 331.698 190.436 331.698C192.685 331.698 193.988 332.91 194.346 334.672H192.978C192.694 333.589 191.895 332.836 190.427 332.836C188.187 332.836 187.177 334.516 187.177 336.71C187.177 338.986 188.499 340.519 190.39 340.519C192.29 340.519 193.19 339.234 193.199 337.719V337.508H190.427V336.388H194.502V341.455H193.667ZM180.55 334.966L179.614 337.637H182.67L181.762 334.966C181.44 334.039 181.183 332.937 181.183 332.937H181.147C181.147 332.937 180.862 334.075 180.55 334.966ZM176.934 341.455L180.422 331.891H181.89L185.415 341.455H183.974L183.019 338.665H179.256L178.283 341.455H176.934Z" fill="#F9F9F9" />
		<path d="M236.294 393.775V384.21H237.606V388.24H242.535V384.21H243.866V393.775H242.535V389.305H237.606V393.775H236.294ZM231.172 393.968C228.501 393.968 227.17 392.508 227.069 390.682H228.363C228.519 392.123 229.474 392.912 231.209 392.912C232.484 392.912 233.402 392.352 233.402 391.196C233.402 389.947 232.301 389.653 230.63 389.277C228.923 388.919 227.464 388.424 227.464 386.588C227.464 384.981 228.822 384.036 230.786 384.036C233.136 384.036 234.192 385.211 234.421 386.845H233.145C232.98 385.688 232.145 385.064 230.796 385.064C229.538 385.064 228.712 385.569 228.712 386.523C228.712 387.561 229.749 387.864 231.19 388.157C233.044 388.534 234.724 389.011 234.724 391.14C234.724 392.949 233.237 393.968 231.172 393.968ZM224.343 393.775V384.21H225.655V393.775H224.343ZM216.678 393.775V384.21H217.991V392.582H222.938V393.775H216.678ZM209.106 392.618H212.024C212.676 392.618 213.144 392.453 213.456 392.141C213.723 391.884 213.888 391.517 213.888 391.067C213.888 389.92 213.071 389.351 211.942 389.351H209.106V392.618ZM209.106 388.286H211.722C212.841 388.286 213.511 387.735 213.511 386.771C213.511 385.872 212.906 385.349 211.878 385.349H209.106V388.286ZM207.793 393.775V384.21H211.905C212.897 384.21 213.649 384.486 214.191 385.027C214.585 385.44 214.833 385.982 214.833 386.68C214.833 387.717 214.246 388.396 213.218 388.69V388.726C214.383 388.993 215.219 389.764 215.219 391.021C215.219 391.783 214.943 392.426 214.484 392.884C213.943 393.454 213.126 393.775 212.098 393.775H207.793ZM202.276 393.913C200.129 393.913 198.596 392.967 198.596 390.663V384.21H199.899V390.553C199.899 392.123 200.771 392.802 202.304 392.802C203.782 392.802 204.654 392.123 204.654 390.553V384.21H205.966V390.663C205.966 392.967 204.369 393.913 202.276 393.913ZM191.62 385.358V388.772H194.061C195.355 388.772 195.98 388.121 195.98 387.056C195.98 385.936 195.3 385.358 194.116 385.358H191.62ZM190.298 393.775V384.21H194.318C195.337 384.21 196.127 384.55 196.613 385.137C197.035 385.642 197.292 386.257 197.292 387.019C197.292 388.782 196.255 389.846 194.19 389.846H191.62V393.775H190.298Z" fill="#F9F9F9" />
	</g>
	<defs>
		<filter id="filter0_f_84_1971" x="17.9209" y="60.1438" width="397.405" height="397.402" filterUnits="userSpaceOnUse" color-interpolation-filters="sRGB">
			<feFlood flood-opacity="0" result="BackgroundImageFix" />
			<feBlend mode="normal" in="SourceGraphic" in2="BackgroundImageFix" result="shape" />
			<feGaussianBlur stdDeviation="7.5" result="effect1_foregroundBlur_84_1971" />
		</filter>
		<linearGradient id="paint0_linear_84_1971" x1="216.624" y1="458.133" x2="216.624" y2="96.0839" gradientUnits="userSpaceOnUse">
			<stop offset="0.75" stop-color="#F9F9F9" />
			<stop offset="1" stop-color="#565656" />
		</linearGradient>
		<linearGradient id="paint1_linear_84_1971" x1="216.624" y1="517.69" x2="216.624" y2="469.96" gradientUnits="userSpaceOnUse">
			<stop stop-color="#111111" />
			<stop offset="1" stop-color="#111111" stop-opacity="0" />
		</linearGradient>
		<linearGradient id="paint2_linear_84_1971" x1="216.624" y1="0" x2="216.624" y2="47.7303" gradientUnits="userSpaceOnUse">
			<stop stop-color="#111111" />
			<stop offset="1" stop-color="#111111" stop-opacity="0" />
		</linearGradient>
	</defs>
</svg>
