<svg width="599" height="26" viewBox="0 0 599 26" fill="none" xmlns="http://www.w3.org/2000/svg">
	<g clip-path="url(#clip0_80_2242)">
		<mask id="mask0_80_2242" style="mask-type:luminance" maskUnits="userSpaceOnUse" x="490" y="0" width="109" height="26">
			<path d="M598.562 0.96875H490.562V25.1887H598.562V0.96875Z" fill="white" />
		</mask>
		<g mask="url(#mask0_80_2242)">
			<mask id="mask1_80_2242" style="mask-type:luminance" maskUnits="userSpaceOnUse" x="490" y="0" width="110" height="26">
				<path d="M599.032 0.96875H490.022V25.1887H599.032V0.96875Z" fill="white" />
			</mask>
			<g mask="url(#mask1_80_2242)">
				<path d="M508.149 4.16665C508.104 4.25465 507.998 4.29224 507.907 4.25191C506.559 3.64414 504.92 3.43879 503.843 3.43879C499.97 3.43879 496.096 5.30978 496.096 8.3853C496.096 10.0344 497.345 11.4296 499.17 11.4296C501.186 11.4296 502.691 9.9712 503.907 8.63923C504.995 7.43469 506.276 6.10272 508.1 6.10272C510.085 6.10272 511.525 7.56119 511.525 9.52751C511.525 12.6351 507.747 16.1232 502.53 16.1232C497.312 16.1232 493.536 13.3639 493.536 9.52751C493.536 5.94413 497.825 2.71001 502.531 2.71001C504.932 2.71001 506.74 3.2087 508.071 3.92373C508.159 3.9714 508.193 4.07773 508.149 4.16665ZM502.531 1.47339C496.096 1.47339 490.847 6.67383 490.847 13.0476C490.847 19.4214 496.096 24.6851 502.531 24.6851C508.965 24.6851 514.279 19.4847 514.279 13.0476C514.279 6.61057 509.028 1.47339 502.531 1.47339Z" fill="black" />
				<path d="M581.544 9.4439C580.601 9.4439 579.838 9.67042 579.209 10.1912H579.052V5.00549H576.605V20.8792H579.007L579.052 14.1311C579.052 12.9085 580.107 11.9114 581.275 11.9114C582.509 11.9114 583.497 12.9076 583.497 14.1311V20.8792H585.899V14.1311C585.899 11.5493 583.834 9.4439 581.544 9.4439ZM593.218 18.7961C591.287 18.7961 589.693 17.2559 589.693 15.286C589.693 13.316 591.287 11.7536 593.218 11.7536C595.149 11.7536 596.697 13.2938 596.697 15.286C596.697 17.2782 595.171 18.7961 593.218 18.7961ZM593.218 9.39841C590.008 9.39841 587.381 12.0479 587.381 15.286C587.381 18.524 589.896 21.1513 593.038 21.1513C594.453 21.1513 595.844 20.6527 596.854 19.5889H597.012V20.8792H599.032V15.286C599.032 12.0479 596.405 9.39841 593.218 9.39841ZM548.389 18.7961C546.458 18.7961 544.864 17.2559 544.864 15.286C544.864 13.316 546.458 11.7536 548.389 11.7536C550.319 11.7536 551.868 13.2938 551.868 15.286C551.868 17.2782 550.341 18.7961 548.389 18.7961ZM559.59 12.0247H561.835V9.55623H559.59V5.88835H557.143V9.55716H555.37V12.0257H557.143V16.374C557.143 18.525 558.759 21.1522 561.835 21.1522V18.6837C559.634 18.6837 559.59 16.4195 559.59 16.4195V12.0266V12.0247ZM536.222 9.44297C534.874 9.44297 533.617 10.0315 532.832 11.0509H532.698C531.912 10.0315 530.655 9.44297 529.331 9.44297C526.771 9.44297 524.661 11.5493 524.661 14.1302V20.8783H527.085V14.1311C527.085 12.9085 528.073 11.9114 529.33 11.9114C530.587 11.9114 531.574 12.9076 531.574 14.1311V20.8792H533.998V14.1311C533.998 12.9085 534.986 11.9114 536.221 11.9114C537.456 11.9114 538.488 12.9076 538.488 14.1311V20.8792H540.89V14.1311C540.89 11.5493 538.802 9.4439 536.221 9.4439L536.222 9.44297ZM548.389 9.39749C545.179 9.39749 542.552 12.047 542.552 15.2851C542.552 18.5231 545.066 21.1503 548.209 21.1503C549.624 21.1503 551.015 20.6518 552.048 19.588H552.205V20.8783H554.203V15.2851C554.203 12.0014 551.576 9.39749 548.389 9.39749ZM569.266 18.6818C567.38 18.6818 565.831 17.1872 565.831 15.2851C565.831 13.3829 567.38 11.8659 569.266 11.8659C570.613 11.8659 571.78 12.6587 572.341 13.7904H574.878C574.249 11.2542 571.959 9.39749 569.266 9.39749C566.011 9.39749 563.406 12.047 563.406 15.2851C563.406 18.5231 566.011 21.1503 569.266 21.1503C571.959 21.1503 574.249 19.2259 574.878 16.6896H572.341C571.78 17.8899 570.613 18.6818 569.266 18.6818Z" fill="black" />
			</g>
		</g>
	</g>
	<g clip-path="url(#clip1_80_2242)">
		<mask id="mask2_80_2242" style="mask-type:luminance" maskUnits="userSpaceOnUse" x="429" y="4" width="30" height="18">
			<path d="M458.052 4.27209H429.918V21.3971H458.052V4.27209Z" fill="white" />
		</mask>
		<g mask="url(#mask2_80_2242)">
			<path fill-rule="evenodd" clip-rule="evenodd" d="M440.869 5.38718C439.795 4.64362 438.511 4.27185 437.016 4.27185C435.522 4.27185 434.238 4.64362 433.164 5.38718C432.089 6.11523 431.28 7.12213 430.735 8.40786C430.19 9.69359 429.918 11.1652 429.918 12.8227C429.918 14.4802 430.19 15.9518 430.735 17.2375C431.28 18.5233 432.089 19.5379 433.164 20.2814C434.238 21.0095 435.522 21.3735 437.016 21.3735C438.511 21.3735 439.795 21.0095 440.869 20.2814C441.943 19.5379 442.752 18.5233 443.297 17.2375C443.842 15.9518 444.115 14.4802 444.115 12.8227C444.115 11.1652 443.842 9.69359 443.297 8.40786C442.752 7.12213 441.943 6.11523 440.869 5.38718ZM439.039 8.25076C438.517 7.70489 437.843 7.43194 437.016 7.43194C435.911 7.43194 435.07 7.9199 434.495 8.89582C433.934 9.87172 433.654 11.1807 433.654 12.8227C433.654 13.8534 433.764 14.7531 433.985 15.5214L439.039 8.25076ZM434.979 17.3928C435.51 17.9399 436.189 18.2135 437.016 18.2135C438.122 18.2135 438.954 17.7255 439.515 16.7496C440.091 15.7736 440.379 14.4647 440.379 12.8227C440.379 11.7888 440.264 10.8869 440.036 10.117L434.979 17.3928Z" fill="black" />
			<path d="M448.547 14.5879L444.157 21.0011H448.36L450.415 17.3762C450.571 17.1283 450.664 16.8031 450.695 16.4003C450.711 16.2454 450.742 16.1292 450.789 16.0518C450.835 15.9588 450.929 15.9123 451.069 15.9123C451.287 15.9123 451.411 16.0518 451.442 16.3306V16.4003C451.473 16.8031 451.567 17.1283 451.723 17.3762L453.777 21.0011H457.98L453.591 14.5879L457.607 8.73242H453.404L451.723 11.7763C451.536 12.1017 451.442 12.4269 451.442 12.7523C451.442 12.8917 451.411 13.0078 451.349 13.1008C451.302 13.1938 451.209 13.2402 451.069 13.2402C450.929 13.2402 450.827 13.1938 450.765 13.1008C450.719 13.0078 450.695 12.8917 450.695 12.7523C450.695 12.4269 450.602 12.1017 450.415 11.7763L448.734 8.73242H444.531L448.547 14.5879Z" fill="black" />
		</g>
	</g>
	<g clip-path="url(#clip2_80_2242)">
		<mask id="mask3_80_2242" style="mask-type:luminance" maskUnits="userSpaceOnUse" x="313" y="5" width="85" height="17">
			<path d="M397.155 5.27502H313.943V21.4253H397.155V5.27502Z" fill="white" />
		</mask>
		<g mask="url(#mask3_80_2242)">
			<path d="M352.871 5.27542V7.38856C350.849 7.36142 350.377 8.50671 350.419 10.4854H357.133V19.1929H358.454V21.1969H353.248V19.1929H354.606V12.4892H350.419C350.432 14.7236 350.444 16.9582 350.457 19.1929H352.418V21.1969H346.458V19.1929L347.93 19.1566V12.4892H346.458V10.4854H347.93C347.882 7.03879 349.331 5.23581 352.871 5.27542ZM391.685 5.27542H395.797V19.1929H397.155V21.1969H393.798V19.1566C393.772 19.1687 393.747 19.1809 393.722 19.1929C393.081 20.9463 389.884 22.0078 387.536 21.0876C385.612 20.3338 384.526 18.7522 384.141 16.4969C383.518 12.8485 386.862 9.47907 390.667 10.3397C391.864 10.6104 392.464 11.1961 393.27 11.797V7.27926H391.685V5.27542ZM313.981 5.78549H321.073C326.591 5.7853 329.47 6.08676 331.559 9.42883C332.241 10.5195 332.937 12.3505 332.615 14.3109C332.046 17.773 330.344 19.9081 327.183 20.8325C325.673 21.2744 323.641 21.1969 321.676 21.1969H313.943V19.0473H315.603V7.89863H313.981V5.78549ZM318.206 7.89863V19.0473H319.79V7.89863H318.206ZM322.393 7.89863V19.0473C325.446 19.0823 327.541 18.8336 328.805 17.1891C329.233 16.6326 329.552 15.9163 329.748 15.1488C330.626 11.7126 328.827 8.93895 326.353 8.19009C325.271 7.86256 323.805 7.88904 322.393 7.89863ZM339.103 10.2668C342.521 10.2242 344.331 11.6704 345.063 14.2016C345.226 14.765 345.41 15.6748 345.214 16.3512H336.387C336.555 16.9582 336.622 17.4886 336.915 17.9542C337.653 19.1249 339.726 19.8365 341.517 19.0837C342.312 18.7497 342.512 18.1021 343.064 17.5535H345.251V17.59C344.724 19.1016 343.875 20.3021 342.422 20.9053C339.954 21.9305 336.747 21.2459 335.444 19.6666C335.005 19.1341 334.605 18.5104 334.35 17.8085C333.247 14.7727 334.96 12.0512 336.877 10.959C337.542 10.5806 338.18 10.3053 339.103 10.2668ZM370.675 19.1929V21.1969H365.658V19.1929H366.865C366.884 17.8213 367.13 14.3588 366.714 13.4001C366.491 12.8852 365.96 12.53 365.319 12.4164C362.267 11.8752 363.023 16.6726 363.055 19.1929H364.263V21.1969H359.246V19.1929H360.528V12.4892H359.246V10.4854H362.414C362.427 11.0562 362.439 11.6269 362.452 12.1978V12.1249C362.856 11.6158 363.157 11.1154 363.734 10.7769C366.158 9.35629 368.732 10.7196 369.279 12.8536C369.609 14.1397 369.355 16.3095 369.355 17.7721C369.367 18.2457 369.38 18.7194 369.393 19.1929H370.675ZM376.635 10.2668C380.053 10.2242 381.863 11.6704 382.595 14.2016C382.758 14.765 382.942 15.6748 382.745 16.3512H373.919C374.086 16.9582 374.154 17.4886 374.447 17.9542C375.185 19.1249 377.258 19.8365 379.049 19.0837C379.844 18.7497 380.044 18.1021 380.595 17.5535H382.783V17.59C382.256 19.1016 381.407 20.3021 379.954 20.9053C377.486 21.9305 374.279 21.2459 372.976 19.6666C372.537 19.1347 372.135 18.5102 371.882 17.8085C370.785 14.7683 372.486 12.0543 374.409 10.959C375.074 10.5806 375.708 10.3363 376.635 10.2668ZM342.95 14.8574C342.835 12.9857 340.673 11.4811 338.499 12.3435C337.358 12.7965 336.863 13.6361 336.463 14.821L342.95 14.8574ZM380.482 14.8574C380.367 12.9857 378.205 11.4811 376.031 12.3435C374.89 12.7965 374.395 13.6361 373.994 14.821L380.482 14.8574ZM389.573 12.4164C388.332 12.4597 387.156 13.1532 386.668 14.8574C385.984 17.2503 387.957 19.666 390.441 19.2294C394.419 18.5302 394.29 12.3444 389.573 12.4164ZM355.738 5.27542C356.103 5.27542 356.461 5.38012 356.765 5.57628C357.068 5.77245 357.305 6.05127 357.445 6.37748C357.585 6.70369 357.622 7.06264 357.55 7.40894C357.479 7.75524 357.303 8.07335 357.045 8.32302C356.786 8.57268 356.457 8.74271 356.098 8.8116C355.74 8.88048 355.368 8.84513 355.03 8.71C354.693 8.57489 354.404 8.34606 354.201 8.05248C353.998 7.7589 353.889 7.41375 353.889 7.06066C353.889 6.58718 354.084 6.1331 354.431 5.7983C354.777 5.46351 355.247 5.27542 355.738 5.27542Z" fill="black" />
		</g>
	</g>
	<g clip-path="url(#clip3_80_2242)">
		<path d="M176.641 19.9021C175.298 19.9021 174.29 19.5662 173.395 19.0066C172.611 18.4469 172.275 17.5514 172.275 16.544H174.514C174.514 16.9917 174.626 17.3276 175.074 17.6634C175.41 17.8872 175.97 17.9992 176.641 17.9992H177.649C178.238 17.9999 178.817 17.8454 179.328 17.5514C179.664 17.2156 179.887 16.7679 179.887 16.3202C179.887 15.7605 179.664 15.4247 179.328 15.0889C178.893 14.7907 178.395 14.599 177.872 14.5292L176.193 14.1934C173.731 13.8576 172.499 12.6263 172.499 10.7235C172.472 10.2204 172.559 9.71772 172.753 9.25268C172.947 8.78765 173.243 8.37218 173.619 8.03704C174.29 7.47737 175.41 7.14157 176.753 7.14157H177.649C178.88 7.14157 179.887 7.47737 180.783 8.03704C181.455 8.59672 181.902 9.38025 181.902 10.2757H179.664C179.664 9.93992 179.44 9.60411 179.104 9.38025C178.768 9.15638 178.208 9.04444 177.649 9.04444H176.641C175.97 9.04444 175.522 9.26831 175.074 9.49218C174.738 9.82798 174.514 10.1638 174.514 10.6115C174.514 11.507 175.186 12.0666 176.417 12.2905L178.096 12.5144C179.216 12.5144 180.111 12.9621 181.007 13.6337C181.679 14.3053 181.902 15.0889 181.902 16.2082C181.929 16.7113 181.843 17.214 181.649 17.679C181.455 18.144 181.159 18.5595 180.783 18.8946C179.999 19.5662 178.88 19.9021 177.425 19.9021H176.641ZM189.514 19.9021C188.059 19.9021 186.94 19.4543 186.044 18.6707C185.149 17.7753 184.589 16.4321 184.701 15.2008V7.36543H186.94V15.2008C186.94 16.0963 187.164 16.7679 187.611 17.2156C187.861 17.466 188.158 17.6648 188.484 17.8003C188.811 17.936 189.161 18.0057 189.514 18.0057C189.868 18.0057 190.218 17.936 190.545 17.8003C190.871 17.6648 191.168 17.466 191.417 17.2156C191.865 16.7679 192.089 16.0963 192.089 15.2008V7.36543H194.328V15.2008C194.328 16.656 193.88 17.7753 192.985 18.5589C192.201 19.4543 190.97 19.9021 189.514 19.9021ZM201.268 19.9021C200.037 19.9021 199.029 19.4543 198.246 18.6707C197.574 17.8872 197.126 16.656 197.126 15.3127V11.7308C197.126 10.5199 197.519 9.34161 198.246 8.37284C199.029 7.5893 200.037 7.14157 201.268 7.14157C202.071 7.09015 202.865 7.32845 203.507 7.81317C204.067 8.26091 204.403 8.93251 204.626 9.71605V3.33582H206.865V19.6782H204.626V17.4395C204.403 18.1111 204.067 18.7827 203.507 19.2304C202.947 19.6782 202.164 19.9021 201.268 19.9021ZM202.052 17.9992C202.836 17.9992 203.395 17.7752 203.955 17.2156C204.403 16.7679 204.626 16.0963 204.626 15.2008V11.8428C204.626 10.9473 204.403 10.2757 203.955 9.82799C203.395 9.26831 202.836 9.04444 202.052 9.04444C201.156 9.04444 200.597 9.26831 200.037 9.82799C199.589 10.2757 199.365 10.9473 199.365 11.8428V15.2008C199.365 16.0963 199.589 16.7679 200.037 17.2156C200.597 17.7752 201.156 17.9992 202.052 17.9992ZM214.589 19.9021C213.134 19.9021 211.903 19.4543 211.007 18.5589C210.567 18.1193 210.222 17.595 209.991 17.0177C209.76 16.4405 209.649 15.8224 209.664 15.2008V11.8428C209.642 11.2204 209.75 10.6003 209.981 10.0221C210.213 9.44392 210.562 8.92032 211.007 8.48478C211.903 7.5893 213.134 7.14157 214.589 7.14157C216.157 7.14157 217.276 7.5893 218.172 8.48478C218.617 8.92032 218.966 9.44392 219.197 10.0221C219.429 10.6003 219.537 11.2204 219.515 11.8428V15.2008C219.537 15.8231 219.429 16.4432 219.197 17.0215C218.966 17.5997 218.617 18.1233 218.172 18.5589C217.276 19.4543 216.157 19.9021 214.589 19.9021ZM214.589 17.8872C215.485 17.8872 216.045 17.6634 216.604 17.2156C217.052 16.7679 217.276 16.0963 217.276 15.0889V11.9548C217.276 10.9473 217.052 10.2757 216.604 9.82799C216.045 9.38025 215.485 9.15638 214.589 9.15638C213.806 9.15638 213.134 9.38025 212.574 9.82799C212.127 10.2757 211.903 10.9473 211.903 11.9548V15.0889C211.903 16.0963 212.127 16.7679 212.574 17.2156C213.134 17.6634 213.694 17.8872 214.589 17.8872ZM226.679 19.9021C225.448 19.9021 224.44 19.5662 223.545 19.0066C223.152 18.7296 222.834 18.3598 222.619 17.9301C222.405 17.5005 222.299 17.0243 222.313 16.544H224.552C224.552 16.9917 224.776 17.3276 225.112 17.6634C225.56 17.8872 226.119 17.9992 226.791 17.9992H227.687C228.47 17.9992 229.03 17.7753 229.478 17.5514C229.813 17.2156 230.037 16.7679 230.037 16.3202C230.037 15.7605 229.813 15.4247 229.478 15.0889C229.01 14.7738 228.471 14.5814 227.91 14.5292L226.231 14.1934C223.769 13.8576 222.537 12.6263 222.537 10.7235C222.537 9.60412 222.985 8.70865 223.657 8.03704C224.621 7.4124 225.755 7.09976 226.903 7.14157H227.799C229.03 7.14157 230.037 7.47737 230.821 8.03704C231.604 8.59672 231.94 9.38025 231.94 10.2757H229.702C229.702 9.93992 229.59 9.60411 229.142 9.38025C228.806 9.15638 228.358 9.04444 227.687 9.04444H227.015C226.231 9.04444 225.783 9.26831 225.448 9.49218C225 9.82798 224.888 10.1638 224.888 10.6115C224.888 11.507 225.448 12.0666 226.679 12.2905L228.358 12.5144C229.478 12.5144 230.597 12.9621 231.381 13.6337C231.94 14.3053 232.276 15.0889 232.276 16.2082C232.303 16.7113 232.216 17.214 232.023 17.679C231.829 18.144 231.533 18.5595 231.157 18.8946C230.373 19.5662 229.254 19.9021 227.799 19.9021H226.791H226.679ZM235.634 19.6782L233.619 7.36543H235.522L236.642 15.7605L236.978 17.9992L237.314 15.7605L238.657 7.36543H240.672L242.015 15.7605L242.351 17.9992L242.687 15.7605L243.806 7.36543H245.709L243.694 19.6782H241.231L240 11.3951L239.664 9.15638C239.664 9.93992 239.44 10.6115 239.329 11.3951L237.985 19.6782H235.634ZM251.082 19.9021C249.963 19.9021 248.844 19.5662 247.948 18.8946C247.276 18.223 246.829 17.3276 246.829 16.2082C246.802 15.7051 246.888 15.2025 247.082 14.7375C247.276 14.2724 247.572 13.857 247.948 13.5218C248.844 12.8502 249.851 12.4025 251.194 12.4025H254.776V11.2831C254.787 10.9719 254.733 10.6619 254.618 10.3728C254.502 10.0837 254.327 9.82188 254.105 9.60412C253.657 9.26831 252.985 9.04444 252.314 9.04444C251.53 9.04444 250.97 9.15638 250.523 9.49218C250.075 9.82798 249.739 10.1638 249.627 10.6115H247.388C247.5 9.93992 247.836 9.38025 248.172 8.82057C248.62 8.26091 249.291 7.92511 249.963 7.5893C250.635 7.2535 251.418 7.14157 252.202 7.14157C253.769 7.14157 254.888 7.47737 255.672 8.26091C256.567 9.04444 257.015 9.93992 257.015 11.2831V19.6782H254.776V17.4395C254.776 18.223 254.329 18.7827 253.657 19.2304C252.887 19.71 251.989 19.9442 251.082 19.9021ZM251.642 18.223C252.538 18.223 253.321 17.9992 253.881 17.5514C254.441 16.9917 254.776 16.4321 254.776 15.7605V14.0815H251.194C250.619 14.0598 250.058 14.2602 249.627 14.6412C249.291 14.977 249.067 15.4247 249.067 16.0963C249.067 16.7679 249.291 17.2156 249.739 17.6634C250.187 17.9992 250.858 18.223 251.642 18.223ZM260.038 23.7078V7.36543H262.277V9.60412C262.277 8.93251 262.724 8.26091 263.396 7.81317C264.037 7.32845 264.832 7.09015 265.635 7.14157C266.755 7.14157 267.873 7.5893 268.546 8.37284C269.272 9.34161 269.664 10.5199 269.664 11.7308V15.3127C269.664 16.656 269.217 17.8872 268.546 18.6707C267.761 19.4543 266.755 19.9021 265.523 19.9021C264.627 19.9021 263.956 19.6782 263.284 19.2304C262.724 18.7827 262.388 18.1111 262.165 17.3276V23.7078H259.926H260.038ZM264.852 17.9992C265.635 17.9992 266.306 17.7752 266.755 17.2156C267.202 16.7679 267.426 16.0963 267.426 15.2008V11.8428C267.426 10.9473 267.202 10.2757 266.755 9.82799C266.306 9.26831 265.635 9.04444 264.852 9.04444C263.956 9.04444 263.396 9.26831 262.948 9.82799C262.388 10.2757 262.165 10.9473 262.165 11.8428V15.2008C262.165 16.0963 262.388 16.7679 262.948 17.2156C263.396 17.7752 264.068 17.9992 264.852 17.9992Z" fill="black" />
		<path d="M160.969 3.15515H163.543L166.566 11.5502L163.431 19.9453H160.969L164.103 11.5502L160.969 3.15515Z" fill="black" />
		<path d="M280.873 3.15515H278.297L275.275 11.5502L278.409 19.9453H280.873L277.738 11.5502L280.873 3.15515Z" fill="black" />
	</g>
	<g clip-path="url(#clip4_80_2242)">
		<mask id="mask4_80_2242" style="mask-type:luminance" maskUnits="userSpaceOnUse" x="0" y="1" width="129" height="24">
			<path d="M128.969 1.95312H0.96875V24.2031H128.969V1.95312Z" fill="white" />
		</mask>
		<g mask="url(#mask4_80_2242)">
			<mask id="mask5_80_2242" style="mask-type:luminance" maskUnits="userSpaceOnUse" x="0" y="1" width="130" height="24">
				<path d="M129.791 1.026H0.96875V24.6514H129.791V1.026Z" fill="white" />
			</mask>
			<g mask="url(#mask5_80_2242)">
				<path d="M5.16903 19.6098H8.41324V7.37093H12.6574V4.41858H0.96875V7.37177H5.16903V19.6098ZM12.6617 19.6098H15.7061V14.4965C15.7061 12.7204 16.6614 11.6505 18.1073 11.6505C18.6174 11.6505 19.0178 11.7358 19.484 11.8859V8.91164C19.1522 8.81924 18.8076 8.77599 18.4622 8.78339C17.2178 8.78339 16.0847 9.57485 15.7061 10.6228V8.91248H12.6617V19.6098ZM25.3274 19.8451C26.861 19.8451 28.0161 19.0959 28.5278 18.4108V19.6089H31.5723V8.91248H28.5278V10.1106C28.0161 9.42634 26.861 8.67708 25.3274 8.67708C22.3724 8.67708 20.1053 11.2447 20.1053 14.2611C20.1053 17.2784 22.3724 19.846 25.3283 19.846L25.3274 19.8451ZM25.9724 17.1704C24.2828 17.1704 23.1716 15.9512 23.1716 14.2611C23.1716 12.5702 24.2828 11.3501 25.9724 11.3501C27.6611 11.3501 28.7723 12.5702 28.7723 14.2611C28.7723 15.9512 27.6611 17.1704 25.9724 17.1704ZM38.8204 19.8451C40.354 19.8451 41.509 19.0959 42.0199 18.4108V19.6089H45.0643V3.56385H42.0199V10.1115C41.509 9.42634 40.354 8.67708 38.8204 8.67708C35.8645 8.67708 33.5974 11.2447 33.5974 14.2611C33.5974 17.2784 35.8645 19.8451 38.8204 19.8451ZM39.4645 17.1704C37.7758 17.1704 36.6646 15.9512 36.6646 14.2611C36.6646 12.5702 37.7758 11.3501 39.4645 11.3501C41.1532 11.3501 42.2644 12.5702 42.2644 14.2611C42.2644 15.9512 41.1532 17.1704 39.4645 17.1704ZM49.3128 7.28064C49.5683 7.28275 49.8218 7.23621 50.0586 7.14369C50.2955 7.05117 50.511 6.9145 50.6927 6.74152C50.8745 6.56854 51.019 6.36268 51.1179 6.13577C51.2166 5.90885 51.268 5.66536 51.2688 5.4193C51.268 5.17322 51.2166 4.92973 51.1179 4.70282C51.019 4.47591 50.8745 4.27005 50.6927 4.09707C50.511 3.9241 50.2955 3.78742 50.0586 3.69489C49.8218 3.60237 49.5683 3.55583 49.3128 3.55795C48.8013 3.56191 48.3121 3.7593 47.9504 4.10751C47.5887 4.45572 47.3837 4.92686 47.3796 5.4193C47.3837 5.91173 47.5887 6.38286 47.9504 6.73108C48.3121 7.0793 48.8013 7.27667 49.3128 7.28064ZM47.802 19.6098H50.8464V9.03399H47.802V19.6098ZM53.5473 19.6098H56.5916V14.3893C56.5916 12.3348 57.6362 11.351 59.0586 11.351C60.3249 11.351 61.0145 12.2927 61.0145 13.8324V19.6098H64.0589V13.3405C64.0589 10.5595 62.4587 8.67623 59.7701 8.67623C58.3251 8.67623 57.1919 9.27531 56.5916 10.1309V8.91164H53.5473V19.6098ZM71.8057 16.7629C70.2721 16.7629 68.984 15.65 68.984 14.024C68.984 12.377 70.2721 11.2852 71.8057 11.2852C73.3393 11.2852 74.6276 12.377 74.6276 14.024C74.6276 15.65 73.3393 16.7629 71.8057 16.7629ZM71.4499 24.2302C74.8502 24.2302 77.4283 22.5612 77.4283 18.7095V8.84667H74.3839V10.0448C73.7837 9.21118 72.5831 8.61211 71.1616 8.61211C68.2505 8.61211 65.9168 11.0084 65.9168 14.0249C65.9168 17.0202 68.2505 19.4166 71.1616 19.4166C72.5839 19.4166 73.7837 18.7963 74.3839 18.0049V18.7323C74.3839 20.4442 73.2061 21.6635 71.4061 21.6635C70.1618 21.6635 68.9174 21.2568 67.9394 20.3371L66.2726 22.519C67.5389 23.6962 69.5167 24.2302 71.4499 24.2302ZM83.8651 19.6098H86.7306L93.2646 4.41858H89.7093L85.3092 14.9665L80.8425 4.41858H77.3539L83.8651 19.6098ZM96.0588 7.15745C96.3139 7.15945 96.5671 7.11283 96.8036 7.02026C97.0411 6.92769 97.2563 6.79099 97.4381 6.61802C97.6189 6.44506 97.7636 6.23924 97.8629 6.01238C97.9612 5.78552 98.0132 5.5421 98.0132 5.29611C98.0132 5.0501 97.9612 4.80669 97.8629 4.57983C97.7636 4.35297 97.6189 4.14714 97.4381 3.97418C97.2563 3.80122 97.0411 3.66452 96.8036 3.57195C96.5671 3.47937 96.3139 3.43275 96.0588 3.43475C95.0135 3.43475 94.124 4.2684 94.124 5.29611C94.124 6.32297 95.0135 7.15745 96.0588 7.15745ZM94.547 19.6098H97.5911V8.91164H94.547V19.6098ZM105.471 19.8451C107.803 19.8451 109.581 18.9035 110.626 17.4489L108.359 15.8229C107.848 16.5713 106.892 17.1704 105.492 17.1704C104.026 17.1704 102.715 16.379 102.537 14.9454H110.847C110.914 14.4957 110.892 14.1961 110.892 13.9396C110.892 10.4524 108.337 8.67623 105.425 8.67623C102.048 8.67623 99.5816 11.0936 99.5816 14.2603C99.5816 17.6413 102.159 19.8451 105.471 19.8451ZM102.647 12.9558C102.937 11.6505 104.204 11.0936 105.337 11.0936C106.47 11.0936 107.582 11.6716 107.848 12.9558H102.647ZM122.298 19.6098H125.32L128.986 8.91164H125.72L123.632 15.758L121.365 8.91164H119.031L116.787 15.758L114.676 8.91164H111.431L115.121 19.6098H118.143L120.209 13.5329L122.298 19.6098Z" fill="black" />
			</g>
		</g>
	</g>
	<defs>
		<clipPath id="clip0_80_2242">
			<rect width="108" height="24.22" fill="white" transform="translate(490.562 0.96875)" />
		</clipPath>
		<clipPath id="clip1_80_2242">
			<rect width="28.8" height="23.04" fill="white" transform="translate(429.766 1.5625)" />
		</clipPath>
		<clipPath id="clip2_80_2242">
			<rect width="84.8" height="23.4" fill="white" transform="translate(312.969 1.375)" />
		</clipPath>
		<clipPath id="clip3_80_2242">
			<rect width="120" height="23.8" fill="white" transform="translate(160.969 1.17188)" />
		</clipPath>
		<clipPath id="clip4_80_2242">
			<rect width="128" height="22.25" fill="white" transform="translate(0.96875 1.95312)" />
		</clipPath>
	</defs>
</svg>
