<svg width="144" height="144" viewBox="0 0 144 144" fill="none" xmlns="http://www.w3.org/2000/svg">
	<g clip-path="url(#clip0_84_2159)">
		<path d="M32.548 0.986328H12.8219C6.28531 0.986328 0.986328 6.28531 0.986328 12.8219V32.548" stroke="white" stroke-width="1.5" />
		<path d="M111.452 143.014H131.178C137.714 143.014 143.014 137.714 143.014 131.178V111.452" stroke="white" stroke-width="1.5" />
		<path d="M111.452 0.986328H131.178C137.714 0.986328 143.014 6.28531 143.014 12.8219V32.548" stroke="white" stroke-width="1.5" />
		<path d="M32.548 143.014H12.8219C6.28531 143.014 0.986328 137.714 0.986328 131.178V111.452" stroke="white" stroke-width="1.5" />
		<g filter="url(#filter0_i_84_2159)">
			<path d="M71.9998 24.6575L112.999 48.3287V95.6712L71.9998 119.342L31 95.6712V48.3287L71.9998 24.6575Z" fill="#111111" />
		</g>
		<path d="M31.7402 48.7559L72.0003 25.5117L112.26 48.7559V95.2442L72.0003 118.488L31.7402 95.2442V48.7559Z" stroke="#B71DFF" stroke-width="1.5" />
		<path d="M111.946 95.1781L88.7676 81.3699" stroke="#B71DFF" stroke-width="1.5" />
		<path d="M32.5479 95.1781L55.7259 81.3699" stroke="#B71DFF" stroke-width="1.5" />
		<path d="M72 26.6301V50.7945" stroke="#B71DFF" stroke-width="1.5" />
	</g>
	<defs>
		<filter id="filter0_i_84_2159" x="31" y="24.6575" width="81.999" height="94.6848" filterUnits="userSpaceOnUse" color-interpolation-filters="sRGB">
			<feFlood flood-opacity="0" result="BackgroundImageFix" />
			<feBlend mode="normal" in="SourceGraphic" in2="BackgroundImageFix" result="shape" />
			<feColorMatrix in="SourceAlpha" type="matrix" values="0 0 0 0 0 0 0 0 0 0 0 0 0 0 0 0 0 0 127 0" result="hardAlpha" />
			<feOffset />
			<feGaussianBlur stdDeviation="10" />
			<feComposite in2="hardAlpha" operator="arithmetic" k2="-1" k3="1" />
			<feColorMatrix type="matrix" values="0 0 0 0 0.898039 0 0 0 0 1 0 0 0 0 0.364706 0 0 0 0.6 0" />
			<feBlend mode="normal" in2="shape" result="effect1_innerShadow_84_2159" />
		</filter>
		<clipPath id="clip0_84_2159">
			<rect width="144" height="144" fill="white" />
		</clipPath>
	</defs>
</svg>
