<svg width="144" height="144" viewBox="0 0 144 144" fill="none" xmlns="http://www.w3.org/2000/svg">
	<g clip-path="url(#clip0_84_2132)">
		<path d="M32.548 0.986328H12.8219C6.28531 0.986328 0.986328 6.28531 0.986328 12.8219V32.548" stroke="white" stroke-width="1.5" />
		<path d="M111.452 143.014H131.178C137.714 143.014 143.014 137.714 143.014 131.178V111.452" stroke="white" stroke-width="1.5" />
		<path d="M111.452 0.986328H131.178C137.714 0.986328 143.014 6.28531 143.014 12.8219V32.548" stroke="white" stroke-width="1.5" />
		<path d="M32.548 143.014H12.8219C6.28531 143.014 0.986328 137.714 0.986328 131.178V111.452" stroke="white" stroke-width="1.5" />
		<g filter="url(#filter0_d_84_2132)">
			<path d="M71.9997 119.342C98.1462 119.342 119.342 98.1465 119.342 71.9999C119.342 45.8534 98.1462 24.6575 71.9997 24.6575C45.8532 24.6575 24.6572 45.8534 24.6572 71.9999C24.6572 98.1465 45.8532 119.342 71.9997 119.342Z" fill="#111111" />
		</g>
		<path d="M72.0002 118.603C97.7382 118.603 118.603 97.7379 118.603 72C118.603 46.262 97.7382 25.3972 72.0002 25.3972C46.2622 25.3972 25.3975 46.262 25.3975 72C25.3975 97.7379 46.2622 118.603 72.0002 118.603Z" stroke="#B71DFF" stroke-width="1.5" />
		<path d="M89.7539 61.6438C89.7539 56.1966 85.338 51.7808 79.8909 51.7808H63.8635C58.2801 51.7808 53.7539 56.307 53.7539 61.8904C53.7539 67.4737 58.2801 71.9999 63.8635 71.9999H79.6443C85.2277 71.9999 89.7539 76.5262 89.7539 82.1095C89.7539 87.6929 85.2277 92.2191 79.6443 92.2191H63.1238C57.9489 92.2191 53.7539 88.0241 53.7539 82.8493" stroke="#B71DFF" stroke-width="1.5" />
		<path d="M72 99.6164V44.3835" stroke="#B71DFF" stroke-width="1.5" />
	</g>
	<defs>
		<filter id="filter0_d_84_2132" x="4.65723" y="4.65747" width="134.685" height="134.685" filterUnits="userSpaceOnUse" color-interpolation-filters="sRGB">
			<feFlood flood-opacity="0" result="BackgroundImageFix" />
			<feColorMatrix in="SourceAlpha" type="matrix" values="0 0 0 0 0 0 0 0 0 0 0 0 0 0 0 0 0 0 127 0" result="hardAlpha" />
			<feOffset />
			<feGaussianBlur stdDeviation="10" />
			<feComposite in2="hardAlpha" operator="out" />
			<feColorMatrix type="matrix" values="0 0 0 0 0.898039 0 0 0 0 1 0 0 0 0 0.364706 0 0 0 0.6 0" />
			<feBlend mode="normal" in2="BackgroundImageFix" result="effect1_dropShadow_84_2132" />
			<feBlend mode="normal" in="SourceGraphic" in2="effect1_dropShadow_84_2132" result="shape" />
		</filter>
		<clipPath id="clip0_84_2132">
			<rect width="144" height="144" fill="white" />
		</clipPath>
	</defs>
</svg>
