<svg width="144" height="144" viewBox="0 0 144 144" fill="none" xmlns="http://www.w3.org/2000/svg">
	<g clip-path="url(#clip0_84_527)">
		<path d="M32.5348 0.98584H12.817C6.2831 0.98584 0.986328 6.28262 0.986328 12.8165V32.5343" stroke="#D6D6D6" stroke-width="1.5" />
		<path d="M111.405 142.954H131.123C137.657 142.954 142.954 137.657 142.954 131.124V111.406" stroke="#D6D6D6" stroke-width="1.5" />
		<path d="M111.405 0.98584H131.123C137.657 0.98584 142.954 6.28262 142.954 12.8165V32.5343" stroke="#D6D6D6" stroke-width="1.5" />
		<path d="M32.5348 142.954H12.817C6.2831 142.954 0.986328 137.657 0.986328 131.124V111.406" stroke="#D6D6D6" stroke-width="1.5" />
		<g filter="url(#filter0_i_84_527)">
			<path d="M71.97 24.6475L112.952 48.3088V95.6316L71.97 119.293L30.9873 95.6316V48.3088L71.97 24.6475Z" fill="#EEEEEE" />
		</g>
		<path d="M31.7266 48.7355L71.9698 25.501L112.213 48.7355V95.2044L71.9698 118.439L31.7266 95.2044V48.7355Z" stroke="#B71DFF" stroke-width="1.5" />
		<path d="M70.9839 85.2023C78.1985 85.2023 84.047 79.3537 84.047 72.1392C84.047 64.9247 78.1985 59.0762 70.9839 59.0762C63.7694 59.0762 57.9209 64.9247 57.9209 72.1392C57.9209 79.3537 63.7694 85.2023 70.9839 85.2023Z" stroke="#B71DFF" stroke-width="1.5" />
		<path d="M80.8428 81.3359L86.6692 87.1274" stroke="#B71DFF" stroke-width="1.5" />
	</g>
	<defs>
		<filter id="filter0_i_84_527" x="30.9873" y="24.6475" width="81.9648" height="94.6455" filterUnits="userSpaceOnUse" color-interpolation-filters="sRGB">
			<feFlood flood-opacity="0" result="BackgroundImageFix" />
			<feBlend mode="normal" in="SourceGraphic" in2="BackgroundImageFix" result="shape" />
			<feColorMatrix in="SourceAlpha" type="matrix" values="0 0 0 0 0 0 0 0 0 0 0 0 0 0 0 0 0 0 127 0" result="hardAlpha" />
			<feOffset />
			<feGaussianBlur stdDeviation="10" />
			<feComposite in2="hardAlpha" operator="arithmetic" k2="-1" k3="1" />
			<feColorMatrix type="matrix" values="0 0 0 0 0.717647 0 0 0 0 0.113725 0 0 0 0 1 0 0 0 0.6 0" />
			<feBlend mode="normal" in2="shape" result="effect1_innerShadow_84_527" />
		</filter>
		<clipPath id="clip0_84_527">
			<rect width="143.94" height="143.94" fill="white" />
		</clipPath>
	</defs>
</svg>
