<svg width="144" height="144" viewBox="0 0 144 144" fill="none" xmlns="http://www.w3.org/2000/svg">
	<g clip-path="url(#clip0_84_2119)">
		<path d="M32.548 0.986328H12.8219C6.28531 0.986328 0.986328 6.28531 0.986328 12.8219V32.548" stroke="white" stroke-width="1.5" />
		<path d="M111.452 143.014H131.178C137.714 143.014 143.014 137.714 143.014 131.178V111.452" stroke="white" stroke-width="1.5" />
		<path d="M111.452 0.986328H131.178C137.714 0.986328 143.014 6.28531 143.014 12.8219V32.548" stroke="white" stroke-width="1.5" />
		<path d="M32.548 143.014H12.8219C6.28531 143.014 0.986328 137.714 0.986328 131.178V111.452" stroke="white" stroke-width="1.5" />
		<g filter="url(#filter0_i_84_2119)">
			<path fill-rule="evenodd" clip-rule="evenodd" d="M115.397 50.3015V93.6987V94.685H115.345C114.226 105.121 95.469 113.425 72.493 113.425C49.517 113.425 30.7593 105.121 29.6415 94.685H29.5889V93.6987V50.3015C29.5889 39.4071 48.7977 30.5754 72.493 30.5754C96.1883 30.5754 115.397 39.4071 115.397 50.3015Z" fill="black" />
		</g>
		<mask id="mask0_84_2119" style="mask-type:luminance" maskUnits="userSpaceOnUse" x="29" y="30" width="87" height="84">
			<path fill-rule="evenodd" clip-rule="evenodd" d="M115.397 50.3015V93.6987V94.685H115.345C114.226 105.121 95.469 113.425 72.493 113.425C49.517 113.425 30.7593 105.121 29.6415 94.685H29.5889V93.6987V50.3015C29.5889 39.4071 48.7977 30.5754 72.493 30.5754C96.1883 30.5754 115.397 39.4071 115.397 50.3015Z" fill="white" />
		</mask>
		<g mask="url(#mask0_84_2119)">
			<path d="M115.397 94.685V95.6713H116.383V94.685H115.397ZM115.345 94.685V93.6987H114.458L114.363 94.58L115.345 94.685ZM29.6415 94.685L30.6222 94.58L30.5278 93.6987H29.6415V94.685ZM29.5888 94.685H28.6025V95.6713H29.5888V94.685ZM114.411 50.3014V93.6987H116.383V50.3014H114.411ZM114.411 93.6987V94.685H116.383V93.6987H114.411ZM115.397 93.6987H115.345V95.6713H115.397V93.6987ZM72.4929 114.411C84.0878 114.411 94.6614 112.317 102.512 108.872C110.285 105.459 115.707 100.567 116.325 94.79L114.363 94.58C113.864 99.2397 109.349 103.717 101.719 107.065C94.1673 110.38 83.874 112.438 72.4929 112.438V114.411ZM28.6608 94.79C29.2795 100.567 34.7012 105.459 42.474 108.872C50.3245 112.317 60.8981 114.411 72.4929 114.411V112.438C61.1119 112.438 50.8186 110.38 43.2669 107.065C35.6373 103.717 31.1213 99.2397 30.6222 94.58L28.6608 94.79ZM29.6415 93.6987H29.5888V95.6713H29.6415V93.6987ZM30.5751 94.685V93.6987H28.6025V94.685H30.5751ZM30.5751 93.6987V50.3014H28.6025V93.6987H30.5751ZM72.4929 29.5891C60.5362 29.5891 49.6636 31.8153 41.7431 35.4569C33.9078 39.0594 28.6025 44.2356 28.6025 50.3014H30.5751C30.5751 45.4729 34.8743 40.7861 42.5672 37.2491C50.1749 33.7513 60.7544 31.5617 72.4929 31.5617V29.5891ZM116.383 50.3014C116.383 44.2356 111.078 39.0594 103.243 35.4569C95.3223 31.8153 84.4496 29.5891 72.4929 29.5891V31.5617C84.2315 31.5617 94.811 33.7513 102.418 37.2491C110.111 40.7861 114.411 45.4729 114.411 50.3014H116.383Z" fill="#B71DFF" />
		</g>
		<path d="M114.904 50.3015C114.904 55.4393 110.353 60.2485 102.624 63.8019C94.9388 67.3356 84.2861 69.5344 72.493 69.5344C60.6999 69.5344 50.0471 67.3356 42.3612 63.8019C34.6327 60.2485 30.082 55.4393 30.082 50.3015C30.082 45.1636 34.6327 40.3544 42.3612 36.8011C50.0471 33.2674 60.6999 31.0686 72.493 31.0686C84.2861 31.0686 94.9388 33.2674 102.624 36.8011C110.353 40.3544 114.904 45.1636 114.904 50.3015Z" stroke="#B71DFF" />
		<path d="M114.904 75.0005C111.76 84.471 93.9696 91.7261 72.493 91.7261C50.9851 91.7261 33.1734 84.4497 30.0684 74.959" stroke="#B71DFF" />
	</g>
	<defs>
		<filter id="filter0_i_84_2119" x="29.5889" y="30.5754" width="85.8086" height="82.8494" filterUnits="userSpaceOnUse" color-interpolation-filters="sRGB">
			<feFlood flood-opacity="0" result="BackgroundImageFix" />
			<feBlend mode="normal" in="SourceGraphic" in2="BackgroundImageFix" result="shape" />
			<feColorMatrix in="SourceAlpha" type="matrix" values="0 0 0 0 0 0 0 0 0 0 0 0 0 0 0 0 0 0 127 0" result="hardAlpha" />
			<feOffset />
			<feGaussianBlur stdDeviation="10" />
			<feComposite in2="hardAlpha" operator="arithmetic" k2="-1" k3="1" />
			<feColorMatrix type="matrix" values="0 0 0 0 0.898039 0 0 0 0 1 0 0 0 0 0.364706 0 0 0 0.6 0" />
			<feBlend mode="normal" in2="shape" result="effect1_innerShadow_84_2119" />
		</filter>
		<clipPath id="clip0_84_2119">
			<rect width="144" height="144" fill="white" />
		</clipPath>
	</defs>
</svg>
