<svg width="1309" height="1464" viewBox="0 0 1309 1464" fill="none" xmlns="http://www.w3.org/2000/svg">
	<g filter="url(#filter0_f_60_3587)">
		<path d="M652.071 756.529C637.075 931.938 513.661 997.375 453.828 1008.17C345.334 1008.17 361.807 867.864 291.939 723.015C236.045 607.137 290.992 458.123 325.453 398.101C440.953 292.447 691.265 92.1595 768.518 136.239C865.083 191.338 887.236 359.475 793.511 422.527C699.786 485.578 670.816 537.269 652.071 756.529Z" fill="url(#paint0_linear_60_3587)" />
		<path d="M652.071 756.529C637.075 931.938 513.661 997.375 453.828 1008.17C345.334 1008.17 361.807 867.864 291.939 723.015C236.045 607.137 290.992 458.123 325.453 398.101C440.953 292.447 691.265 92.1595 768.518 136.239C865.083 191.338 887.236 359.475 793.511 422.527C699.786 485.578 670.816 537.269 652.071 756.529Z" stroke="black" />
	</g>
	<defs>
		<filter id="filter0_f_60_3587" x="-186.925" y="-324.925" width="1495.31" height="1788.02" filterUnits="userSpaceOnUse" colorInterpolationFilters="sRGB">
			<feFlood floodOpacity="0" result="BackgroundImageFix" />
			<feBlend mode="normal" in="SourceGraphic" in2="BackgroundImageFix" result="shape" />
			<feGaussianBlur stdDeviation="227.213" result="effect1_foregroundBlur_60_3587" />
		</filter>
		<linearGradient id="paint0_linear_60_3587" x1="560.729" y1="130" x2="560.729" y2="1008.17" gradientUnits="userSpaceOnUse">
			<stop stopColor="#D08BFE" />
			<stop offset="1" stopColor="#3C38F4" />
		</linearGradient>
	</defs>
</svg>
