<svg width="663" height="401" viewBox="0 0 663 401" fill="none" xmlns="http://www.w3.org/2000/svg">
	<path opacity="0.2" d="M159.816 2.3158C159.816 15.066 162.367 27.6913 167.322 39.4709C172.278 51.2505 179.541 61.9537 188.698 70.9695C197.854 79.9852 208.725 87.1369 220.689 92.0162C232.652 96.8954 245.475 99.4068 258.424 99.4068C271.374 99.4068 284.196 96.8954 296.16 92.0161C308.123 87.1369 318.994 79.9852 328.15 70.9695C337.307 61.9537 344.57 51.2505 349.526 39.4709C354.481 27.6912 357.032 15.0659 357.032 2.31576L258.424 2.31579L159.816 2.3158Z" fill="white" />
	<path opacity="0.1" d="M236.029 224.726C236.029 239.946 232.984 255.018 227.069 269.079C221.153 283.141 212.483 295.918 201.552 306.68C190.621 317.443 177.645 325.98 163.364 331.805C149.082 337.629 133.775 340.627 118.317 340.627C102.859 340.627 87.5523 337.629 73.2708 331.805C58.9894 325.98 46.0129 317.443 35.0824 306.68C24.1518 295.918 15.4812 283.141 9.56567 269.079C3.65012 255.018 0.605392 239.946 0.605408 224.726L118.317 224.726H236.029Z" fill="white" />
	<path opacity="0.07" d="M244.696 400.848L351.187 308.905L444.587 223.409L444.587 400.848L244.696 400.848Z" fill="white" />
	<ellipse opacity="0.07" cx="565.816" cy="302.892" rx="83.0981" ry="84.5031" transform="rotate(90 565.816 302.892)" fill="white" />
	<rect opacity="0.2" x="662.467" y="1.31689" width="204.773" height="207.975" transform="rotate(90 662.467 1.31689)" fill="white" />
	<path opacity="0.2" d="M594.186 0.315918L496.418 93.9454L410.668 181.01L410.668 0.31591L594.186 0.315918Z" fill="white" />
</svg>
