<svg width="399" height="399" viewBox="0 0 399 399" fill="none" xmlns="http://www.w3.org/2000/svg">
	<path d="M199.254 0.87207C230.804 0.872071 261.902 8.38098 289.976 22.7782C318.05 37.1753 342.294 58.0473 360.705 83.6689L199.254 199.683V0.87207Z" fill="#7100BD" />
	<path d="M340.042 100.081C353.031 118.411 362.331 139.092 367.425 160.973L198.686 200.252L340.042 100.081Z" fill="#D1A3FF" />
	<path d="M362.139 163.971C369.001 194.305 367.257 225.952 357.102 255.347C346.948 284.743 328.786 310.719 304.665 330.349L199.254 200.819L362.139 163.971Z" fill="#7F38CC" />
	<path d="M323.877 352.063C291.132 378.185 250.917 393.196 209.065 394.919C167.212 396.642 125.899 384.987 91.1181 361.645C56.337 338.302 29.8965 304.487 15.6319 265.102C1.36726 225.718 0.0203383 182.814 11.7865 142.612L200.958 197.979L323.877 352.063Z" fill="#5A189A" />
	<path d="M40.3545 149.846C51.4 112.947 74.9434 81.0416 106.945 59.6056L199.253 197.411L40.3545 149.846Z" fill="#D1A3FF" />
	<path d="M124.781 84.5809C146.471 70.2652 171.826 62.5041 197.812 62.2269L199.254 197.411L124.781 84.5809Z" fill="#7F38CC" />
	<circle cx="202.662" cy="197.411" r="56.8032" fill="white" />
	<path d="M189.325 168.923V171.467H185.144V181.737H182.236V171.467H178.037V168.923H189.325ZM187.68 177.139C187.68 173.939 189.97 172.376 192.86 172.376C195.732 172.376 198.022 173.939 198.022 177.139C198.022 180.356 195.732 181.919 192.86 181.919C189.97 181.919 187.68 180.356 187.68 177.139ZM190.588 177.139C190.588 178.684 191.479 179.374 192.86 179.374C194.223 179.374 195.114 178.684 195.114 177.139C195.114 175.612 194.223 174.921 192.86 174.921C191.479 174.921 190.588 175.612 190.588 177.139ZM203.478 179.374L206.859 179.193V181.737L202.115 181.919C201.115 181.955 200.57 181.374 200.57 180.374V175.103H198.389V172.558H200.57V170.831L203.478 169.922V172.558H206.496V175.103H203.478V179.374ZM207.951 179.229C207.951 177.647 208.897 176.72 211.623 176.339L214.513 175.939C214.513 175.194 213.932 174.739 212.677 174.739C211.514 174.739 210.86 175.23 210.86 176.066H208.133C208.133 173.739 210.114 172.376 212.677 172.376C215.204 172.376 217.422 173.594 217.422 176.611V179.193H218.749V181.737H216.731C215.858 181.737 215.368 181.247 215.368 180.374V180.192L215.822 179.102H215.095C214.75 180.629 213.859 181.919 211.296 181.919C208.442 181.919 207.951 180.174 207.951 179.229ZM210.86 178.684C210.86 179.211 211.369 179.374 211.859 179.374C213.459 179.374 214.513 178.702 214.513 177.575L212.168 177.902C211.296 178.029 210.86 178.156 210.86 178.684ZM219.468 181.737V179.193H222.012V170.813L219.831 170.922V168.377L223.339 168.25C224.357 168.214 224.921 168.759 224.921 169.777V179.193H227.465V181.737H219.468ZM181.341 198.211C181.341 200.41 179.796 201.919 175.851 201.919C171.234 201.919 169.507 200.029 169.507 196.793H172.416C172.416 198.756 173.397 199.374 175.942 199.374C177.814 199.374 178.432 198.938 178.432 198.247C178.432 197.32 176.869 196.902 174.997 196.266C172.288 195.357 170.089 194.63 170.089 192.122C170.089 189.94 171.816 188.741 175.124 188.741C179.05 188.741 180.813 190.74 180.813 193.285H177.905C177.905 191.722 176.705 191.286 175.124 191.286C173.815 191.286 172.997 191.576 172.997 192.231C172.997 192.812 173.306 193.031 175.36 193.721C177.723 194.521 181.341 195.539 181.341 198.211ZM187.237 199.374C188.819 199.374 189.855 198.538 189.855 195.957V192.558H192.763V201.737H189.855V200.629L190.4 198.993H189.673C189.309 200.629 188.164 201.919 186.201 201.919C183.856 201.919 182.439 200.356 182.439 197.52V192.558H185.347V197.066C185.347 198.738 185.838 199.374 187.237 199.374ZM194.212 192.558H197.12V193.121L196.575 194.757H197.302C197.774 193.539 198.647 192.376 200.919 192.376C203.573 192.376 204.9 194.557 204.9 197.157C204.9 199.756 203.573 201.919 200.919 201.919C198.647 201.919 197.774 200.756 197.302 199.538H196.575L197.12 201.174V205.191H194.212V192.558ZM197.12 197.157C197.12 198.72 197.993 199.374 199.556 199.374C201.119 199.374 201.992 198.72 201.992 197.157C201.992 195.593 201.119 194.921 199.556 194.921C197.993 194.921 197.12 195.593 197.12 197.157ZM205.998 192.558H208.907V193.121L208.361 194.757H209.088C209.561 193.539 210.434 192.376 212.706 192.376C215.36 192.376 216.686 194.557 216.686 197.157C216.686 199.756 215.36 201.919 212.706 201.919C210.434 201.919 209.561 200.756 209.088 199.538H208.361L208.907 201.174V205.191H205.998V192.558ZM208.907 197.157C208.907 198.72 209.779 199.374 211.342 199.374C212.906 199.374 213.778 198.72 213.778 197.157C213.778 195.593 212.906 194.921 211.342 194.921C209.779 194.921 208.907 195.593 208.907 197.157ZM217.417 201.737V199.193H219.962V190.813L217.781 190.922V188.377L221.289 188.25C222.307 188.214 222.87 188.759 222.87 189.777V199.193H225.415V201.737H217.417ZM232.711 192.558H236.001L231.802 201.192V204.028C231.802 205.046 231.239 205.591 230.239 205.554L225.749 205.427V202.882L228.894 202.937V201.192L224.695 192.558H227.967L229.985 197.611V199.065H230.712V197.611L232.711 192.558ZM189.016 215.012C191.379 214.085 192.269 212.849 192.269 209.923H197.922V222.737H195.014V212.286L195.559 210.65H194.832C194.614 213.958 193.978 216.43 190.034 217.648L189.016 215.012ZM205.2 222.737V209.923H209.708C213.27 209.923 214.997 210.541 214.997 213.067C214.997 215.466 213.288 215.521 211.925 215.63V216.357C213.87 216.43 215.942 216.612 215.942 219.338C215.942 222.247 213.27 222.737 209.926 222.737H205.2ZM208.108 214.794H210.071C211.253 214.794 212.089 214.794 212.089 213.631C212.089 212.467 211.253 212.467 210.071 212.467H208.108V214.794ZM208.108 220.193H210.289C212.016 220.193 213.034 220.193 213.034 218.775C213.034 217.339 212.016 217.339 210.289 217.339H208.108V220.193Z" fill="black" />
</svg>
