<svg width="129" height="24" viewBox="0 0 129 24" fill="none" xmlns="http://www.w3.org/2000/svg">
	<mask id="mask0_84_2011" style="mask-type:luminance" maskUnits="userSpaceOnUse" x="0" y="0" width="129" height="24">
		<path d="M128.969 0.953125H0.96875V23.2031H128.969V0.953125Z" fill="white" />
	</mask>
	<g mask="url(#mask0_84_2011)">
		<mask id="mask1_84_2011" style="mask-type:luminance" maskUnits="userSpaceOnUse" x="0" y="0" width="130" height="24">
			<path d="M129.791 0.026001H0.96875V23.6514H129.791V0.026001Z" fill="white" />
		</mask>
		<g mask="url(#mask1_84_2011)">
			<path d="M5.16903 18.6098H8.41324V6.37093H12.6574V3.41858H0.96875V6.37177H5.16903V18.6098ZM12.6617 18.6098H15.7061V13.4965C15.7061 11.7204 16.6614 10.6505 18.1073 10.6505C18.6174 10.6505 19.0178 10.7358 19.484 10.8859V7.91164C19.1522 7.81924 18.8076 7.77599 18.4622 7.78339C17.2178 7.78339 16.0847 8.57485 15.7061 9.6228V7.91248H12.6617V18.6098ZM25.3274 18.8451C26.861 18.8451 28.0161 18.0959 28.5278 17.4108V18.6089H31.5723V7.91248H28.5278V9.11064C28.0161 8.42634 26.861 7.67708 25.3274 7.67708C22.3724 7.67708 20.1053 10.2447 20.1053 13.2611C20.1053 16.2784 22.3724 18.846 25.3283 18.846L25.3274 18.8451ZM25.9724 16.1704C24.2828 16.1704 23.1716 14.9512 23.1716 13.2611C23.1716 11.5702 24.2828 10.3501 25.9724 10.3501C27.6611 10.3501 28.7723 11.5702 28.7723 13.2611C28.7723 14.9512 27.6611 16.1704 25.9724 16.1704ZM38.8204 18.8451C40.354 18.8451 41.509 18.0959 42.0199 17.4108V18.6089H45.0643V2.56385H42.0199V9.11148C41.509 8.42634 40.354 7.67708 38.8204 7.67708C35.8645 7.67708 33.5974 10.2447 33.5974 13.2611C33.5974 16.2784 35.8645 18.8451 38.8204 18.8451ZM39.4645 16.1704C37.7758 16.1704 36.6646 14.9512 36.6646 13.2611C36.6646 11.5702 37.7758 10.3501 39.4645 10.3501C41.1532 10.3501 42.2644 11.5702 42.2644 13.2611C42.2644 14.9512 41.1532 16.1704 39.4645 16.1704ZM49.3128 6.28064C49.5683 6.28275 49.8218 6.23621 50.0586 6.14369C50.2955 6.05117 50.511 5.9145 50.6927 5.74152C50.8745 5.56854 51.019 5.36268 51.1179 5.13577C51.2166 4.90885 51.268 4.66536 51.2688 4.4193C51.268 4.17322 51.2166 3.92973 51.1179 3.70282C51.019 3.47591 50.8745 3.27005 50.6927 3.09707C50.511 2.9241 50.2955 2.78742 50.0586 2.69489C49.8218 2.60237 49.5683 2.55583 49.3128 2.55795C48.8013 2.56191 48.3121 2.7593 47.9504 3.10751C47.5887 3.45572 47.3837 3.92686 47.3796 4.4193C47.3837 4.91173 47.5887 5.38286 47.9504 5.73108C48.3121 6.0793 48.8013 6.27667 49.3128 6.28064ZM47.802 18.6098H50.8464V8.03399H47.802V18.6098ZM53.5473 18.6098H56.5916V13.3893C56.5916 11.3348 57.6362 10.351 59.0586 10.351C60.3249 10.351 61.0145 11.2927 61.0145 12.8324V18.6098H64.0589V12.3405C64.0589 9.55952 62.4587 7.67623 59.7701 7.67623C58.3251 7.67623 57.1919 8.27531 56.5916 9.13088V7.91164H53.5473V18.6098ZM71.8057 15.7629C70.2721 15.7629 68.984 14.65 68.984 13.024C68.984 11.377 70.2721 10.2852 71.8057 10.2852C73.3393 10.2852 74.6276 11.377 74.6276 13.024C74.6276 14.65 73.3393 15.7629 71.8057 15.7629ZM71.4499 23.2302C74.8502 23.2302 77.4283 21.5612 77.4283 17.7095V7.84667H74.3839V9.04482C73.7837 8.21118 72.5831 7.61211 71.1616 7.61211C68.2505 7.61211 65.9168 10.0084 65.9168 13.0249C65.9168 16.0202 68.2505 18.4166 71.1616 18.4166C72.5839 18.4166 73.7837 17.7963 74.3839 17.0049V17.7323C74.3839 19.4442 73.2061 20.6635 71.4061 20.6635C70.1617 20.6635 68.9174 20.2568 67.9394 19.3371L66.2726 21.519C67.5389 22.6962 69.5167 23.2302 71.4499 23.2302ZM83.8651 18.6098H86.7306L93.2646 3.41858H89.7093L85.3093 13.9665L80.8425 3.41858H77.3539L83.8651 18.6098ZM96.0588 6.15745C96.3139 6.15945 96.5671 6.11283 96.8036 6.02026C97.0411 5.92769 97.2563 5.79099 97.4381 5.61802C97.619 5.44506 97.7636 5.23924 97.8629 5.01238C97.9612 4.78552 98.0132 4.5421 98.0132 4.29611C98.0132 4.0501 97.9612 3.80669 97.8629 3.57983C97.7636 3.35297 97.619 3.14714 97.4381 2.97418C97.2563 2.80122 97.0411 2.66452 96.8036 2.57195C96.5671 2.47937 96.3139 2.43275 96.0588 2.43475C95.0135 2.43475 94.124 3.2684 94.124 4.29611C94.124 5.32297 95.0135 6.15745 96.0588 6.15745ZM94.547 18.6098H97.5911V7.91164H94.547V18.6098ZM105.471 18.8451C107.803 18.8451 109.581 17.9035 110.626 16.4489L108.359 14.8229C107.848 15.5713 106.892 16.1704 105.492 16.1704C104.026 16.1704 102.715 15.379 102.537 13.9454H110.847C110.914 13.4957 110.892 13.1961 110.892 12.9396C110.892 9.45236 108.337 7.67623 105.425 7.67623C102.048 7.67623 99.5816 10.0936 99.5816 13.2603C99.5816 16.6413 102.159 18.8451 105.471 18.8451ZM102.647 11.9558C102.937 10.6505 104.204 10.0936 105.337 10.0936C106.47 10.0936 107.582 10.6716 107.848 11.9558H102.647ZM122.298 18.6098H125.32L128.986 7.91164H125.72L123.632 14.758L121.365 7.91164H119.031L116.787 14.758L114.676 7.91164H111.431L115.121 18.6098H118.143L120.209 12.5329L122.298 18.6098Z" fill="black" />
		</g>
	</g>
</svg>
