<svg width="121" height="24" viewBox="0 0 121 24" fill="none" xmlns="http://www.w3.org/2000/svg">
	<g clip-path="url(#clip0_84_2006)">
		<path d="M16.6411 18.9021C15.2978 18.9021 14.2903 18.5662 13.3948 18.0066C12.6112 17.4469 12.2754 16.5514 12.2754 15.544H14.5142C14.5142 15.9917 14.6262 16.3276 15.074 16.6634C15.4098 16.8872 15.9695 16.9992 16.6411 16.9992H17.6486C18.2379 16.9999 18.817 16.8454 19.3277 16.5514C19.6635 16.2156 19.8875 15.7679 19.8875 15.3202C19.8875 14.7605 19.6635 14.4247 19.3277 14.0889C18.8932 13.7907 18.3947 13.599 17.8724 13.5292L16.1933 13.1934C13.7307 12.8576 12.4992 11.6263 12.4992 9.72345C12.4723 9.22039 12.559 8.71772 12.7528 8.25268C12.9466 7.78765 13.2425 7.37218 13.6187 7.03704C14.2903 6.47737 15.4098 6.14157 16.7531 6.14157H17.6486C18.88 6.14157 19.8875 6.47737 20.783 7.03704C21.4546 7.59672 21.9024 8.38025 21.9024 9.27572H19.6635C19.6635 8.93992 19.4397 8.60411 19.1038 8.38025C18.768 8.15638 18.2082 8.04444 17.6486 8.04444H16.6411C15.9695 8.04444 15.5217 8.26831 15.074 8.49218C14.7381 8.82798 14.5142 9.16379 14.5142 9.61152C14.5142 10.507 15.1858 11.0666 16.4172 11.2905L18.0964 11.5144C19.2158 11.5144 20.1113 11.9621 21.0068 12.6337C21.6785 13.3053 21.9024 14.0889 21.9024 15.2082C21.9292 15.7113 21.8426 16.214 21.6489 16.679C21.4551 17.144 21.1592 17.5595 20.783 17.8946C19.9993 18.5662 18.88 18.9021 17.4247 18.9021H16.6411ZM29.5144 18.9021C28.0592 18.9021 26.9398 18.4543 26.0443 17.6707C25.1487 16.7753 24.589 15.4321 24.7009 14.2008V6.36543H26.9398V14.2008C26.9398 15.0963 27.1636 15.7679 27.6114 16.2156C27.861 16.466 28.1575 16.6648 28.4841 16.8003C28.8107 16.936 29.1608 17.0057 29.5144 17.0057C29.868 17.0057 30.2182 16.936 30.5446 16.8003C30.8712 16.6648 31.1679 16.466 31.4174 16.2156C31.8651 15.7679 32.0891 15.0963 32.0891 14.2008V6.36543H34.3279V14.2008C34.3279 15.656 33.8802 16.7753 32.9846 17.5589C32.201 18.4543 30.9696 18.9021 29.5144 18.9021ZM41.2683 18.9021C40.0369 18.9021 39.0294 18.4543 38.2459 17.6707C37.5742 16.8872 37.1264 15.656 37.1264 14.3127V10.7308C37.1264 9.51991 37.5192 8.34161 38.2459 7.37284C39.0294 6.5893 40.0369 6.14157 41.2683 6.14157C42.0709 6.09015 42.8654 6.32845 43.5071 6.81317C44.0669 7.26091 44.4027 7.93251 44.6265 8.71605V2.33582H46.8653V18.6782H44.6265V16.4395C44.4027 17.1111 44.0669 17.7827 43.5071 18.2304C42.9474 18.6782 42.1638 18.9021 41.2683 18.9021ZM42.0519 16.9992C42.8355 16.9992 43.3952 16.7752 43.9549 16.2156C44.4027 15.7679 44.6265 15.0963 44.6265 14.2008V10.8428C44.6265 9.94732 44.4027 9.27572 43.9549 8.82799C43.3952 8.26831 42.8355 8.04444 42.0519 8.04444C41.1563 8.04444 40.5967 8.26831 40.0369 8.82799C39.5892 9.27572 39.3652 9.94732 39.3652 10.8428V14.2008C39.3652 15.0963 39.5892 15.7679 40.0369 16.2156C40.5967 16.7752 41.1563 16.9992 42.0519 16.9992ZM54.5894 18.9021C53.1341 18.9021 51.9028 18.4543 51.0072 17.5589C50.5675 17.1193 50.2218 16.595 49.9908 16.0177C49.7599 15.4405 49.6486 14.8224 49.6639 14.2008V10.8428C49.642 10.2204 49.7501 9.60034 49.9814 9.02213C50.2126 8.44392 50.562 7.92032 51.0072 7.48478C51.9028 6.5893 53.1341 6.14157 54.5894 6.14157C56.1565 6.14157 57.276 6.5893 58.1715 7.48478C58.6166 7.92032 58.966 8.44392 59.1973 9.02213C59.4286 9.60034 59.5367 10.2204 59.5148 10.8428V14.2008C59.5367 14.8231 59.4286 15.4432 59.1973 16.0215C58.966 16.5997 58.6166 17.1233 58.1715 17.5589C57.276 18.4543 56.1565 18.9021 54.5894 18.9021ZM54.5894 16.8872C55.4849 16.8872 56.0445 16.6634 56.6043 16.2156C57.0521 15.7679 57.276 15.0963 57.276 14.0889V10.9548C57.276 9.94732 57.0521 9.27572 56.6043 8.82799C56.0445 8.38025 55.4849 8.15638 54.5894 8.15638C53.8058 8.15638 53.1341 8.38025 52.5744 8.82799C52.1266 9.27572 51.9028 9.94732 51.9028 10.9548V14.0889C51.9028 15.0963 52.1266 15.7679 52.5744 16.2156C53.1341 16.6634 53.6938 16.8872 54.5894 16.8872ZM66.679 18.9021C65.4477 18.9021 64.4402 18.5662 63.5447 18.0066C63.1521 17.7296 62.8343 17.3598 62.6194 16.9301C62.4045 16.5005 62.2994 16.0243 62.3133 15.544H64.5522C64.5522 15.9917 64.7761 16.3276 65.1119 16.6634C65.5597 16.8872 66.1194 16.9992 66.791 16.9992H67.6865C68.4701 16.9992 69.0298 16.7753 69.4776 16.5514C69.8134 16.2156 70.0373 15.7679 70.0373 15.3202C70.0373 14.7605 69.8134 14.4247 69.4776 14.0889C69.0104 13.7738 68.4715 13.5814 67.9105 13.5292L66.2313 13.1934C63.7686 12.8576 62.5372 11.6263 62.5372 9.72345C62.5372 8.60412 62.985 7.70865 63.6566 7.03704C64.6212 6.4124 65.7545 6.09976 66.903 6.14157H67.7985C69.0298 6.14157 70.0373 6.47737 70.8209 7.03704C71.6045 7.59672 71.9403 8.38025 71.9403 9.27572H69.7015C69.7015 8.93992 69.5896 8.60411 69.1418 8.38025C68.806 8.15638 68.3582 8.04444 67.6865 8.04444H67.0149C66.2313 8.04444 65.7835 8.26831 65.4477 8.49218C64.9999 8.82798 64.888 9.16379 64.888 9.61152C64.888 10.507 65.4477 11.0666 66.679 11.2905L68.3582 11.5144C69.4776 11.5144 70.597 11.9621 71.3806 12.6337C71.9403 13.3053 72.2762 14.0889 72.2762 15.2082C72.3031 15.7113 72.2164 16.214 72.0226 16.679C71.8288 17.144 71.5329 17.5595 71.1567 17.8946C70.3731 18.5662 69.2537 18.9021 67.7985 18.9021H66.791H66.679ZM75.6344 18.6782L73.6195 6.36543H75.5224L76.6419 14.7605L76.9777 16.9992L77.3135 14.7605L78.6568 6.36543H80.6718L82.0151 14.7605L82.3509 16.9992L82.6867 14.7605L83.8061 6.36543H85.7091L83.6942 18.6782H81.2315L80.0001 10.3951L79.6643 8.15638C79.6643 8.93992 79.4404 9.61152 79.3285 10.3951L77.9852 18.6782H75.6344ZM91.0824 18.9021C89.963 18.9021 88.8435 18.5662 87.948 17.8946C87.2764 17.223 86.8286 16.3276 86.8286 15.2082C86.8016 14.7051 86.8883 14.2025 87.0821 13.7375C87.2759 13.2724 87.5718 12.857 87.948 12.5218C88.8435 11.8502 89.851 11.4025 91.1943 11.4025H94.7765V10.2831C94.7874 9.97195 94.7333 9.66189 94.6177 9.37279C94.5021 9.08369 94.3273 8.82188 94.1048 8.60412C93.657 8.26831 92.9854 8.04444 92.3137 8.04444C91.5301 8.04444 90.9704 8.15638 90.5226 8.49218C90.0749 8.82798 89.7391 9.16379 89.6271 9.61152H87.3882C87.5002 8.93992 87.836 8.38025 88.1719 7.82057C88.6197 7.26091 89.2913 6.92511 89.963 6.5893C90.6346 6.2535 91.4182 6.14157 92.2017 6.14157C93.769 6.14157 94.8883 6.47737 95.672 7.26091C96.5675 8.04444 97.0153 8.93992 97.0153 10.2831V18.6782H94.7765V16.4395C94.7765 17.223 94.3287 17.7827 93.657 18.2304C92.8867 18.71 91.9888 18.9442 91.0824 18.9021ZM91.6421 17.223C92.5376 17.223 93.3212 16.9992 93.8809 16.5514C94.4406 15.9917 94.7765 15.4321 94.7765 14.7605V13.0815H91.1943C90.6194 13.0598 90.0582 13.2602 89.6271 13.6412C89.2913 13.977 89.0675 14.4247 89.0675 15.0963C89.0675 15.7679 89.2913 16.2156 89.7391 16.6634C90.1868 16.9992 90.8584 17.223 91.6421 17.223ZM100.038 22.7078V6.36543H102.277V8.60412C102.277 7.93251 102.724 7.26091 103.396 6.81317C104.037 6.32845 104.832 6.09015 105.635 6.14157C106.755 6.14157 107.873 6.5893 108.546 7.37284C109.272 8.34161 109.664 9.51991 109.664 10.7308V14.3127C109.664 15.656 109.217 16.8872 108.546 17.6707C107.761 18.4543 106.755 18.9021 105.523 18.9021C104.627 18.9021 103.956 18.6782 103.284 18.2304C102.724 17.7827 102.388 17.1111 102.165 16.3276V22.7078H99.9258H100.038ZM104.852 16.9992C105.635 16.9992 106.306 16.7752 106.755 16.2156C107.202 15.7679 107.426 15.0963 107.426 14.2008V10.8428C107.426 9.94732 107.202 9.27572 106.755 8.82799C106.306 8.26831 105.635 8.04444 104.852 8.04444C103.956 8.04444 103.396 8.26831 102.948 8.82799C102.388 9.27572 102.165 9.94732 102.165 10.8428V14.2008C102.165 15.0963 102.388 15.7679 102.948 16.2156C103.396 16.7752 104.068 16.9992 104.852 16.9992Z" fill="black" />
		<path d="M0.96875 2.15515H3.54341L6.56584 10.5502L3.43147 18.9453H0.96875L4.10312 10.5502L0.96875 2.15515Z" fill="black" />
		<path d="M120.873 2.15515H118.297L115.275 10.5502L118.409 18.9453H120.873L117.738 10.5502L120.873 2.15515Z" fill="black" />
	</g>
	<defs>
		<clipPath id="clip0_84_2006">
			<rect width="120" height="23.8" fill="white" transform="translate(0.96875 0.171875)" />
		</clipPath>
	</defs>
</svg>
