<svg width="86" height="24" viewBox="0 0 86 24" fill="none" xmlns="http://www.w3.org/2000/svg">
	<g clip-path="url(#clip0_84_2000)">
		<mask id="mask0_84_2000" style="mask-type:luminance" maskUnits="userSpaceOnUse" x="1" y="4" width="85" height="17">
			<path d="M85.1548 4.27502H1.94336V20.4253H85.1548V4.27502Z" fill="white" />
		</mask>
		<g mask="url(#mask0_84_2000)">
			<path d="M40.8709 4.27542V6.38856C38.8495 6.36142 38.377 7.50671 38.4191 9.4854H45.1334V18.1929H46.4535V20.1969H41.2482V18.1929H42.606V11.4892H38.4191C38.4316 13.7236 38.4442 15.9582 38.4568 18.1929H40.4183V20.1969H34.4584V18.1929L35.9295 18.1566V11.4892H34.4584V9.4854H35.9295C35.8825 6.03879 37.3306 4.23581 40.8709 4.27542ZM79.6853 4.27542H83.7968V18.1929H85.1548V20.1969H81.7977V18.1566C81.7723 18.1687 81.7475 18.1809 81.7222 18.1929C81.0806 19.9463 77.8845 21.0078 75.536 20.0876C73.6123 19.3338 72.5259 17.7522 72.1412 15.4969C71.5184 11.8485 74.862 8.47907 78.6669 9.33967C79.8637 9.61037 80.4643 10.1961 81.2696 10.797V6.27926H79.6853V4.27542ZM1.98108 4.78549H9.07253C14.5906 4.7853 17.4698 5.08676 19.5589 8.42883C20.2406 9.51951 20.9372 11.3505 20.615 13.3109C20.0461 16.773 18.344 18.9081 15.1833 19.8325C13.6726 20.2744 11.6407 20.1969 9.67606 20.1969H1.94336V18.0473H3.60306V6.89863H1.98108V4.78549ZM6.20578 6.89863V18.0473H7.79004V6.89863H6.20578ZM10.3928 6.89863V18.0473C13.4456 18.0823 15.5408 17.8336 16.8052 16.1891C17.2332 15.6326 17.5523 14.9163 17.7482 14.1488C18.6258 10.7126 16.8273 7.93895 14.3534 7.19009C13.2714 6.86256 11.8054 6.88904 10.3928 6.89863ZM27.1029 9.2668C30.5211 9.22418 32.331 10.6704 33.0627 13.2016C33.2257 13.765 33.4098 14.6748 33.2136 15.3512H24.3871C24.5545 15.9582 24.6218 16.4886 24.9151 16.9542C25.6528 18.1249 27.7259 18.8365 29.517 18.0837C30.3119 17.7497 30.5125 17.1021 31.0636 16.5535H33.2513V16.59C32.7237 18.1016 31.8748 19.3021 30.4223 19.9053C27.9542 20.9305 24.7472 20.2459 23.4441 18.6666C23.0046 18.1341 22.6052 17.5104 22.3501 16.8085C21.247 13.7727 22.9596 11.0512 24.8774 9.95903C25.542 9.58057 26.1798 9.30535 27.1029 9.2668ZM58.675 18.1929V20.1969H53.6582V18.1929H54.8652C54.8845 16.8213 55.13 13.3588 54.7143 12.4001C54.491 11.8852 53.9596 11.53 53.3187 11.4164C50.2675 10.8752 51.023 15.6726 51.0554 18.1929H52.2625V20.1969H47.2457V18.1929H48.5282V11.4892H47.2457V9.4854H50.4142C50.4266 10.0562 50.4392 10.6269 50.4519 11.1978V11.1249C50.8559 10.6158 51.1565 10.1154 51.7344 9.77687C54.1583 8.35629 56.7323 9.71957 57.2794 11.8536C57.609 13.1397 57.3548 15.3095 57.3548 16.7721C57.3672 17.2457 57.3798 17.7194 57.3925 18.1929H58.675ZM64.6348 9.2668C68.0531 9.22418 69.8629 10.6704 70.5946 13.2016C70.7576 13.765 70.9417 14.6748 70.7455 15.3512H61.919C62.0864 15.9582 62.1536 16.4886 62.447 16.9542C63.1848 18.1249 65.2576 18.8365 67.0489 18.0837C67.8437 17.7497 68.0444 17.1021 68.5955 16.5535H70.7832V16.59C70.2555 18.1016 69.4068 19.3021 67.9542 19.9053C65.4861 20.9305 62.2791 20.2459 60.976 18.6666C60.5368 18.1347 60.1352 17.5102 59.882 16.8085C58.7847 13.7683 60.4864 11.0543 62.4093 9.95903C63.0739 9.58057 63.7081 9.33632 64.6348 9.2668ZM30.9504 13.8574C30.8347 11.9857 28.673 10.4811 26.4994 11.3435C25.358 11.7965 24.8631 12.6361 24.4625 13.821L30.9504 13.8574ZM68.4823 13.8574C68.3665 11.9857 66.2047 10.4811 64.0313 11.3435C62.8899 11.7965 62.3949 12.6361 61.9944 13.821L68.4823 13.8574ZM77.573 11.4164C76.3316 11.4597 75.1562 12.1532 74.6684 13.8574C73.9839 16.2503 75.9566 18.666 78.4406 18.2294C82.4189 17.5302 82.2899 11.3444 77.573 11.4164ZM43.7377 4.27542C44.1032 4.27542 44.4606 4.38012 44.7645 4.57628C45.0684 4.77245 45.3054 5.05127 45.4453 5.37748C45.5851 5.70369 45.6218 6.06264 45.5504 6.40894C45.4791 6.75524 45.3031 7.07335 45.0446 7.32302C44.7861 7.57268 44.4568 7.74271 44.0982 7.8116C43.7397 7.88048 43.3681 7.84513 43.0303 7.71C42.6926 7.57489 42.404 7.34606 42.2008 7.05248C41.9977 6.7589 41.8893 6.41375 41.8893 6.06066C41.8893 5.58718 42.0841 5.1331 42.4307 4.7983C42.7774 4.46351 43.2475 4.27542 43.7377 4.27542Z" fill="black" />
		</g>
	</g>
	<defs>
		<clipPath id="clip0_84_2000">
			<rect width="84.8" height="23.4" fill="white" transform="translate(0.96875 0.375)" />
		</clipPath>
	</defs>
</svg>
