<svg width="30" height="24" viewBox="0 0 30 24" fill="none" xmlns="http://www.w3.org/2000/svg">
	<g clip-path="url(#clip0_84_1993)">
		<mask id="mask0_84_1993" style="mask-type:luminance" maskUnits="userSpaceOnUse" x="0" y="3" width="30" height="18">
			<path d="M29.0519 3.27209H0.917969V20.3971H29.0519V3.27209Z" fill="white" />
		</mask>
		<g mask="url(#mask0_84_1993)">
			<path fill-rule="evenodd" clip-rule="evenodd" d="M11.869 4.38718C10.7949 3.64362 9.51067 3.27185 8.01629 3.27185C6.52191 3.27185 5.23767 3.64362 4.16358 4.38718C3.0895 5.11523 2.28003 6.12213 1.73521 7.40786C1.19038 8.69359 0.917969 10.1652 0.917969 11.8227C0.917969 13.4802 1.19038 14.9518 1.73521 16.2375C2.28003 17.5233 3.0895 18.5379 4.16358 19.2814C5.23767 20.0095 6.52191 20.3735 8.01629 20.3735C9.51067 20.3735 10.7949 20.0095 11.869 19.2814C12.9431 18.5379 13.7525 17.5233 14.2974 16.2375C14.8422 14.9518 15.1146 13.4802 15.1146 11.8227C15.1146 10.1652 14.8422 8.69359 14.2974 7.40786C13.7525 6.12213 12.9431 5.11523 11.869 4.38718ZM10.0389 7.25076C9.5171 6.70489 8.84288 6.43194 8.01629 6.43194C6.91106 6.43194 6.07048 6.9199 5.49452 7.89582C4.93413 8.87172 4.65393 10.1807 4.65393 11.8227C4.65393 12.8534 4.76435 13.7531 4.9852 14.5214L10.0389 7.25076ZM5.97876 16.3928C6.50958 16.9399 7.18876 17.2135 8.01629 17.2135C9.12151 17.2135 9.95432 16.7255 10.5147 15.7496C11.0907 14.7736 11.3786 13.4647 11.3786 11.8227C11.3786 10.7888 11.2645 9.88687 11.0361 9.11703L5.97876 16.3928Z" fill="black" />
			<path d="M19.547 13.5879L15.1572 20.0011H19.3602L21.415 16.3762C21.5706 16.1283 21.664 15.8031 21.6952 15.4003C21.7108 15.2454 21.7419 15.1292 21.7885 15.0518C21.8353 14.9588 21.9287 14.9123 22.0687 14.9123C22.2867 14.9123 22.4112 15.0518 22.4424 15.3306V15.4003C22.4735 15.8031 22.5669 16.1283 22.7225 16.3762L24.7773 20.0011H28.9803L24.5906 13.5879L28.6067 7.73242H24.4038L22.7225 10.7763C22.5358 11.1017 22.4424 11.4269 22.4424 11.7523C22.4424 11.8917 22.4112 12.0078 22.349 12.1008C22.3022 12.1938 22.2089 12.2402 22.0687 12.2402C21.9287 12.2402 21.8275 12.1938 21.7652 12.1008C21.7185 12.0078 21.6952 11.8917 21.6952 11.7523C21.6952 11.4269 21.6018 11.1017 21.415 10.7763L19.7337 7.73242H15.5309L19.547 13.5879Z" fill="black" />
		</g>
	</g>
	<defs>
		<clipPath id="clip0_84_1993">
			<rect width="28.8" height="23.04" fill="white" transform="translate(0.765625 0.5625)" />
		</clipPath>
	</defs>
</svg>
