<svg width="109" height="26" viewBox="0 0 109 26" fill="none" xmlns="http://www.w3.org/2000/svg">
	<g clip-path="url(#clip0_84_1982)">
		<mask id="mask0_84_1982" style="mask-type:luminance" maskUnits="userSpaceOnUse" x="0" y="0" width="109" height="26">
			<path d="M108.562 0.96875H0.5625V25.1887H108.562V0.96875Z" fill="white" />
		</mask>
		<g mask="url(#mask0_84_1982)">
			<mask id="mask1_84_1982" style="mask-type:luminance" maskUnits="userSpaceOnUse" x="0" y="0" width="110" height="26">
				<path d="M109.032 0.96875H0.0224609V25.1887H109.032V0.96875Z" fill="white" />
			</mask>
			<g mask="url(#mask1_84_1982)">
				<path d="M18.1488 4.16665C18.1044 4.25465 17.9979 4.29224 17.9073 4.25191C16.5589 3.64414 14.9201 3.43879 13.843 3.43879C9.97015 3.43879 6.09645 5.30978 6.09645 8.3853C6.09645 10.0344 7.34481 11.4296 9.16968 11.4296C11.1861 11.4296 12.6908 9.9712 13.9069 8.63923C14.995 7.43469 16.2758 6.10272 18.0997 6.10272C20.0847 6.10272 21.5246 7.56119 21.5246 9.52751C21.5246 12.6351 17.7472 16.1232 12.5297 16.1232C7.31241 16.1232 3.53588 13.3639 3.53588 9.52751C3.53588 5.94413 7.82507 2.71001 12.5307 2.71001C14.9321 2.71001 16.7404 3.2087 18.0711 3.92373C18.159 3.9714 18.1932 4.07773 18.1488 4.16665ZM12.5307 1.47339C6.09645 1.47339 0.84668 6.67383 0.84668 13.0476C0.84668 19.4214 6.09645 24.6851 12.5307 24.6851C18.965 24.6851 24.2786 19.4847 24.2786 13.0476C24.2786 6.61057 19.0279 1.47339 12.5307 1.47339Z" fill="black" />
				<path d="M91.544 9.4439C90.6008 9.4439 89.8379 9.67042 89.2093 10.1912H89.0521V5.00549H86.605V20.8792H89.0069L89.0521 14.1311C89.0521 12.9085 90.1067 11.9114 91.2745 11.9114C92.5095 11.9114 93.497 12.9076 93.497 14.1311V20.8792H95.8989V14.1311C95.8989 11.5493 93.8337 9.4439 91.544 9.4439ZM103.218 18.7961C101.287 18.7961 99.6931 17.2559 99.6931 15.286C99.6931 13.316 101.287 11.7536 103.218 11.7536C105.149 11.7536 106.697 13.2938 106.697 15.286C106.697 17.2782 105.171 18.7961 103.218 18.7961ZM103.218 9.39841C100.008 9.39841 97.3814 12.0479 97.3814 15.286C97.3814 18.524 99.8956 21.1513 103.038 21.1513C104.453 21.1513 105.844 20.6527 106.854 19.5889H107.012V20.8792H109.032V15.286C109.032 12.0479 106.405 9.39841 103.218 9.39841ZM58.3885 18.7961C56.4579 18.7961 54.8639 17.2559 54.8639 15.286C54.8639 13.316 56.4579 11.7536 58.3885 11.7536C60.3193 11.7536 61.868 13.2938 61.868 15.286C61.868 17.2782 60.3413 18.7961 58.3885 18.7961ZM69.5901 12.0247H71.8346V9.55623H69.5901V5.88835H67.1431V9.55716H65.3697V12.0257H67.1431V16.374C67.1431 18.525 68.7591 21.1522 71.8346 21.1522V18.6837C69.6342 18.6837 69.5901 16.4195 69.5901 16.4195V12.0266V12.0247ZM46.2217 9.44297C44.8743 9.44297 43.6173 10.0315 42.8323 11.0509H42.6979C41.912 10.0315 40.6549 9.44297 39.3307 9.44297C36.7714 9.44297 34.6611 11.5493 34.6611 14.1302V20.8783H37.0852V14.1311C37.0852 12.9085 38.0726 11.9114 39.3297 11.9114C40.5868 11.9114 41.5742 12.9076 41.5742 14.1311V20.8792H43.9982V14.1311C43.9982 12.9085 44.9856 11.9114 46.2208 11.9114C47.4557 11.9114 48.4883 12.9076 48.4883 14.1311V20.8792H50.8902V14.1311C50.8902 11.5493 48.802 9.4439 46.2208 9.4439L46.2217 9.44297ZM58.3885 9.39749C55.1786 9.39749 52.5521 12.047 52.5521 15.2851C52.5521 18.5231 55.0664 21.1503 58.2091 21.1503C59.6236 21.1503 61.0151 20.6518 62.0476 19.588H62.2049V20.8783H64.2028V15.2851C64.2028 12.0014 61.5763 9.39749 58.3885 9.39749ZM79.2658 18.6818C77.3802 18.6818 75.8313 17.1872 75.8313 15.2851C75.8313 13.3829 77.3802 11.8659 79.2658 11.8659C80.6131 11.8659 81.78 12.6587 82.3413 13.7904H84.8777C84.2491 11.2542 81.9595 9.39749 79.2658 9.39749C76.0108 9.39749 73.4065 12.047 73.4065 15.2851C73.4065 18.5231 76.0108 21.1503 79.2658 21.1503C81.9595 21.1503 84.2491 19.2259 84.8777 16.6896H82.3413C81.78 17.8899 80.6131 18.6818 79.2658 18.6818Z" fill="black" />
			</g>
		</g>
	</g>
	<defs>
		<clipPath id="clip0_84_1982">
			<rect width="108" height="24.22" fill="white" transform="translate(0.5625 0.96875)" />
		</clipPath>
	</defs>
</svg>
