<svg width="174" height="29" viewBox="0 0 174 29" fill="none" xmlns="http://www.w3.org/2000/svg">
	<path d="M6.63264 22.1235H11.0073V5.54636H16.7303V1.5475H0.96875V5.5475H6.63264V22.1235ZM16.7361 22.1235H20.8414V15.1978C20.8414 12.7921 22.1295 11.343 24.0793 11.343C24.767 11.343 25.307 11.4584 25.9357 11.6618V7.63321C25.4883 7.50805 25.0236 7.44948 24.5579 7.4595C22.8799 7.4595 21.3519 8.53152 20.8414 9.95095V7.63436H16.7361V22.1235ZM33.8153 22.4424C35.8833 22.4424 37.4408 21.4275 38.1309 20.4995V22.1224H42.2361V7.63436H38.1309V9.25724C37.4408 8.33036 35.8833 7.3155 33.8153 7.3155C29.8306 7.3155 26.7736 10.7932 26.7736 14.879C26.7736 18.9658 29.8306 22.4435 33.8165 22.4435L33.8153 22.4424ZM34.6851 18.8195C32.4067 18.8195 30.9084 17.1681 30.9084 14.879C30.9084 12.5887 32.4067 10.9361 34.6851 10.9361C36.9621 10.9361 38.4605 12.5887 38.4605 14.879C38.4605 17.1681 36.9621 18.8195 34.6851 18.8195ZM52.01 22.4424C54.078 22.4424 55.6354 21.4275 56.3243 20.4995V22.1224H60.4296V0.389785H56.3243V9.25838C55.6354 8.33036 54.078 7.3155 52.01 7.3155C48.024 7.3155 44.967 10.7932 44.967 14.879C44.967 18.9658 48.024 22.4424 52.01 22.4424ZM52.8786 18.8195C50.6014 18.8195 49.103 17.1681 49.103 14.879C49.103 12.5887 50.6014 10.9361 52.8786 10.9361C55.1556 10.9361 56.654 12.5887 56.654 14.879C56.654 17.1681 55.1556 18.8195 52.8786 18.8195ZM66.1585 5.42407C66.503 5.42693 66.8448 5.36389 67.1641 5.23857C67.4836 5.11326 67.7741 4.92813 68.0192 4.69384C68.2643 4.45954 68.4591 4.18071 68.5925 3.87336C68.7257 3.56601 68.795 3.23622 68.796 2.90293C68.795 2.56964 68.7257 2.23983 68.5925 1.93248C68.4591 1.62513 68.2643 1.3463 68.0192 1.11201C67.7741 0.877717 67.4836 0.692597 67.1641 0.567282C66.8448 0.441957 66.503 0.378917 66.1585 0.381785C65.4688 0.387157 64.809 0.654505 64.3212 1.12615C63.8336 1.5978 63.5571 2.23593 63.5517 2.90293C63.5571 3.56991 63.8336 4.20806 64.3212 4.67969C64.809 5.15134 65.4688 5.41869 66.1585 5.42407ZM64.1212 22.1235H68.2264V7.79893H64.1212V22.1235ZM71.8685 22.1235H75.9736V15.0527C75.9736 12.2698 77.3823 10.9372 79.3002 10.9372C81.0077 10.9372 81.9377 12.2127 81.9377 14.2984V22.1235H86.0429V13.6321C86.0429 9.86524 83.8851 7.31436 80.2597 7.31436C78.3111 7.31436 76.7831 8.12578 75.9736 9.28466V7.63321H71.8685V22.1235ZM96.4891 18.2675C94.4212 18.2675 92.6841 16.7601 92.6841 14.5578C92.6841 12.327 94.4212 10.8481 96.4891 10.8481C98.5571 10.8481 100.294 12.327 100.294 14.5578C100.294 16.7601 98.5571 18.2675 96.4891 18.2675ZM96.0094 28.3818C100.594 28.3818 104.071 26.1212 104.071 20.9041V7.54521H99.9657V9.16809C99.1563 8.03893 97.5373 7.2275 95.6206 7.2275C91.695 7.2275 88.5482 10.4732 88.5482 14.559C88.5482 18.6161 91.695 21.8618 95.6206 21.8618C97.5385 21.8618 99.1563 21.0218 99.9657 19.9498V20.935C99.9657 23.2538 98.3775 24.9052 95.9503 24.9052C94.2723 24.9052 92.5943 24.3544 91.2756 23.1087L89.028 26.0641C90.7355 27.6584 93.4026 28.3818 96.0094 28.3818ZM112.751 22.1235H116.615L125.425 1.5475H120.631L114.698 15.8344L108.675 1.5475H103.971L112.751 22.1235ZM129.193 5.25721C129.537 5.25992 129.879 5.19677 130.198 5.07138C130.518 4.946 130.808 4.76085 131.052 4.52657C131.298 4.2923 131.492 4.01351 131.626 3.70624C131.759 3.39897 131.828 3.06926 131.83 2.73607C131.828 2.40287 131.759 2.07317 131.626 1.76589C131.492 1.45862 131.298 1.17984 131.052 0.945557C130.808 0.711282 130.518 0.526139 130.198 0.400745C129.879 0.275362 129.537 0.212208 129.193 0.214928C127.784 0.214928 126.585 1.34407 126.585 2.73607C126.585 4.12693 127.784 5.25721 129.193 5.25721ZM127.154 22.1235H131.259V7.63321H127.154V22.1235ZM141.884 22.4424C145.03 22.4424 147.428 21.167 148.836 19.1967L145.779 16.9944C145.09 18.0081 143.802 18.8195 141.914 18.8195C139.937 18.8195 138.169 17.7475 137.929 15.8058H149.135C149.225 15.1967 149.195 14.791 149.195 14.4435C149.195 9.72009 145.749 7.31436 141.824 7.31436C137.269 7.31436 133.943 10.5887 133.943 14.8778C133.943 19.4572 137.42 22.4424 141.884 22.4424ZM138.077 13.111C138.468 11.343 140.176 10.5887 141.705 10.5887C143.233 10.5887 144.731 11.3715 145.09 13.111H138.077ZM164.575 22.1235H168.651L173.595 7.63321H169.19L166.374 16.9064L163.317 7.63321H160.171L157.144 16.9064L154.298 7.63321H149.922L154.898 22.1235H158.972L161.759 13.8927L164.575 22.1235Z" fill="#B8B8B8" />
</svg>
