<svg width="57" height="56" viewBox="0 0 57 56" fill="none" xmlns="http://www.w3.org/2000/svg">
	<g clip-path="url(#clip0_3301_681)">
		<path d="M55.4519 0H1.4519C1.18669 0 0.932334 0.105357 0.744798 0.292893C0.557261 0.48043 0.451904 0.734784 0.451904 1L0.451904 43C0.451904 43.2652 0.557261 43.5196 0.744798 43.7071C0.932334 43.8946 1.18669 44 1.4519 44H16.4519C16.7171 44 16.9715 43.8946 17.159 43.7071C17.3465 43.5196 17.4519 43.2652 17.4519 43C17.4519 40.0826 18.6108 37.2847 20.6737 35.2218C22.7366 33.1589 25.5345 32 28.4519 32C31.3693 32 34.1672 33.1589 36.2301 35.2218C38.293 37.2847 39.4519 40.0826 39.4519 43C39.4519 43.2652 39.5573 43.5196 39.7448 43.7071C39.9323 43.8946 40.1867 44 40.4519 44H55.4519C55.7171 44 55.9715 43.8946 56.159 43.7071C56.3465 43.5196 56.4519 43.2652 56.4519 43V1C56.4519 0.734784 56.3465 0.48043 56.159 0.292893C55.9715 0.105357 55.7171 0 55.4519 0V0ZM54.4519 42H41.4519C41.4239 41.5838 41.3704 41.1697 41.2919 40.76L41.1719 40.15C41.1719 39.95 41.0719 39.76 41.0219 39.56C40.9925 39.4172 40.9524 39.2768 40.9019 39.14C40.8609 38.9904 40.8108 38.8435 40.7519 38.7C40.5897 38.221 40.3959 37.7533 40.1719 37.3C40.0819 37.12 39.9919 36.94 39.8919 36.77C39.8016 36.5912 39.7015 36.4176 39.5919 36.25C39.4319 36 39.2719 35.74 39.1019 35.5C38.9319 35.26 38.7519 35.02 38.5619 34.79C38.3719 34.56 38.3319 34.52 38.2119 34.38L37.8119 34C37.6519 33.83 37.4819 33.66 37.3019 33.5C37.0154 33.2241 36.7114 32.9669 36.3919 32.73L35.9119 32.37C35.7782 32.2675 35.6379 32.174 35.4919 32.09C34.9944 31.7614 34.4729 31.4706 33.9319 31.22C33.6719 31.11 33.4119 30.99 33.1419 30.89C32.8719 30.79 32.5919 30.69 32.3119 30.6C31.9541 30.4835 31.5903 30.3867 31.2219 30.31L30.8719 30.24C29.2731 29.9334 27.6307 29.9334 26.0319 30.24L25.6819 30.31C25.3135 30.3867 24.9497 30.4835 24.5919 30.6C24.3119 30.69 24.0319 30.78 23.7619 30.89C23.4919 31 23.2319 31.11 22.9719 31.22C22.4309 31.4706 21.9094 31.7614 21.4119 32.09C21.2659 32.174 21.1256 32.2675 20.9919 32.37L20.5119 32.73L20.0719 33.08C19.9082 33.2119 19.7513 33.352 19.6019 33.5C19.4219 33.66 19.2519 33.83 19.0919 34L18.7319 34.39C18.6119 34.53 18.4919 34.66 18.3819 34.8C18.2719 34.94 18.0119 35.27 17.8419 35.51C17.6719 35.75 17.5119 36.01 17.3519 36.26C17.2423 36.4276 17.1422 36.6012 17.0519 36.78C16.9519 36.95 16.8619 37.13 16.7719 37.31C16.5479 37.7633 16.3541 38.231 16.1919 38.71C16.133 38.8535 16.0829 39.0004 16.0419 39.15C15.9914 39.2868 15.9513 39.4272 15.9219 39.57C15.8719 39.77 15.8119 39.96 15.7719 40.16L15.6519 40.77C15.5604 41.1756 15.4936 41.5863 15.4519 42H2.4519V2H54.4519V42Z" fill="#D08BFE" />
		<path d="M55.4519 0H1.4519C1.18669 0 0.932334 0.105357 0.744798 0.292893C0.557261 0.48043 0.451904 0.734784 0.451904 1L0.451904 9C0.451904 9.26522 0.557261 9.51957 0.744798 9.70711C0.932334 9.89464 1.18669 10 1.4519 10H55.4519C55.7171 10 55.9715 9.89464 56.159 9.70711C56.3465 9.51957 56.4519 9.26522 56.4519 9V1C56.4519 0.734784 56.3465 0.48043 56.159 0.292893C55.9715 0.105357 55.7171 0 55.4519 0V0ZM54.4519 8H2.4519V2H54.4519V8Z" fill="#D08BFE" />
		<path opacity="0.5" d="M2.4519 2V8H54.4519V2H2.4519ZM6.4519 6C6.25412 6 6.06078 5.94135 5.89633 5.83147C5.73188 5.72159 5.60371 5.56541 5.52802 5.38268C5.45234 5.19996 5.43253 4.99889 5.47112 4.80491C5.5097 4.61093 5.60495 4.43275 5.7448 4.29289C5.88465 4.15304 6.06283 4.0578 6.25681 4.01921C6.45079 3.98063 6.65186 4.00043 6.83459 4.07612C7.01731 4.15181 7.17349 4.27998 7.28337 4.44443C7.39326 4.60888 7.4519 4.80222 7.4519 5C7.4519 5.26522 7.34655 5.51957 7.15901 5.70711C6.97147 5.89464 6.71712 6 6.4519 6ZM10.4519 6C10.2541 6 10.0608 5.94135 9.89633 5.83147C9.73188 5.72159 9.60371 5.56541 9.52802 5.38268C9.45234 5.19996 9.43253 4.99889 9.47112 4.80491C9.5097 4.61093 9.60495 4.43275 9.7448 4.29289C9.88465 4.15304 10.0628 4.0578 10.2568 4.01921C10.4508 3.98063 10.6519 4.00043 10.8346 4.07612C11.0173 4.15181 11.1735 4.27998 11.2834 4.44443C11.3933 4.60888 11.4519 4.80222 11.4519 5C11.4519 5.26522 11.3465 5.51957 11.159 5.70711C10.9715 5.89464 10.7171 6 10.4519 6ZM14.4519 6C14.2541 6 14.0608 5.94135 13.8963 5.83147C13.7319 5.72159 13.6037 5.56541 13.528 5.38268C13.4523 5.19996 13.4325 4.99889 13.4711 4.80491C13.5097 4.61093 13.6049 4.43275 13.7448 4.29289C13.8847 4.15304 14.0628 4.0578 14.2568 4.01921C14.4508 3.98063 14.6519 4.00043 14.8346 4.07612C15.0173 4.15181 15.1735 4.27998 15.2834 4.44443C15.3933 4.60888 15.4519 4.80222 15.4519 5C15.4519 5.26522 15.3465 5.51957 15.159 5.70711C14.9715 5.89464 14.7171 6 14.4519 6Z" fill="#D08BFE" />
		<path d="M27.4519 24C27.3203 24.0008 27.1898 23.9755 27.068 23.9258C26.9462 23.876 26.8353 23.8027 26.7419 23.71L22.7419 19.71C22.5536 19.5217 22.4478 19.2663 22.4478 19C22.4478 18.7337 22.5536 18.4783 22.7419 18.29C22.9302 18.1017 23.1856 17.9959 23.4519 17.9959C23.7182 17.9959 23.9736 18.1017 24.1619 18.29L28.1619 22.29C28.2556 22.383 28.33 22.4936 28.3808 22.6154C28.4316 22.7373 28.4577 22.868 28.4577 23C28.4577 23.132 28.4316 23.2627 28.3808 23.3846C28.33 23.5064 28.2556 23.617 28.1619 23.71C28.0685 23.8027 27.9577 23.876 27.8358 23.9258C27.714 23.9755 27.5835 24.0008 27.4519 24Z" fill="#D08BFE" />
		<path d="M27.4519 24C27.3203 24.0008 27.1898 23.9755 27.068 23.9258C26.9462 23.876 26.8353 23.8027 26.7419 23.71C26.6482 23.617 26.5738 23.5064 26.523 23.3846C26.4722 23.2627 26.4461 23.132 26.4461 23C26.4461 22.868 26.4722 22.7373 26.523 22.6154C26.5738 22.4936 26.6482 22.383 26.7419 22.29L34.7419 14.29C34.9302 14.1017 35.1856 13.9959 35.4519 13.9959C35.7182 13.9959 35.9736 14.1017 36.1619 14.29C36.3502 14.4783 36.456 14.7337 36.456 15C36.456 15.2663 36.3502 15.5217 36.1619 15.71L28.1619 23.71C28.0685 23.8027 27.9576 23.876 27.8358 23.9258C27.714 23.9755 27.5835 24.0008 27.4519 24Z" fill="#D08BFE" />
		<path d="M41.4519 42C41.4239 41.5838 41.3704 41.1697 41.2919 40.76L41.1719 40.15C41.1719 39.95 41.0719 39.76 41.0219 39.56C40.9925 39.4172 40.9524 39.2768 40.9019 39.14C40.8609 38.9904 40.8108 38.8435 40.7519 38.7C40.5897 38.221 40.396 37.7534 40.1719 37.3C40.0819 37.12 39.9919 36.94 39.8919 36.77C39.8016 36.5912 39.7015 36.4176 39.5919 36.25C39.4319 36 39.2719 35.74 39.1019 35.5C38.9319 35.26 38.7519 35.02 38.5619 34.79C38.3719 34.56 38.3319 34.52 38.2119 34.38L37.8119 34C37.6519 33.83 37.4819 33.66 37.3019 33.5C37.0154 33.2241 36.7114 32.9669 36.3919 32.73L35.9119 32.37C35.7782 32.2675 35.6379 32.174 35.4919 32.09C34.9944 31.7614 34.4729 31.4706 33.9319 31.22C33.6719 31.11 33.4119 30.99 33.1419 30.89C32.8719 30.79 32.5919 30.69 32.3119 30.6C31.9542 30.4835 31.5903 30.3867 31.2219 30.31L30.8719 30.24C29.2731 29.9334 27.6307 29.9334 26.0319 30.24L25.6819 30.31C25.3135 30.3867 24.9497 30.4835 24.5919 30.6C24.3119 30.69 24.0319 30.78 23.7619 30.89C23.4919 31 23.2319 31.11 22.9719 31.22C22.4309 31.4706 21.9094 31.7614 21.4119 32.09C21.2659 32.174 21.1256 32.2675 20.9919 32.37L20.5119 32.73L20.0719 33.08C19.9082 33.2119 19.7513 33.352 19.6019 33.5C19.4219 33.66 19.2519 33.83 19.0919 34L18.7319 34.39C18.6119 34.53 18.4919 34.66 18.3819 34.8C18.2719 34.94 18.0119 35.27 17.8419 35.51C17.6719 35.75 17.5119 36.01 17.3519 36.26C17.2423 36.4276 17.1422 36.6012 17.0519 36.78C16.9519 36.95 16.8619 37.13 16.7719 37.31C16.5479 37.7634 16.3541 38.231 16.1919 38.71C16.133 38.8535 16.0829 39.0004 16.0419 39.15C15.9914 39.2868 15.9513 39.4272 15.9219 39.57C15.8719 39.77 15.8119 39.96 15.7719 40.16L15.6519 40.77C15.5604 41.1756 15.4936 41.5863 15.4519 42C15.4519 42.33 15.4519 42.66 15.4519 43C15.4484 43.334 15.4651 43.668 15.5019 44C15.707 47.302 17.1632 50.4015 19.574 52.6672C21.9847 54.9328 25.1686 56.1942 28.4769 56.1942C31.7852 56.1942 34.9691 54.9328 37.3798 52.6672C39.7906 50.4015 41.2468 47.302 41.4519 44C41.4519 43.67 41.4519 43.34 41.4519 43C41.4519 42.66 41.4519 42.33 41.4519 42ZM28.4519 54C26.2763 54 24.1496 53.3549 22.3406 52.1462C20.5317 50.9375 19.1218 49.2195 18.2892 47.2095C17.4567 45.1995 17.2388 42.9878 17.6633 40.854C18.0877 38.7202 19.1354 36.7602 20.6737 35.2218C22.2121 33.6835 24.1721 32.6358 26.3059 32.2114C28.4397 31.7869 30.6514 32.0048 32.6614 32.8373C34.6714 33.6699 36.3894 35.0798 37.5981 36.8887C38.8068 38.6977 39.4519 40.8244 39.4519 43C39.4519 45.9174 38.293 48.7153 36.2301 50.7782C34.1672 52.8411 31.3693 54 28.4519 54Z" fill="#D08BFE" />
		<path opacity="0.5" d="M28.4519 32C26.2763 32 24.1496 32.6451 22.3406 33.8538C20.5317 35.0625 19.1218 36.7805 18.2892 38.7905C17.4567 40.8005 17.2388 43.0122 17.6633 45.146C18.0877 47.2798 19.1354 49.2398 20.6737 50.7782C22.2121 52.3166 24.1721 53.3642 26.3059 53.7886C28.4397 54.2131 30.6514 53.9952 32.6614 53.1627C34.6714 52.3301 36.3894 50.9202 37.5981 49.1113C38.8068 47.3023 39.4519 45.1756 39.4519 43C39.4519 40.0826 38.293 37.2847 36.2301 35.2218C34.1672 33.1589 31.3693 32 28.4519 32ZM30.9519 49H30.4519V50C30.4519 50.2652 30.3466 50.5196 30.159 50.7071C29.9715 50.8946 29.7171 51 29.4519 51C29.1867 51 28.9323 50.8946 28.7448 50.7071C28.5573 50.5196 28.4519 50.2652 28.4519 50V49H26.4519V50C26.4519 50.2652 26.3466 50.5196 26.159 50.7071C25.9715 50.8946 25.7171 51 25.4519 51C25.1867 51 24.9323 50.8946 24.7448 50.7071C24.5573 50.5196 24.4519 50.2652 24.4519 50V49H23.4519C23.1867 49 22.9323 48.8946 22.7448 48.7071C22.5573 48.5196 22.4519 48.2652 22.4519 48C22.4519 47.7348 22.5573 47.4804 22.7448 47.2929C22.9323 47.1054 23.1867 47 23.4519 47V39C23.1867 39 22.9323 38.8946 22.7448 38.7071C22.5573 38.5196 22.4519 38.2652 22.4519 38C22.4519 37.7348 22.5573 37.4804 22.7448 37.2929C22.9323 37.1054 23.1867 37 23.4519 37H24.4519V36C24.4519 35.7348 24.5573 35.4804 24.7448 35.2929C24.9323 35.1054 25.1867 35 25.4519 35C25.7171 35 25.9715 35.1054 26.159 35.2929C26.3466 35.4804 26.4519 35.7348 26.4519 36V37H28.4519V36C28.4519 35.7348 28.5573 35.4804 28.7448 35.2929C28.9323 35.1054 29.1867 35 29.4519 35C29.7171 35 29.9715 35.1054 30.159 35.2929C30.3466 35.4804 30.4519 35.7348 30.4519 36V37C31.2809 37.1069 32.0426 37.512 32.5947 38.1395C33.1468 38.7671 33.4515 39.5742 33.4519 40.41V40.53C33.4584 41.248 33.2341 41.9492 32.8119 42.53C33.3224 42.8444 33.7421 43.2865 34.0297 43.8126C34.3173 44.3386 34.4628 44.9306 34.4519 45.53C34.444 46.453 34.0718 47.3356 33.4162 47.9855C32.7607 48.6354 31.875 49 30.9519 49Z" fill="#D08BFE" />
		<g opacity="0.5">
			<path opacity="0.5" d="M31.4519 40.44V40.56C31.4493 40.9411 31.2967 41.3059 31.0272 41.5753C30.7578 41.8448 30.393 41.9974 30.0119 42H25.4519V39H30.0119C30.393 39.0026 30.7578 39.1552 31.0272 39.4247C31.2967 39.6941 31.4493 40.0589 31.4519 40.44Z" fill="#D08BFE" />
		</g>
		<g opacity="0.5">
			<path opacity="0.5" d="M32.4519 45.5C32.4519 45.8978 32.2939 46.2794 32.0126 46.5607C31.7313 46.842 31.3497 47 30.9519 47H25.4519V44H30.9519C31.3497 44 31.7313 44.158 32.0126 44.4393C32.2939 44.7206 32.4519 45.1022 32.4519 45.5Z" fill="#D08BFE" />
		</g>
		<g opacity="0.5">
			<path opacity="0.5" d="M14.4519 15H7.4519C7.18669 15 6.93233 14.8946 6.7448 14.7071C6.55726 14.5196 6.4519 14.2652 6.4519 14C6.4519 13.7348 6.55726 13.4804 6.7448 13.2929C6.93233 13.1054 7.18669 13 7.4519 13H14.4519C14.7171 13 14.9715 13.1054 15.159 13.2929C15.3465 13.4804 15.4519 13.7348 15.4519 14C15.4519 14.2652 15.3465 14.5196 15.159 14.7071C14.9715 14.8946 14.7171 15 14.4519 15Z" fill="#D08BFE" />
		</g>
		<g opacity="0.5">
			<path opacity="0.5" d="M14.4519 19H7.4519C7.18669 19 6.93233 18.8946 6.7448 18.7071C6.55726 18.5196 6.4519 18.2652 6.4519 18C6.4519 17.7348 6.55726 17.4804 6.7448 17.2929C6.93233 17.1054 7.18669 17 7.4519 17H14.4519C14.7171 17 14.9715 17.1054 15.159 17.2929C15.3465 17.4804 15.4519 17.7348 15.4519 18C15.4519 18.2652 15.3465 18.5196 15.159 18.7071C14.9715 18.8946 14.7171 19 14.4519 19Z" fill="#D08BFE" />
		</g>
	</g>
	<defs>
		<clipPath id="clip0_3301_681">
			<rect width="56" height="56" fill="white" transform="translate(0.451904)" />
		</clipPath>
	</defs>
</svg>
