<svg width="49" height="62" viewBox="0 0 49 62" fill="none" xmlns="http://www.w3.org/2000/svg">
	<g clip-path="url(#clip0_3301_702)">
		<path d="M47.6459 7L24.6459 -3.2708e-06C24.4558 -0.050007 24.256 -0.050007 24.0659 -3.2708e-06L1.06589 7C0.853316 7.06419 0.668152 7.19731 0.539598 7.37838C0.411043 7.55944 0.346412 7.77814 0.355893 8V32.46C0.382366 39.3522 2.75166 46.0307 7.07473 51.3986C11.3978 56.7666 17.4177 60.505 24.1459 62H24.3559H24.5659C31.2941 60.505 37.314 56.7666 41.6371 51.3986C45.9601 46.0307 48.3294 39.3522 48.3559 32.46V8C48.3654 7.77814 48.3007 7.55944 48.1722 7.37838C48.0436 7.19731 47.8585 7.06419 47.6459 7ZM46.3559 32.46C46.3303 38.8584 44.1433 45.0603 40.1497 50.0595C36.1562 55.0587 30.5906 58.5616 24.3559 60C18.1212 58.5616 12.5556 55.0587 8.56205 50.0595C4.56853 45.0603 2.38151 38.8584 2.35589 32.46V8.74L24.3559 2L46.3559 8.7V32.46Z" fill="#D08BFE" />
		<path opacity="0.5" d="M24.3559 2L2.3559 8.74V32.46C2.38151 38.8584 4.56853 45.0603 8.56205 50.0595C12.5556 55.0587 18.1212 58.5616 24.3559 60C30.5906 58.5616 36.1562 55.0587 40.1497 50.0595C44.1433 45.0603 46.3303 38.8584 46.3559 32.46V8.74L24.3559 2ZM43.3559 32.46C43.3496 38.0171 41.5095 43.4167 38.1211 47.8212C34.7328 52.2257 29.9855 55.3889 24.6159 56.82C24.4466 56.873 24.2652 56.873 24.0959 56.82C18.7263 55.3889 13.979 52.2257 10.5907 47.8212C7.20229 43.4167 5.36221 38.0171 5.3559 32.46V11.71C5.34641 11.4881 5.41105 11.2694 5.5396 11.0884C5.66816 10.9073 5.85332 10.7742 6.0659 10.71L24.0659 5.23C24.255 5.1727 24.4568 5.1727 24.6459 5.23L42.6459 10.71C42.8585 10.7742 43.0436 10.9073 43.1722 11.0884C43.3007 11.2694 43.3654 11.4881 43.3559 11.71V32.46Z" fill="#D08BFE" />
		<path d="M42.6459 10.75L24.6459 5.26999C24.4568 5.2127 24.255 5.2127 24.0659 5.26999L6.06589 10.75C5.85332 10.8142 5.66815 10.9473 5.5396 11.1284C5.41104 11.3094 5.34641 11.5281 5.35589 11.75V32.46C5.36221 38.017 7.20229 43.4167 10.5907 47.8212C13.979 52.2257 18.7263 55.3889 24.0959 56.82C24.2652 56.873 24.4466 56.873 24.6159 56.82C29.9855 55.3889 34.7328 52.2257 38.1211 47.8212C41.5095 43.4167 43.3496 38.017 43.3559 32.46V11.71C43.3565 11.4949 43.2878 11.2853 43.1599 11.1124C43.032 10.9395 42.8517 10.8124 42.6459 10.75ZM41.3559 32.46C41.3501 37.5314 39.6855 42.4617 36.6162 46.4989C33.5468 50.536 29.2411 53.4583 24.3559 54.82C19.4707 53.4583 15.165 50.536 12.0956 46.4989C9.02625 42.4617 7.3617 37.5314 7.35589 32.46V12.46L24.3559 7.26999L41.3559 12.45V32.46Z" fill="#D08BFE" />
		<path d="M24.3559 17C21.587 17 18.8802 17.8211 16.5779 19.3594C14.2756 20.8978 12.4812 23.0843 11.4216 25.6424C10.362 28.2006 10.0847 31.0155 10.6249 33.7313C11.1651 36.447 12.4985 38.9416 14.4564 40.8995C16.4143 42.8574 18.9089 44.1908 21.6246 44.731C24.3404 45.2712 27.1553 44.9939 29.7135 43.9343C32.2716 42.8747 34.4581 41.0803 35.9965 38.778C37.5348 36.4757 38.3559 33.7689 38.3559 31C38.3559 27.287 36.8809 23.726 34.2554 21.1005C31.6299 18.475 28.0689 17 24.3559 17ZM24.3559 43C21.9825 43 19.6624 42.2962 17.6891 40.9776C15.7157 39.6591 14.1776 37.7849 13.2693 35.5922C12.3611 33.3995 12.1235 30.9867 12.5865 28.6589C13.0495 26.3311 14.1924 24.1929 15.8706 22.5147C17.5489 20.8365 19.687 19.6936 22.0148 19.2306C24.3426 18.7676 26.7554 19.0052 28.9481 19.9134C31.1408 20.8217 33.015 22.3598 34.3335 24.3332C35.6521 26.3065 36.3559 28.6266 36.3559 31C36.3559 34.1826 35.0916 37.2348 32.8412 39.4853C30.5907 41.7357 27.5385 43 24.3559 43Z" fill="#D08BFE" />
		<path opacity="0.5" d="M24.3559 19C21.9825 19 19.6624 19.7038 17.6891 21.0224C15.7157 22.3409 14.1776 24.2151 13.2693 26.4078C12.3611 28.6005 12.1235 31.0133 12.5865 33.3411C13.0495 35.6689 14.1924 37.8071 15.8706 39.4853C17.5489 41.1635 19.687 42.3064 22.0148 42.7694C24.3426 43.2324 26.7554 42.9948 28.9481 42.0866C31.1408 41.1783 33.015 39.6402 34.3335 37.6668C35.6521 35.6935 36.3559 33.3734 36.3559 31C36.3559 27.8174 35.0916 24.7652 32.8412 22.5147C30.5907 20.2643 27.5385 19 24.3559 19ZM26.3559 36V37C26.3559 37.2652 26.2505 37.5196 26.063 37.7071C25.8755 37.8946 25.6211 38 25.3559 38C25.0907 38 24.8363 37.8946 24.6488 37.7071C24.4613 37.5196 24.3559 37.2652 24.3559 37V36H23.3559V37C23.3559 37.2652 23.2505 37.5196 23.063 37.7071C22.8755 37.8946 22.6211 38 22.3559 38C22.0907 38 21.8363 37.8946 21.6488 37.7071C21.4613 37.5196 21.3559 37.2652 21.3559 37V36H20.3559C20.0907 36 19.8363 35.8946 19.6488 35.7071C19.4613 35.5196 19.3559 35.2652 19.3559 35C19.3559 34.7348 19.4613 34.4804 19.6488 34.2929C19.8363 34.1054 20.0907 34 20.3559 34V28C20.0907 28 19.8363 27.8946 19.6488 27.7071C19.4613 27.5196 19.3559 27.2652 19.3559 27C19.3559 26.7348 19.4613 26.4804 19.6488 26.2929C19.8363 26.1054 20.0907 26 20.3559 26H21.3559V25C21.3559 24.7348 21.4613 24.4804 21.6488 24.2929C21.8363 24.1054 22.0907 24 22.3559 24C22.6211 24 22.8755 24.1054 23.063 24.2929C23.2505 24.4804 23.3559 24.7348 23.3559 25V26H24.3559V25C24.3559 24.7348 24.4613 24.4804 24.6488 24.2929C24.8363 24.1054 25.0907 24 25.3559 24C25.6211 24 25.8755 24.1054 26.063 24.2929C26.2505 24.4804 26.3559 24.7348 26.3559 25V26.18C26.9395 26.3863 27.4449 26.7681 27.803 27.2729C28.161 27.7778 28.3542 28.3811 28.3559 29C28.3547 29.5141 28.2241 30.0197 27.9759 30.47C28.5239 30.8192 28.9438 31.3369 29.1722 31.9453C29.4007 32.5537 29.4254 33.2198 29.2428 33.8434C29.0601 34.467 28.6798 35.0145 28.1592 35.4034C27.6386 35.7923 27.0057 36.0017 26.3559 36Z" fill="#D08BFE" />
		<path opacity="0.5" d="M26.3559 29C26.3559 29.2652 26.2505 29.5196 26.063 29.7071C25.8755 29.8946 25.6211 30 25.3559 30H22.3559V28H25.3559C25.6211 28 25.8755 28.1054 26.063 28.2929C26.2505 28.4804 26.3559 28.7348 26.3559 29Z" fill="#D08BFE" />
		<path opacity="0.5" d="M27.3559 33C27.3559 33.2652 27.2505 33.5196 27.063 33.7071C26.8755 33.8946 26.6211 34 26.3559 34H22.3559V32H26.3559C26.6211 32 26.8755 32.1054 27.063 32.2929C27.2505 32.4804 27.3559 32.7348 27.3559 33Z" fill="#D08BFE" />
	</g>
	<defs>
		<clipPath id="clip0_3301_702">
			<rect width="48" height="62" fill="white" transform="translate(0.355896)" />
		</clipPath>
	</defs>
</svg>
