<svg width="63" height="50" viewBox="0 0 63 50" fill="none" xmlns="http://www.w3.org/2000/svg">
	<path d="M24.138 45L23.548 43.91L19.238 36L19.118 35.77C18.8232 35.2326 18.389 34.7846 17.8611 34.4731C17.3331 34.1616 16.731 33.9982 16.118 34H8.96802C8.35505 33.9982 7.75291 34.1616 7.22497 34.4731C6.69704 34.7846 6.26282 35.2326 5.96802 35.77L0.958019 45C0.692245 45.4953 0.551497 46.048 0.548019 46.61C0.546699 47.0556 0.633483 47.497 0.803378 47.9089C0.973274 48.3208 1.22293 48.695 1.53798 49.0101C1.85304 49.3251 2.22727 49.5748 2.63916 49.7447C3.05105 49.9146 3.49247 50.0013 3.93802 50H21.158C22.0548 49.9919 22.9127 49.633 23.548 49C23.8656 48.6843 24.1175 48.3087 24.2892 47.8951C24.4608 47.4814 24.5488 47.0379 24.548 46.59C24.5386 46.0351 24.3981 45.4903 24.138 45ZM21.138 48H3.93802C3.57018 47.9974 3.21814 47.8501 2.95803 47.59C2.69792 47.3299 2.55064 46.9779 2.54802 46.61C2.54985 46.3762 2.60817 46.1464 2.71802 45.94L7.71802 36.73C7.83834 36.5045 8.01891 36.3169 8.23962 36.188C8.46033 36.0591 8.7125 35.994 8.96802 36H16.128C16.3785 35.9995 16.6243 36.0672 16.8393 36.1958C17.0542 36.3244 17.2301 36.5091 17.348 36.73L22.348 45.93C22.4569 46.1403 22.5151 46.3732 22.518 46.61C22.5181 46.9735 22.3758 47.3226 22.1216 47.5824C21.8673 47.8423 21.5214 47.9922 21.158 48H21.138Z" fill="#D08BFE" />
	<path d="M27.858 36L23.548 43.9L24.138 45C24.4012 45.4963 24.5418 46.0483 24.548 46.61C24.5498 46.3762 24.6082 46.1464 24.718 45.94L29.718 36.73C29.8682 36.4585 30.1037 36.2441 30.388 36.12L30.538 36.06H30.668L27.858 36ZM27.828 36L23.548 43.9L24.138 45C24.4012 45.4963 24.5418 46.0483 24.548 46.61C24.5498 46.3762 24.6082 46.1464 24.718 45.94L29.718 36.73C29.8682 36.4585 30.1037 36.2441 30.388 36.12L30.538 36.06H30.668L27.828 36ZM27.798 36L23.548 43.9L24.138 45C24.4012 45.4963 24.5418 46.0483 24.548 46.61C24.5498 46.3762 24.6082 46.1464 24.718 45.94L29.718 36.73C29.8682 36.4585 30.1037 36.2441 30.388 36.12L30.538 36.06H30.668L27.798 36ZM27.768 36L23.548 43.9L24.138 45C24.4012 45.4963 24.5418 46.0483 24.548 46.61C24.5498 46.3762 24.6082 46.1464 24.718 45.94L29.718 36.73C29.8682 36.4585 30.1037 36.2441 30.388 36.12L30.538 36.06H30.668L27.768 36ZM27.738 36L23.548 43.9L24.138 45C24.4012 45.4963 24.5418 46.0483 24.548 46.61C24.5498 46.3762 24.6082 46.1464 24.718 45.94L29.718 36.73C29.8682 36.4585 30.1037 36.2441 30.388 36.12L30.538 36.06H30.668L27.738 36ZM27.708 36L23.548 43.9L24.138 45C24.4012 45.4963 24.5418 46.0483 24.548 46.61C24.5498 46.3762 24.6082 46.1464 24.718 45.94L29.718 36.73C29.8682 36.4585 30.1037 36.2441 30.388 36.12L30.538 36.06H30.668L27.708 36ZM27.708 36L23.548 43.9L24.138 45C24.4012 45.4963 24.5418 46.0483 24.548 46.61C24.5498 46.3762 24.6082 46.1464 24.718 45.94L29.718 36.73C29.8682 36.4585 30.1037 36.2441 30.388 36.12L30.538 36.06H30.668L27.708 36ZM45.988 45L41.088 36L40.968 35.77C40.6732 35.2326 40.239 34.7845 39.7111 34.4731C39.1831 34.1616 38.581 33.9982 37.968 34H30.838C30.7118 33.9856 30.5843 33.9856 30.458 34C30.3322 34.0132 30.2081 34.04 30.088 34.08C29.9651 34.1064 29.8447 34.1432 29.728 34.19C29.3335 34.3508 28.9711 34.5811 28.658 34.87L28.548 35C28.3326 35.2211 28.1476 35.47 27.998 35.74L27.878 35.97L23.548 43.9L22.958 45C22.6922 45.4953 22.5515 46.048 22.548 46.61C22.5482 47.0547 22.6367 47.495 22.8084 47.9053C22.9801 48.3155 23.2315 48.6876 23.548 49C23.8607 49.3161 24.2329 49.5672 24.6431 49.7389C25.0533 49.9105 25.4934 49.9992 25.938 50H43.158C44.0563 49.9974 44.917 49.6394 45.5522 49.0042C46.1874 48.369 46.5454 47.5083 46.548 46.61C46.5418 46.0483 46.4012 45.4963 46.138 45H45.988ZM42.988 48H25.938C25.5702 47.9974 25.2181 47.8501 24.958 47.59C24.6979 47.3299 24.5506 46.9779 24.548 46.61C24.5498 46.3762 24.6082 46.1464 24.718 45.94L29.718 36.73C29.8682 36.4585 30.1037 36.2441 30.388 36.12L30.538 36.06H30.668H38.018C38.2685 36.0595 38.5143 36.1272 38.7293 36.2558C38.9442 36.3844 39.1201 36.5691 39.238 36.79L44.238 45.99C44.3469 46.2003 44.4051 46.4332 44.408 46.67C44.3952 47.0052 44.2616 47.3245 44.0319 47.5689C43.8022 47.8134 43.4918 47.9665 43.158 48H42.988ZM27.858 36L23.548 43.9L24.138 45C24.4012 45.4963 24.5418 46.0483 24.548 46.61C24.5498 46.3762 24.6082 46.1464 24.718 45.94L29.718 36.73C29.8682 36.4585 30.1037 36.2441 30.388 36.12L30.538 36.06H30.668L27.858 36ZM27.888 36L23.548 43.9L24.138 45C24.4012 45.4963 24.5418 46.0483 24.548 46.61C24.5498 46.3762 24.6082 46.1464 24.718 45.94L29.718 36.73C29.8682 36.4585 30.1037 36.2441 30.388 36.12L30.538 36.06H30.668L27.888 36ZM27.918 36L23.548 43.9L24.138 45C24.4012 45.4963 24.5418 46.0483 24.548 46.61C24.5498 46.3762 24.6082 46.1464 24.718 45.94L29.718 36.73C29.8682 36.4585 30.1037 36.2441 30.388 36.12L30.538 36.06H30.668L27.918 36ZM27.948 36L23.548 43.9L24.138 45C24.4012 45.4963 24.5418 46.0483 24.548 46.61C24.5498 46.3762 24.6082 46.1464 24.718 45.94L29.718 36.73C29.8682 36.4585 30.1037 36.2441 30.388 36.12L30.538 36.06H30.668L27.948 36ZM27.978 36L23.548 43.9L24.138 45C24.4012 45.4963 24.5418 46.0483 24.548 46.61C24.5498 46.3762 24.6082 46.1464 24.718 45.94L29.718 36.73C29.8682 36.4585 30.1037 36.2441 30.388 36.12L30.538 36.06H30.668L27.978 36ZM28.008 36L23.548 43.9L24.138 45C24.4012 45.4963 24.5418 46.0483 24.548 46.61C24.5498 46.3762 24.6082 46.1464 24.718 45.94L29.718 36.73C29.8682 36.4585 30.1037 36.2441 30.388 36.12L30.538 36.06H30.668L28.008 36ZM28.038 36L23.548 43.9L24.138 45C24.4012 45.4963 24.5418 46.0483 24.548 46.61C24.5498 46.3762 24.6082 46.1464 24.718 45.94L29.718 36.73C29.8682 36.4585 30.1037 36.2441 30.388 36.12L30.538 36.06H30.668L28.038 36Z" fill="#D08BFE" />
	<path d="M25.938 50H21.158C20.8928 50 20.6384 49.8947 20.4509 49.7071C20.2634 49.5196 20.158 49.2652 20.158 49C20.158 48.7348 20.2634 48.4804 20.4509 48.2929C20.6384 48.1054 20.8928 48 21.158 48C21.5267 48 21.8802 47.8536 22.1409 47.5929C22.4016 47.3322 22.548 46.9787 22.548 46.61C22.548 46.3448 22.6534 46.0904 22.8409 45.9029C23.0284 45.7154 23.2828 45.61 23.548 45.61C23.8132 45.61 24.0676 45.7154 24.2551 45.9029C24.4427 46.0904 24.548 46.3448 24.548 46.61C24.5432 46.796 24.5771 46.981 24.6477 47.1532C24.7183 47.3254 24.824 47.4809 24.958 47.61C25.0871 47.744 25.2427 47.8497 25.4149 47.9203C25.587 47.9909 25.772 48.0249 25.958 48.02C26.2232 48.02 26.4776 48.1254 26.6651 48.3129C26.8527 48.5004 26.958 48.7548 26.958 49.02C26.958 49.2852 26.8527 49.5396 26.6651 49.7271C26.4776 49.9147 26.2232 50.02 25.958 50.02L25.938 50Z" fill="#D08BFE" />
	<path d="M62.138 45L57.138 35.79C56.8432 35.2526 56.409 34.8045 55.8811 34.4931C55.3531 34.1816 54.751 34.0182 54.138 34.02H38.138C37.8728 34.02 37.6184 34.1254 37.4309 34.3129C37.2434 34.5004 37.138 34.7548 37.138 35.02C37.138 35.2852 37.2434 35.5396 37.4309 35.7271C37.6184 35.9146 37.8728 36.02 38.138 36.02C38.3885 36.0195 38.6343 36.0872 38.8493 36.2158C39.0642 36.3444 39.24 36.5291 39.358 36.75L44.358 45.95C44.4669 46.1603 44.5251 46.3932 44.528 46.63C44.5228 46.9917 44.3768 47.3372 44.121 47.593C43.8652 47.8488 43.5198 47.9948 43.158 48C42.8928 48 42.6384 48.1054 42.4509 48.2929C42.2634 48.4804 42.158 48.7348 42.158 49C42.158 49.2652 42.2634 49.5196 42.4509 49.7071C42.6384 49.8946 42.8928 50 43.158 50H59.158C60.0571 50 60.9194 49.6428 61.5551 49.0071C62.1909 48.3713 62.548 47.5091 62.548 46.61C62.5418 46.0483 62.4012 45.4963 62.138 45ZM59.138 48H46.248C46.4449 47.563 46.5471 47.0893 46.548 46.61C46.5418 46.0483 46.4012 45.4963 46.138 45L41.228 36H54.128C54.3785 35.9995 54.6243 36.0672 54.8393 36.1958C55.0542 36.3244 55.23 36.5091 55.348 36.73L60.348 45.93C60.4569 46.1403 60.5151 46.3732 60.518 46.61C60.5181 46.9735 60.3758 47.3226 60.1216 47.5824C59.8673 47.8423 59.5214 47.9922 59.158 48H59.138Z" fill="#D08BFE" />
	<path opacity="0.5" d="M60.548 46.61C60.548 46.9787 60.4016 47.3322 60.1409 47.5929C59.8802 47.8536 59.5267 48 59.158 48H46.248C46.4449 47.563 46.5471 47.0893 46.548 46.61C46.5418 46.0483 46.4012 45.4963 46.138 45L41.238 36H54.128C54.3785 35.9995 54.6243 36.0672 54.8393 36.1958C55.0542 36.3244 55.2301 36.5091 55.348 36.73L60.348 45.93C60.4673 46.1377 60.5359 46.3707 60.548 46.61Z" fill="#D08BFE" />
	<path d="M31.548 34.21C31.3735 34.0745 31.159 34.0007 30.938 34H16.128C15.8628 34 15.6085 34.1054 15.4209 34.2929C15.2334 34.4804 15.128 34.7348 15.128 35C15.128 35.2652 15.2334 35.5196 15.4209 35.7071C15.6085 35.8946 15.8628 36 16.128 36C16.3785 35.9995 16.6243 36.0672 16.8393 36.1958C17.0542 36.3244 17.2301 36.5091 17.348 36.73L22.348 45.93C22.4569 46.1403 22.5151 46.3732 22.518 46.61C22.518 46.8752 22.6234 47.1296 22.8109 47.3171C22.9985 47.5046 23.2528 47.61 23.518 47.61C23.7832 47.61 24.0376 47.5046 24.2251 47.3171C24.4127 47.1296 24.518 46.8752 24.518 46.61C24.5198 46.3762 24.5782 46.1464 24.688 45.94L29.688 36.73C29.8382 36.4585 30.0737 36.2441 30.358 36.12C30.4105 36.0897 30.4681 36.0693 30.528 36.06H30.658H30.978H31.088C31.2225 36.0263 31.3485 35.965 31.458 35.88C31.5822 35.7869 31.683 35.6661 31.7524 35.5272C31.8219 35.3884 31.858 35.2352 31.858 35.08C31.8801 34.9207 31.8634 34.7585 31.8095 34.6071C31.7555 34.4556 31.6658 34.3194 31.548 34.21ZM23.548 43.9L19.228 36H27.868L23.548 43.9Z" fill="#D08BFE" />
	<path opacity="0.5" d="M27.858 36L23.548 43.9L19.238 36H27.858Z" fill="#D08BFE" />
	<path d="M30.238 21.94L30.868 22L31.548 22.02H30.188V21.94H30.238Z" fill="#D08BFE" />
	<path opacity="0.5" d="M49.548 32.61C49.548 32.7925 49.5121 32.9733 49.4422 33.1419C49.3724 33.3106 49.27 33.4638 49.1409 33.5929C49.0118 33.722 48.8586 33.8243 48.69 33.8942C48.5213 33.964 48.3406 34 48.158 34H35.248C35.4449 33.563 35.5471 33.0893 35.548 32.61C35.5418 32.0483 35.4012 31.4963 35.138 31L30.238 22H43.128C43.3785 21.9995 43.6243 22.0672 43.8393 22.1958C44.0542 22.3244 44.2301 22.5091 44.348 22.73L49.348 31.93C49.4673 32.1377 49.5359 32.3707 49.548 32.61Z" fill="#D08BFE" />
	<path d="M42.548 9.90001C42.3577 8.07156 41.7123 6.31996 40.6705 4.80528C39.6288 3.2906 38.2241 2.06114 36.5848 1.22927C34.9455 0.397394 33.1238 -0.0103646 31.2863 0.0432552C29.4487 0.096875 27.6539 0.610163 26.0659 1.53621C24.4779 2.46226 23.1472 3.77153 22.1956 5.34438C21.244 6.91723 20.7017 8.70349 20.6184 10.5399C20.5351 12.3764 20.9133 14.2044 21.7186 15.857C22.5238 17.5095 23.7304 18.9339 25.228 20C25.5499 20.2246 25.8837 20.4316 26.228 20.62C27.2104 21.1625 28.2689 21.5536 29.368 21.78C29.648 21.84 29.928 21.88 30.208 21.92H30.258L30.888 21.98L31.548 22C34.4654 22 37.2633 20.8411 39.3262 18.7782C41.3891 16.7153 42.548 13.9174 42.548 11C42.548 10.63 42.548 10.27 42.548 9.90001ZM31.548 20C29.768 20 28.0279 19.4722 26.5479 18.4832C25.0678 17.4943 23.9143 16.0887 23.2331 14.4442C22.5519 12.7996 22.3737 10.99 22.721 9.2442C23.0682 7.49837 23.9254 5.89472 25.1841 4.63605C26.4427 3.37738 28.0464 2.52021 29.7922 2.17294C31.538 1.82567 33.3476 2.0039 34.9922 2.68509C36.6367 3.36628 38.0423 4.51983 39.0312 5.99988C40.0202 7.47992 40.548 9.21998 40.548 11C40.548 12.1819 40.3152 13.3522 39.8629 14.4442C39.4106 15.5361 38.7477 16.5282 37.912 17.364C37.0763 18.1997 36.0841 18.8626 34.9922 19.3149C33.9002 19.7672 32.7299 20 31.548 20Z" fill="#D08BFE" />
	<path opacity="0.5" d="M40.548 10.09C40.4293 7.74548 39.3993 5.5401 37.6776 3.94429C35.9558 2.34847 33.6787 1.48853 31.332 1.54789C28.9852 1.60725 26.7544 2.58121 25.1156 4.26203C23.4768 5.94285 22.5595 8.19748 22.5595 10.545C22.5595 12.8926 23.4768 15.1472 25.1156 16.828C26.7544 18.5088 28.9852 19.4828 31.332 19.5421C33.6787 19.6015 35.9558 18.7416 37.6776 17.1457C39.3993 15.5499 40.4293 13.3446 40.548 11C40.5632 10.6969 40.5632 10.3932 40.548 10.09ZM33.548 16V17C33.548 17.2652 33.4427 17.5196 33.2551 17.7071C33.0676 17.8947 32.8132 18 32.548 18C32.2828 18 32.0284 17.8947 31.8409 17.7071C31.6534 17.5196 31.548 17.2652 31.548 17V16H30.548V17C30.548 17.2652 30.4427 17.5196 30.2551 17.7071C30.0676 17.8947 29.8132 18 29.548 18C29.2828 18 29.0284 17.8947 28.8409 17.7071C28.6534 17.5196 28.548 17.2652 28.548 17V16H27.548C27.2828 16 27.0284 15.8947 26.8409 15.7071C26.6534 15.5196 26.548 15.2652 26.548 15C26.548 14.7348 26.6534 14.4804 26.8409 14.2929C27.0284 14.1054 27.2828 14 27.548 14V8.00002C27.2828 8.00002 27.0284 7.89466 26.8409 7.70712C26.6534 7.51959 26.548 7.26523 26.548 7.00002C26.548 6.7348 26.6534 6.48045 26.8409 6.29291C27.0284 6.10537 27.2828 6.00002 27.548 6.00002H28.548V5.00002C28.548 4.7348 28.6534 4.48045 28.8409 4.29291C29.0284 4.10537 29.2828 4.00002 29.548 4.00002C29.8132 4.00002 30.0676 4.10537 30.2551 4.29291C30.4427 4.48045 30.548 4.7348 30.548 5.00002V6.00002H31.548V5.00002C31.548 4.7348 31.6534 4.48045 31.8409 4.29291C32.0284 4.10537 32.2828 4.00002 32.548 4.00002C32.8132 4.00002 33.0676 4.10537 33.2551 4.29291C33.4427 4.48045 33.548 4.7348 33.548 5.00002V6.18002C34.1316 6.38633 34.637 6.76809 34.9951 7.27295C35.3531 7.77782 35.5463 8.38107 35.548 9.00002C35.5469 9.51416 35.4162 10.0197 35.168 10.47C35.7161 10.8192 36.1359 11.337 36.3643 11.9453C36.5928 12.5537 36.6176 13.2198 36.4349 13.8434C36.2522 14.4671 35.8719 15.0145 35.3513 15.4034C34.8307 15.7924 34.1979 16.0017 33.548 16Z" fill="#D08BFE" />
	<path opacity="0.5" d="M33.548 9C33.548 9.26522 33.4427 9.51957 33.2551 9.70711C33.0676 9.89464 32.8132 10 32.548 10H29.548V8H32.548C32.8132 8 33.0676 8.10536 33.2551 8.29289C33.4427 8.48043 33.548 8.73478 33.548 9Z" fill="#D08BFE" />
	<path opacity="0.5" d="M34.548 13C34.548 13.2652 34.4427 13.5196 34.2551 13.7071C34.0676 13.8946 33.8132 14 33.548 14H29.548V12H33.548C33.8132 12 34.0676 12.1054 34.2551 12.2929C34.4427 12.4804 34.548 12.7348 34.548 13Z" fill="#D08BFE" />
</svg>
