<svg width="57" height="56" viewBox="0 0 57 56" fill="none" xmlns="http://www.w3.org/2000/svg">
	<path d="M47.5541 26.13C47.1128 21.6039 45.0628 17.3862 41.7765 14.243C38.4901 11.0997 34.1853 9.23943 29.6441 9H28.6441H27.6441C22.7504 9.2691 18.1501 11.4188 14.8041 15C14.2092 15.6256 13.6611 16.2941 13.1641 17C10.9686 20.0624 9.74242 23.7132 9.6441 27.48C9.6441 27.65 9.6441 27.83 9.6441 28C9.6441 28.63 9.6441 29.26 9.7341 29.87C10.1754 34.3961 12.2254 38.6138 15.5117 41.757C18.7981 44.9003 23.1029 46.7606 27.6441 47H28.6441H29.6441C34.5378 46.7309 39.1381 44.5812 42.4841 41C43.079 40.3744 43.6271 39.7059 44.1241 39C46.3196 35.9376 47.5458 32.2868 47.6441 28.52C47.6441 28.35 47.6441 28.17 47.6441 28C47.6441 27.37 47.6441 26.74 47.5541 26.13ZM28.6441 45C25.2818 45 21.995 44.003 19.1994 42.135C16.4038 40.267 14.2248 37.612 12.9382 34.5056C11.6515 31.3993 11.3148 27.9811 11.9708 24.6835C12.6267 21.3858 14.2458 18.3567 16.6233 15.9792C19.0008 13.6017 22.0299 11.9826 25.3276 11.3267C28.6252 10.6707 32.0434 11.0074 35.1497 12.294C38.2561 13.5807 40.9111 15.7597 42.7791 18.5553C44.6471 21.3509 45.6441 24.6377 45.6441 28C45.6441 32.5087 43.853 36.8327 40.6649 40.0208C37.4768 43.2089 33.1528 45 28.6441 45Z" fill="#AF52DE" />
	<path d="M47.5541 26.13C47.1128 21.6039 45.0628 17.3862 41.7765 14.243C38.4901 11.0997 34.1853 9.23943 29.6441 9H28.6441H27.6441C22.7504 9.2691 18.1501 11.4188 14.8041 15C14.2092 15.6256 13.6611 16.2941 13.1641 17C10.9686 20.0624 9.74242 23.7132 9.6441 27.48C9.6441 27.65 9.6441 27.83 9.6441 28C9.6441 28.63 9.6441 29.26 9.7341 29.87C10.1754 34.3961 12.2254 38.6138 15.5117 41.757C18.7981 44.9003 23.1029 46.7606 27.6441 47H28.6441H29.6441C34.5378 46.7309 39.1381 44.5812 42.4841 41C43.079 40.3744 43.6271 39.7059 44.1241 39C46.3196 35.9376 47.5458 32.2868 47.6441 28.52C47.6441 28.35 47.6441 28.17 47.6441 28C47.6441 27.37 47.6441 26.74 47.5541 26.13ZM28.6441 45C25.2818 45 21.995 44.003 19.1994 42.135C16.4038 40.267 14.2248 37.612 12.9382 34.5056C11.6515 31.3993 11.3148 27.9811 11.9708 24.6835C12.6267 21.3858 14.2458 18.3567 16.6233 15.9792C19.0008 13.6017 22.0299 11.9826 25.3276 11.3267C28.6252 10.6707 32.0434 11.0074 35.1497 12.294C38.2561 13.5807 40.9111 15.7597 42.7791 18.5553C44.6471 21.3509 45.6441 24.6377 45.6441 28C45.6441 32.5087 43.853 36.8327 40.6649 40.0208C37.4768 43.2089 33.1528 45 28.6441 45Z" fill="#AF52DE" />
	<g opacity="0.5">
		<path opacity="0.5" d="M30.2041 24H25.6441V27H30.2041C30.5852 26.9974 30.95 26.8448 31.2194 26.5753C31.4889 26.3059 31.6415 25.9411 31.6441 25.56V25.44C31.6415 25.0589 31.4889 24.6941 31.2194 24.4247C30.95 24.1552 30.5852 24.0026 30.2041 24ZM30.2041 24H25.6441V27H30.2041C30.5852 26.9974 30.95 26.8448 31.2194 26.5753C31.4889 26.3059 31.6415 25.9411 31.6441 25.56V25.44C31.6415 25.0589 31.4889 24.6941 31.2194 24.4247C30.95 24.1552 30.5852 24.0026 30.2041 24ZM30.2041 24H25.6441V27H30.2041C30.5852 26.9974 30.95 26.8448 31.2194 26.5753C31.4889 26.3059 31.6415 25.9411 31.6441 25.56V25.44C31.6415 25.0589 31.4889 24.6941 31.2194 24.4247C30.95 24.1552 30.5852 24.0026 30.2041 24ZM31.1441 29H25.6441V32H31.1441C31.5419 32 31.9235 31.842 32.2048 31.5607C32.4861 31.2794 32.6441 30.8978 32.6441 30.5C32.6441 30.1022 32.4861 29.7206 32.2048 29.4393C31.9235 29.158 31.5419 29 31.1441 29ZM31.1441 29H25.6441V32H31.1441C31.5419 32 31.9235 31.842 32.2048 31.5607C32.4861 31.2794 32.6441 30.8978 32.6441 30.5C32.6441 30.1022 32.4861 29.7206 32.2048 29.4393C31.9235 29.158 31.5419 29 31.1441 29ZM30.2041 24H25.6441V27H30.2041C30.5852 26.9974 30.95 26.8448 31.2194 26.5753C31.4889 26.3059 31.6415 25.9411 31.6441 25.56V25.44C31.6415 25.0589 31.4889 24.6941 31.2194 24.4247C30.95 24.1552 30.5852 24.0026 30.2041 24ZM31.6441 25.56V25.44C31.6415 25.0589 31.4889 24.6941 31.2194 24.4247C30.95 24.1552 30.5852 24.0026 30.2041 24H25.6441V27H30.2041C30.5852 26.9974 30.95 26.8448 31.2194 26.5753C31.4889 26.3059 31.6415 25.9411 31.6441 25.56ZM31.1441 29H25.6441V32H31.1441C31.5419 32 31.9235 31.842 32.2048 31.5607C32.4861 31.2794 32.6441 30.8978 32.6441 30.5C32.6441 30.1022 32.4861 29.7206 32.2048 29.4393C31.9235 29.158 31.5419 29 31.1441 29ZM28.6441 14C25.8752 14 23.1684 14.8211 20.8661 16.3594C18.5638 17.8978 16.7694 20.0843 15.7098 22.6424C14.6502 25.2006 14.3729 28.0155 14.9131 30.7313C15.4533 33.447 16.7867 35.9416 18.7446 37.8995C20.7026 39.8574 23.1971 41.1908 25.9128 41.731C28.6286 42.2712 31.4435 41.9939 34.0017 40.9343C36.5598 39.8747 38.7463 38.0803 40.2847 35.778C41.823 33.4757 42.6441 30.7689 42.6441 28C42.6441 24.287 41.1691 20.726 38.5436 18.1005C35.9181 15.475 32.3571 14 28.6441 14ZM31.1441 34H30.6441V35C30.6441 35.2652 30.5388 35.5196 30.3512 35.7071C30.1637 35.8946 29.9093 36 29.6441 36C29.3789 36 29.1245 35.8946 28.937 35.7071C28.7495 35.5196 28.6441 35.2652 28.6441 35V34H26.6441V35C26.6441 35.2652 26.5388 35.5196 26.3512 35.7071C26.1637 35.8946 25.9093 36 25.6441 36C25.3789 36 25.1245 35.8946 24.937 35.7071C24.7495 35.5196 24.6441 35.2652 24.6441 35V34H23.6441C23.3789 34 23.1245 33.8946 22.937 33.7071C22.7495 33.5196 22.6441 33.2652 22.6441 33C22.6441 32.7348 22.7495 32.4804 22.937 32.2929C23.1245 32.1054 23.3789 32 23.6441 32V24C23.3789 24 23.1245 23.8946 22.937 23.7071C22.7495 23.5196 22.6441 23.2652 22.6441 23C22.6441 22.7348 22.7495 22.4804 22.937 22.2929C23.1245 22.1054 23.3789 22 23.6441 22H24.6441V21C24.6441 20.7348 24.7495 20.4804 24.937 20.2929C25.1245 20.1054 25.3789 20 25.6441 20C25.9093 20 26.1637 20.1054 26.3512 20.2929C26.5388 20.4804 26.6441 20.7348 26.6441 21V22H28.6441V21C28.6441 20.7348 28.7495 20.4804 28.937 20.2929C29.1245 20.1054 29.3789 20 29.6441 20C29.9093 20 30.1637 20.1054 30.3512 20.2929C30.5388 20.4804 30.6441 20.7348 30.6441 21V22C31.4731 22.1069 32.2348 22.512 32.7869 23.1395C33.339 23.7671 33.6437 24.5742 33.6441 25.41V25.53C33.6506 26.248 33.4263 26.9492 33.0041 27.53C33.5102 27.8418 33.9271 28.2791 34.2144 28.7995C34.5018 29.3198 34.6498 29.9056 34.6441 30.5C34.6441 31.4283 34.2754 32.3185 33.619 32.9749C32.9626 33.6313 32.0724 34 31.1441 34ZM31.6441 25.56V25.44C31.6415 25.0589 31.4889 24.6941 31.2194 24.4247C30.95 24.1552 30.5852 24.0026 30.2041 24H25.6441V27H30.2041C30.5852 26.9974 30.95 26.8448 31.2194 26.5753C31.4889 26.3059 31.6415 25.9411 31.6441 25.56ZM31.1441 29H25.6441V32H31.1441C31.5419 32 31.9235 31.842 32.2048 31.5607C32.4861 31.2794 32.6441 30.8978 32.6441 30.5C32.6441 30.1022 32.4861 29.7206 32.2048 29.4393C31.9235 29.158 31.5419 29 31.1441 29ZM31.1441 29H25.6441V32H31.1441C31.5419 32 31.9235 31.842 32.2048 31.5607C32.4861 31.2794 32.6441 30.8978 32.6441 30.5C32.6441 30.1022 32.4861 29.7206 32.2048 29.4393C31.9235 29.158 31.5419 29 31.1441 29ZM30.2041 24H25.6441V27H30.2041C30.5852 26.9974 30.95 26.8448 31.2194 26.5753C31.4889 26.3059 31.6415 25.9411 31.6441 25.56V25.44C31.6415 25.0589 31.4889 24.6941 31.2194 24.4247C30.95 24.1552 30.5852 24.0026 30.2041 24ZM30.2041 24H25.6441V27H30.2041C30.5852 26.9974 30.95 26.8448 31.2194 26.5753C31.4889 26.3059 31.6415 25.9411 31.6441 25.56V25.44C31.6415 25.0589 31.4889 24.6941 31.2194 24.4247C30.95 24.1552 30.5852 24.0026 30.2041 24ZM31.1441 29H25.6441V32H31.1441C31.5419 32 31.9235 31.842 32.2048 31.5607C32.4861 31.2794 32.6441 30.8978 32.6441 30.5C32.6441 30.1022 32.4861 29.7206 32.2048 29.4393C31.9235 29.158 31.5419 29 31.1441 29ZM30.2041 24H25.6441V27H30.2041C30.5852 26.9974 30.95 26.8448 31.2194 26.5753C31.4889 26.3059 31.6415 25.9411 31.6441 25.56V25.44C31.6415 25.0589 31.4889 24.6941 31.2194 24.4247C30.95 24.1552 30.5852 24.0026 30.2041 24ZM30.2041 24H25.6441V27H30.2041C30.5852 26.9974 30.95 26.8448 31.2194 26.5753C31.4889 26.3059 31.6415 25.9411 31.6441 25.56V25.44C31.6415 25.0589 31.4889 24.6941 31.2194 24.4247C30.95 24.1552 30.5852 24.0026 30.2041 24Z" fill="#AF52DE" />
	</g>
	<g opacity="0.5">
		<path opacity="0.5" d="M28.6441 11C28.3789 11 28.1245 10.8946 27.937 10.7071C27.7495 10.5196 27.6441 10.2652 27.6441 10V3C27.6441 2.73478 27.7495 2.48043 27.937 2.29289C28.1245 2.10536 28.3789 2 28.6441 2H37.6441C37.9093 2 38.1637 2.10536 38.3512 2.29289C38.5387 2.48043 38.6441 2.73478 38.6441 3C38.6441 3.26522 38.5387 3.51957 38.3512 3.70711C38.1637 3.89464 37.9093 4 37.6441 4H29.6441V10C29.6441 10.2652 29.5387 10.5196 29.3512 10.7071C29.1637 10.8946 28.9093 11 28.6441 11Z" fill="#AF52DE" />
	</g>
	<path d="M39.6441 1.18283e-05C39.0252 0.00175134 38.4219 0.19489 37.917 0.55295C37.4122 0.91101 37.0304 1.41646 36.8241 2.00001C36.703 2.3194 36.6419 2.65843 36.6441 3.00001C36.6419 3.34159 36.703 3.68063 36.8241 4.00001C37.0076 4.51889 37.3302 4.9773 37.7567 5.32509C38.1833 5.67287 38.6973 5.89662 39.2425 5.97184C39.7876 6.04707 40.343 5.97087 40.8478 5.7516C41.3526 5.53232 41.7873 5.17841 42.1044 4.72861C42.4216 4.2788 42.6088 3.75042 42.6458 3.20131C42.6827 2.6522 42.5679 2.10351 42.3138 1.61529C42.0598 1.12707 41.6764 0.718133 41.2055 0.433238C40.7346 0.148343 40.1945 -0.00153337 39.6441 1.18283e-05ZM39.6441 4.00001C39.4463 4.00001 39.253 3.94136 39.0885 3.83148C38.9241 3.7216 38.7959 3.56542 38.7202 3.3827C38.6445 3.19997 38.6247 2.9989 38.6633 2.80492C38.7019 2.61094 38.7971 2.43276 38.937 2.29291C39.0768 2.15305 39.255 2.05781 39.449 2.01923C39.643 1.98064 39.8441 2.00044 40.0268 2.07613C40.2095 2.15182 40.3657 2.27999 40.4756 2.44444C40.5855 2.60889 40.6441 2.80223 40.6441 3.00001C40.6441 3.26523 40.5387 3.51958 40.3512 3.70712C40.1637 3.89466 39.9093 4.00001 39.6441 4.00001Z" fill="#AF52DE" />
	<g opacity="0.5">
		<path opacity="0.5" d="M28.6441 54H19.6441C19.3789 54 19.1245 53.8946 18.937 53.7071C18.7495 53.5196 18.6441 53.2652 18.6441 53C18.6441 52.7348 18.7495 52.4804 18.937 52.2929C19.1245 52.1054 19.3789 52 19.6441 52H27.6441V46C27.6441 45.7348 27.7495 45.4804 27.937 45.2929C28.1245 45.1054 28.3789 45 28.6441 45C28.9093 45 29.1637 45.1054 29.3512 45.2929C29.5387 45.4804 29.6441 45.7348 29.6441 46V53C29.6441 53.2652 29.5387 53.5196 29.3512 53.7071C29.1637 53.8946 28.9093 54 28.6441 54Z" fill="#AF52DE" />
	</g>
	<path d="M20.4641 52C20.2282 51.3328 19.764 50.7705 19.1536 50.4124C18.5432 50.0543 17.8259 49.9235 17.1284 50.0432C16.4309 50.1629 15.7981 50.5253 15.342 51.0663C14.8859 51.6074 14.6357 52.2923 14.6357 53C14.6357 53.7077 14.8859 54.3926 15.342 54.9337C15.7981 55.4747 16.4309 55.8371 17.1284 55.9568C17.8259 56.0765 18.5432 55.9457 19.1536 55.5876C19.764 55.2296 20.2282 54.6672 20.4641 54C20.7039 53.3549 20.7039 52.6451 20.4641 52ZM17.6441 54C17.4463 54 17.253 53.9414 17.0885 53.8315C16.9241 53.7216 16.7959 53.5654 16.7202 53.3827C16.6445 53.2 16.6247 52.9989 16.6633 52.8049C16.7019 52.6109 16.7971 52.4328 16.937 52.2929C17.0769 52.153 17.255 52.0578 17.449 52.0192C17.643 51.9806 17.8441 52.0004 18.0268 52.0761C18.2095 52.1518 18.3657 52.28 18.4756 52.4444C18.5855 52.6089 18.6441 52.8022 18.6441 53C18.6441 53.2652 18.5388 53.5196 18.3512 53.7071C18.1637 53.8946 17.9093 54 17.6441 54Z" fill="#AF52DE" />
	<path d="M50.6441 3C49.8485 3 49.0854 3.31607 48.5228 3.87868C47.9602 4.44129 47.6441 5.20435 47.6441 6C47.6399 6.44456 47.7428 6.88359 47.9441 7.28C48.2325 7.90786 48.7362 8.41162 49.3641 8.7C49.7605 8.90127 50.1995 9.00417 50.6441 9C51.4398 9 52.2028 8.68393 52.7654 8.12132C53.328 7.55871 53.6441 6.79565 53.6441 6C53.6441 5.20435 53.328 4.44129 52.7654 3.87868C52.2028 3.31607 51.4398 3 50.6441 3ZM50.6441 7C50.401 6.99965 50.1664 6.91078 49.9841 6.75L49.8941 6.66C49.7333 6.4777 49.6445 6.24307 49.6441 6C49.6441 5.80222 49.7028 5.60888 49.8126 5.44443C49.9225 5.27998 50.0787 5.15181 50.2614 5.07612C50.4441 5.00043 50.6452 4.98063 50.8392 5.01921C51.0332 5.0578 51.2114 5.15304 51.3512 5.29289C51.4911 5.43275 51.5863 5.61093 51.6249 5.80491C51.6635 5.99889 51.6437 6.19996 51.568 6.38268C51.4923 6.56541 51.3641 6.72159 51.1997 6.83147C51.0352 6.94135 50.8419 7 50.6441 7Z" fill="#AF52DE" />
	<g opacity="0.5">
		<path opacity="0.5" d="M41.3741 16.27C41.2406 16.2761 41.1072 16.2553 40.9818 16.2089C40.8564 16.1626 40.7416 16.0915 40.6441 16C40.5504 15.907 40.476 15.7964 40.4252 15.6746C40.3745 15.5527 40.3483 15.422 40.3483 15.29C40.3483 15.158 40.3745 15.0273 40.4252 14.9054C40.476 14.7836 40.5504 14.673 40.6441 14.58L48.5241 6.70001C48.6174 6.60677 48.7281 6.53281 48.8499 6.48235C48.9717 6.43189 49.1023 6.40591 49.2341 6.40591C49.366 6.40591 49.4966 6.43189 49.6184 6.48235C49.7402 6.53281 49.8509 6.60677 49.9441 6.70001C50.0374 6.79324 50.1113 6.90393 50.1618 7.02576C50.2122 7.14758 50.2382 7.27815 50.2382 7.41001C50.2382 7.54186 50.2122 7.67243 50.1618 7.79425C50.1113 7.91608 50.0374 8.02677 49.9441 8.12001L42.0841 16C41.8922 16.1799 41.6371 16.2769 41.3741 16.27Z" fill="#AF52DE" />
	</g>
	<path d="M9.34411 48.72C9.05573 48.0921 8.55196 47.5884 7.92411 47.3C7.5277 47.0987 7.08866 46.9958 6.64411 47C6.05076 47 5.47074 47.1759 4.97739 47.5056C4.48405 47.8352 4.09953 48.3038 3.87247 48.852C3.6454 49.4001 3.58599 50.0033 3.70175 50.5853C3.81751 51.1672 4.10323 51.7018 4.52279 52.1213C4.94234 52.5409 5.47689 52.8266 6.05883 52.9424C6.64078 53.0581 7.24398 52.9987 7.79216 52.7716C8.34033 52.5446 8.80887 52.1601 9.13851 51.6667C9.46816 51.1734 9.64411 50.5933 9.64411 50C9.64827 49.5554 9.54537 49.1164 9.34411 48.72ZM6.64411 51C6.37889 51 6.12454 50.8946 5.937 50.7071C5.74946 50.5196 5.64411 50.2652 5.64411 50C5.64411 49.7348 5.74946 49.4804 5.937 49.2929C6.12454 49.1054 6.37889 49 6.64411 49C6.88718 49.0003 7.1218 49.0892 7.30411 49.25C7.41077 49.3437 7.49626 49.4591 7.55489 49.5884C7.61351 49.7177 7.64393 49.858 7.64411 50C7.64411 50.2652 7.53875 50.5196 7.35121 50.7071C7.16368 50.8946 6.90932 51 6.64411 51Z" fill="#AF52DE" />
	<g opacity="0.5">
		<path opacity="0.5" d="M8.05408 49.59C7.92247 49.5908 7.79201 49.5655 7.67017 49.5158C7.54833 49.466 7.43752 49.3927 7.34408 49.3C7.25035 49.2071 7.17595 49.0964 7.12519 48.9746C7.07442 48.8527 7.04828 48.722 7.04828 48.59C7.04828 48.458 7.07442 48.3273 7.12519 48.2054C7.17595 48.0836 7.25035 47.973 7.34408 47.88L15.2041 40C15.395 39.8091 15.654 39.7018 15.9241 39.7018C16.1941 39.7018 16.4531 39.8091 16.6441 40C16.835 40.191 16.9423 40.45 16.9423 40.72C16.9423 40.9901 16.835 41.2491 16.6441 41.44L8.76408 49.3C8.67064 49.3927 8.55982 49.466 8.43798 49.5158C8.31615 49.5655 8.18568 49.5908 8.05408 49.59Z" fill="#AF52DE" />
	</g>
	<g opacity="0.5">
		<path opacity="0.5" d="M15.2341 17H8.6441C8.37889 17 8.12453 16.8946 7.937 16.7071C7.74946 16.5196 7.6441 16.2652 7.6441 16V5C7.6441 4.73478 7.74946 4.48043 7.937 4.29289C8.12453 4.10536 8.37889 4 8.6441 4C8.90932 4 9.16367 4.10536 9.35121 4.29289C9.53875 4.48043 9.6441 4.73478 9.6441 5V15H15.2341C15.4993 15 15.7537 15.1054 15.9412 15.2929C16.1287 15.4804 16.2341 15.7348 16.2341 16C16.2341 16.2652 16.1287 16.5196 15.9412 16.7071C15.7537 16.8946 15.4993 17 15.2341 17Z" fill="#AF52DE" />
	</g>
	<path d="M8.64409 0C7.94055 0.00545837 7.2613 0.258013 6.7251 0.713515C6.18889 1.16902 5.82983 1.79849 5.71069 2.49189C5.59155 3.18529 5.71991 3.89851 6.07332 4.50687C6.42673 5.11523 6.98272 5.58002 7.64409 5.82C8.28919 6.0598 8.99899 6.0598 9.64409 5.82C10.3055 5.58002 10.8614 5.11523 11.2149 4.50687C11.5683 3.89851 11.6966 3.18529 11.5775 2.49189C11.4583 1.79849 11.0993 1.16902 10.5631 0.713515C10.0269 0.258013 9.34763 0.00545837 8.64409 0ZM8.64409 4C8.44631 4 8.25297 3.94135 8.08852 3.83147C7.92407 3.72159 7.7959 3.56541 7.72021 3.38268C7.64452 3.19996 7.62472 2.99889 7.6633 2.80491C7.70189 2.61093 7.79713 2.43275 7.93698 2.29289C8.07684 2.15304 8.25502 2.0578 8.449 2.01921C8.64298 1.98063 8.84405 2.00043 9.02677 2.07612C9.2095 2.15181 9.36568 2.27998 9.47556 2.44443C9.58544 2.60888 9.64409 2.80222 9.64409 3C9.64409 3.26522 9.53873 3.51957 9.3512 3.70711C9.16366 3.89464 8.90931 4 8.64409 4Z" fill="#AF52DE" />
	<g opacity="0.5">
		<path opacity="0.5" d="M48.6441 52C48.3789 52 48.1245 51.8946 47.937 51.7071C47.7494 51.5196 47.6441 51.2652 47.6441 51V41H42.0541C41.7889 41 41.5345 40.8946 41.347 40.7071C41.1594 40.5196 41.0541 40.2652 41.0541 40C41.0541 39.7348 41.1594 39.4804 41.347 39.2929C41.5345 39.1054 41.7889 39 42.0541 39H48.6441C48.9093 39 49.1636 39.1054 49.3512 39.2929C49.5387 39.4804 49.6441 39.7348 49.6441 40V51C49.6441 51.2652 49.5387 51.5196 49.3512 51.7071C49.1636 51.8946 48.9093 52 48.6441 52Z" fill="#AF52DE" />
	</g>
	<path d="M49.6441 50.18C48.999 49.9402 48.2892 49.9402 47.6441 50.18C46.9769 50.4159 46.4146 50.8801 46.0565 51.4905C45.6984 52.1009 45.5676 52.8182 45.6873 53.5157C45.807 54.2132 46.1694 54.846 46.7105 55.3021C47.2515 55.7583 47.9364 56.0084 48.6441 56.0084C49.3518 56.0084 50.0367 55.7583 50.5778 55.3021C51.1188 54.846 51.4812 54.2132 51.6009 53.5157C51.7206 52.8182 51.5898 52.1009 51.2317 51.4905C50.8737 50.8801 50.3113 50.4159 49.6441 50.18ZM48.6441 54C48.4463 54 48.253 53.9414 48.0885 53.8315C47.9241 53.7216 47.7959 53.5654 47.7202 53.3827C47.6445 53.2 47.6247 52.9989 47.6633 52.8049C47.7019 52.6109 47.7971 52.4327 47.937 52.2929C48.0769 52.153 48.255 52.0578 48.449 52.0192C48.643 51.9806 48.8441 52.0004 49.0268 52.0761C49.2095 52.1518 49.3657 52.28 49.4756 52.4444C49.5855 52.6089 49.6441 52.8022 49.6441 53C49.6441 53.2652 49.5388 53.5196 49.3512 53.7071C49.1637 53.8946 48.9093 54 48.6441 54Z" fill="#AF52DE" />
	<path d="M4.64411 35.18C4.32473 35.0589 3.98569 34.9978 3.64411 35C3.30253 34.9978 2.96349 35.0589 2.64411 35.18C1.9769 35.4159 1.41456 35.8801 1.05648 36.4905C0.698402 37.1009 0.567643 37.8182 0.687315 38.5157C0.806986 39.2132 1.16938 39.846 1.71045 40.3021C2.25152 40.7582 2.93642 41.0084 3.64411 41.0084C4.3518 41.0084 5.0367 40.7582 5.57777 40.3021C6.11884 39.846 6.48123 39.2132 6.60091 38.5157C6.72058 37.8182 6.58982 37.1009 6.23174 36.4905C5.87366 35.8801 5.31132 35.4159 4.64411 35.18ZM3.64411 39C3.44633 39 3.25299 38.9413 3.08854 38.8315C2.92409 38.7216 2.79592 38.5654 2.72023 38.3827C2.64454 38.2 2.62474 37.9989 2.66332 37.8049C2.70191 37.6109 2.79715 37.4327 2.937 37.2929C3.07686 37.153 3.25504 37.0578 3.44902 37.0192C3.643 36.9806 3.84407 37.0004 4.02679 37.0761C4.20952 37.1518 4.3657 37.28 4.47558 37.4444C4.58546 37.6089 4.64411 37.8022 4.64411 38C4.64411 38.2652 4.53875 38.5196 4.35122 38.7071C4.16368 38.8946 3.90933 39 3.64411 39Z" fill="#AF52DE" />
	<g opacity="0.5">
		<path opacity="0.5" d="M3.6441 37C3.37889 37 3.12453 36.8946 2.937 36.7071C2.74946 36.5196 2.6441 36.2652 2.6441 36V33C2.64484 32.8413 2.68331 32.6852 2.75634 32.5443C2.82937 32.4035 2.93486 32.282 3.0641 32.19L10.0641 27.19C10.2794 27.0625 10.5347 27.0203 10.7795 27.0718C11.0244 27.1233 11.2411 27.2648 11.3867 27.4682C11.5324 27.6717 11.5965 27.9223 11.5664 28.1708C11.5363 28.4192 11.4142 28.6472 11.2241 28.81L4.6441 33.51V36C4.6441 36.2652 4.53875 36.5196 4.35121 36.7071C4.16367 36.8946 3.90932 37 3.6441 37Z" fill="#AF52DE" />
	</g>
	<path d="M53.6441 15C52.9405 15.0055 52.2613 15.258 51.7251 15.7135C51.1889 16.169 50.8298 16.7985 50.7107 17.4919C50.5915 18.1853 50.7199 18.8985 51.0733 19.5069C51.4267 20.1152 51.9827 20.58 52.6441 20.82C53.2892 21.0598 53.999 21.0598 54.6441 20.82C55.3055 20.58 55.8614 20.1152 56.2149 19.5069C56.5683 18.8985 56.6966 18.1853 56.5775 17.4919C56.4583 16.7985 56.0993 16.169 55.5631 15.7135C55.0269 15.258 54.3476 15.0055 53.6441 15ZM53.6441 19C53.4463 19 53.253 18.9414 53.0885 18.8315C52.9241 18.7216 52.7959 18.5654 52.7202 18.3827C52.6445 18.2 52.6247 17.9989 52.6633 17.8049C52.7019 17.6109 52.7971 17.4327 52.937 17.2929C53.0768 17.153 53.255 17.0578 53.449 17.0192C53.643 16.9806 53.844 17.0004 54.0268 17.0761C54.2095 17.1518 54.3657 17.28 54.4756 17.4444C54.5854 17.6089 54.6441 17.8022 54.6441 18C54.6441 18.2652 54.5387 18.5196 54.3512 18.7071C54.1637 18.8946 53.9093 19 53.6441 19Z" fill="#AF52DE" />
	<g opacity="0.5">
		<path opacity="0.5" d="M46.6441 29C46.4333 28.9987 46.2284 28.9307 46.0585 28.806C45.8886 28.6812 45.7625 28.5059 45.6982 28.3052C45.6339 28.1045 45.6346 27.8885 45.7004 27.6883C45.7661 27.488 45.8934 27.3136 46.0641 27.19L52.6441 22.49V20C52.6441 19.7348 52.7495 19.4804 52.937 19.2929C53.1245 19.1054 53.3789 19 53.6441 19C53.9093 19 54.1637 19.1054 54.3512 19.2929C54.5388 19.4804 54.6441 19.7348 54.6441 20V23C54.6434 23.1587 54.6049 23.3148 54.5319 23.4557C54.4588 23.5965 54.3534 23.718 54.2241 23.81L47.2241 28.81C47.0553 28.9322 46.8525 28.9987 46.6441 29Z" fill="#AF52DE" />
	</g>
</svg>
