<svg width="183" height="53" viewBox="0 0 183 53" fill="none" xmlns="http://www.w3.org/2000/svg">
	<g opacity="0.6">
		<path d="M62.4441 13.9507C60.4926 13.9507 58.5969 14.2016 57.8163 14.3967C56.7011 14.7034 56.4223 15.2052 56.1993 16.2089L51.7944 36.6998C51.7108 37.118 51.655 37.4804 51.655 37.815C51.655 38.8186 52.3241 39.4877 53.4114 39.4877C54.6102 39.4877 55.0841 38.7071 55.335 37.5362L56.5896 31.7095C57.4538 31.821 58.6247 31.9325 60.2696 31.9325C67.5181 31.9325 72.0066 28.0295 72.0066 22.1192C71.9787 16.9058 68.3823 13.9507 62.4441 13.9507ZM60.0744 28.5592C58.9593 28.5592 58.0672 28.5313 57.2866 28.4198L59.6284 17.5471C60.3532 17.4355 61.4405 17.2961 62.5557 17.2961C66.4029 17.2961 68.3545 19.1083 68.3545 22.1192C68.3545 25.9665 65.5666 28.5592 60.0744 28.5592ZM176.329 32.741C175.744 32.741 175.353 33.1035 174.629 33.8841C173.346 35.2222 172.538 35.9471 171.506 35.9471C170.586 35.9471 170.112 35.2222 170.112 34.0235C170.112 33.3544 170.252 32.5459 170.419 31.6816L171.701 25.604H175.577C176.803 25.604 177.528 24.9071 177.528 23.6525C177.528 22.9555 177.082 22.4259 176.023 22.4259H172.37L173.012 19.5822C173.095 19.164 173.151 18.7737 173.151 18.4392C173.151 17.4634 172.482 16.7664 171.395 16.7664C170.252 16.7664 169.722 17.5471 169.471 18.718L168.663 22.4259H167.018C165.763 22.4259 165.038 23.1228 165.038 24.3774C165.038 25.0743 165.54 25.604 166.572 25.604H167.993L166.711 31.6259C166.572 32.295 166.404 33.3822 166.404 34.4974C166.404 37.341 167.882 39.4041 171.032 39.4041C172.844 39.4041 174.461 38.4841 175.688 37.3968C176.887 36.3374 177.751 35.055 177.751 34.2186C177.779 33.4101 177.138 32.741 176.329 32.741ZM95.9266 16.0137C95.9266 15.0101 95.2297 14.341 94.1424 14.341C92.9994 14.341 92.4697 15.1216 92.2188 16.2925L87.8418 36.5883C87.7303 37.0065 87.6745 37.3689 87.6745 37.7035C87.6745 38.7071 88.3715 39.3762 89.4309 39.3762C90.6297 39.3762 91.1315 38.5956 91.3824 37.4247L95.7594 17.1289C95.8151 16.7107 95.9266 16.3483 95.9266 16.0137ZM158.32 22.0913C152.716 22.0913 148.924 27.6392 148.924 32.9362C148.924 33.0477 148.924 33.1313 148.924 33.2428C148.06 34.581 146.917 35.9471 146.164 35.9471C145.607 35.9471 145.384 35.4174 145.384 34.6089C145.384 33.6332 145.663 31.9883 145.969 30.5665L148.869 17.1289C148.952 16.7107 149.008 16.3483 149.008 16.0137C149.008 15.0101 148.339 14.341 147.252 14.341C146.053 14.341 145.579 15.1216 145.328 16.2925L143.767 23.5689C142.93 22.7046 141.704 22.0913 139.864 22.0913C136.156 22.0913 132.42 24.9628 130.97 29.3398C129.353 33.4938 127.932 35.9471 126.789 35.9471C126.37 35.9471 126.119 35.5847 126.119 34.9992C126.119 33.2428 127.095 28.9774 127.513 26.9143C127.653 26.1337 127.736 25.8271 127.736 25.381C127.736 23.8477 125.172 22.0356 121.854 22.0356C118.007 22.0356 114.522 24.461 112.793 28.0853C110.201 32.6574 107.831 35.9471 106.66 35.9471C106.13 35.9471 105.963 35.278 105.824 34.6647L104.959 29.8416L110.312 25.4646C110.814 25.0465 111.427 24.461 111.427 23.6804C111.427 22.7325 110.786 22.1192 109.866 22.1192C109.169 22.1192 108.584 22.5374 107.97 23.0392L99.9412 29.6744L102.645 17.1568C102.729 16.7386 102.813 16.3761 102.813 16.0416C102.813 15.038 102.116 14.3689 101.028 14.3689C99.8854 14.3689 99.3558 15.1495 99.1048 16.3204L94.7279 36.6162C94.6163 37.0344 94.5606 37.3968 94.5606 37.7313C94.5606 38.735 95.2576 39.4041 96.317 39.4041C97.5157 39.4041 98.0176 38.6235 98.2685 37.4526L98.8261 34.8319L102.116 32.1835L102.924 36.2259C103.231 37.8429 104.067 39.4041 106.242 39.4041C108.388 39.4041 110.089 37.4247 111.79 34.7762C112.292 37.5641 114.299 39.4041 117.031 39.4041C119.791 39.4041 121.687 37.7592 122.913 35.5568V35.6404C122.913 37.9265 124.056 39.4041 126.092 39.4041C127.932 39.4041 129.437 38.2889 130.803 35.9471C131.584 37.9823 133.312 39.4041 135.71 39.4041C138.553 39.4041 140.561 37.7035 141.871 35.3059V35.5289C141.871 38.038 143.126 39.4041 145.189 39.4041C147.001 39.4041 148.562 38.3447 149.872 36.6162C150.876 38.3447 152.688 39.4041 155.113 39.4041C160.717 39.4041 164.509 33.8562 164.509 28.5313C164.481 24.7677 162.223 22.0913 158.32 22.0913ZM123.471 29.2004C122.467 33.5774 120.293 36.0586 117.839 36.0586C116.195 36.0586 115.275 34.8041 115.275 32.9083C115.275 29.2004 117.979 25.2137 121.575 25.2137C122.662 25.2137 123.499 25.5204 124.224 25.9943L123.471 29.2004ZM142.958 27.3325C141.843 32.4622 139.278 36.0307 136.49 36.0307C134.957 36.0307 134.037 34.8319 134.037 32.8804C134.037 29.1447 136.63 25.2695 140.087 25.2695C141.425 25.2695 142.429 25.7156 143.153 26.3289L142.958 27.3325ZM155.504 36.0307C153.469 36.0307 152.632 34.5532 152.632 32.7131C152.632 29.3119 154.974 25.4368 157.901 25.4368C159.936 25.4368 160.773 26.9144 160.773 28.7544C160.773 32.1835 158.431 36.0307 155.504 36.0307ZM80.7048 22.0913C75.1011 22.0913 71.3096 27.6392 71.3096 32.9362C71.3096 36.6998 73.5957 39.4041 77.4708 39.4041C83.0745 39.4041 86.866 33.8562 86.866 28.5313C86.8381 24.7677 84.58 22.0913 80.7048 22.0913ZM77.8612 36.0307C75.826 36.0307 74.9896 34.5532 74.9896 32.7131C74.9896 29.3119 77.3315 25.4368 80.2587 25.4368C82.2939 25.4368 83.1303 26.9144 83.1303 28.7544C83.1303 32.1835 80.7884 36.0307 77.8612 36.0307Z" fill="white" />
		<path d="M27.3164 8.59912C30.8849 8.59912 33.7564 10.2719 33.7564 12.3628C33.7564 14.4258 30.857 16.1264 27.3164 16.1264C23.7758 16.1264 20.8764 14.4537 20.8764 12.3628C20.8764 10.2997 23.7479 8.59912 27.3164 8.59912ZM27.3164 36.8683C30.8849 36.8683 33.7564 38.541 33.7564 40.6319C33.7564 42.7228 30.857 44.3956 27.3164 44.3956C23.7758 44.3956 20.8764 42.7228 20.8764 40.6319C20.8764 38.541 23.7479 36.8683 27.3164 36.8683ZM11.8158 17.5482C13.6 14.4537 16.4994 12.8088 18.2837 13.8404C20.0679 14.8719 20.0958 18.2173 18.3116 21.3119C16.5273 24.4064 13.6279 26.0513 11.8437 25.0198C10.0594 23.9882 10.0315 20.6428 11.8158 17.5482ZM36.2934 31.6828C38.0777 28.5883 40.9771 26.9434 42.7613 27.9749C44.5456 29.0064 44.5734 32.3519 42.7892 35.4465C41.0049 38.541 38.1055 40.1859 36.3213 39.1543C34.5371 38.1228 34.5371 34.7774 36.2934 31.6828ZM11.8437 27.9749C13.6279 26.9434 16.5273 28.5883 18.3116 31.6828C20.0958 34.7774 20.0679 38.1228 18.2837 39.1543C16.4994 40.1859 13.6 38.541 11.8158 35.4465C10.0315 32.3519 10.0594 29.0064 11.8437 27.9749ZM36.3213 13.8404C38.1055 12.8088 41.0049 14.4537 42.7892 17.5482C44.5734 20.6428 44.5734 23.9882 42.7613 25.0198C40.9771 26.0513 38.0777 24.4064 36.2934 21.3119C34.5371 18.2173 34.5371 14.8719 36.3213 13.8404Z" fill="white" />
	</g>
</svg>
